<svg width="80" height="80" viewBox="0 0 80 80" fill="none" xmlns="http://www.w3.org/2000/svg">
<g clip-path="url(#clip0_221_2)">
<mask id="path-1-inside-1_221_2" fill="white">
<path d="M76.8359 0.742188H77.2266L77.8516 0.820312L78.3984 1.01562L78.9062 1.32812L79.2969 1.67969L79.6484 2.1875L79.8438 2.57812L79.9609 2.96875L80 3.00781V4.375H79.9219L79.8438 4.76562L79.5312 5.35156L79.1016 5.85938L78.7109 6.17188L78.0859 6.48438L77.1484 6.79688L76.875 6.95312L76.8359 7.03125H76.7578L76.6797 7.1875L76.1719 8.04688L75.5859 9.10156L75.3516 9.49219L75.1172 9.92188L74.5312 10.9766L73.4375 12.8906L73.2031 13.3203L72.1875 15.1172L71.875 15.5078L71.5234 15.8203L71.1328 16.0156L70.625 16.1328H70.1172L69.5312 15.9766L68.9844 15.7812L68.3203 15.7031L67.8125 15.7422L67.1875 15.9375L66.7578 16.1719L66.25 16.6016L64.3359 18.5156L64.2969 18.5938H64.2188V18.6719H64.1406V18.75H64.0625L63.9844 18.9062L62.5 20.3906L62.4609 20.4688H62.3828L62.3047 20.625L60.8203 22.1094L60.625 22.3438L58.6719 24.2969L58.3984 24.6094L57.0703 25.9375L57.0312 26.0156H56.9531V26.0938H56.875L56.7969 26.25L55.1562 27.8906L55.1172 27.9688H55.0391L54.9609 28.125L53.4766 29.6094L53.2422 29.8828H53.1641L53.0859 30.0391L51.4844 31.6406L51.2891 31.875H51.2109L51.1328 32.0312L49.8047 33.3594L49.7656 33.4375H49.6875V33.5156H49.6094V33.5938H49.5312L49.4531 33.75L47.9688 35.2344L47.9297 35.3125H47.8516L47.7734 35.4688L46.2891 36.9531L46.0547 37.2266H45.9766L45.8984 37.3828L44.1406 39.1406L43.8672 39.4531L42.5391 40.7812L42.5 40.8594H42.4219V40.9375H42.3438L42.2656 41.0938L40.7812 42.5781L40.5859 42.8125H40.5078L40.4297 42.9688L38.9453 44.4531L38.7109 44.7266H38.6328L38.5547 44.8828L36.9531 46.4844L36.7578 46.7188H36.6797L36.6016 46.875L35.2734 48.2031L35.2344 48.2812H35.1562L35.0781 48.4375H35L34.9219 48.5938L33.5938 49.9219L33.3984 50.1562H33.3203L33.2422 50.3125L31.4062 52.1484L31.1719 52.4609L30.9766 53.125L30.9375 53.6328L31.0547 54.1406L31.3281 54.5703L31.6016 54.8438L32.0703 55.0781L32.4219 55.1562H33.2812L34.2578 54.9609L35.7031 54.4141L36.1328 54.2188L36.6797 54.0625H37.3047L37.8125 54.2188L38.2422 54.4922L38.5938 54.8438L38.8672 55.2734L39.0625 55.7031L39.1797 56.1719L39.2188 56.4844V56.9141L39.1406 57.5391L38.9453 58.1641L38.5938 58.8281L38.2422 59.2969L37.8125 59.7656L37.3047 60.1953L36.6797 60.6641L35.7031 61.25L35.1562 61.5625L34.5703 61.875L33.6719 62.3047L32.8906 62.6562L31.9922 63.0469L31.3281 63.3594L30.6641 63.7891L30.1172 64.2578L29.6094 64.7656L29.2188 65.3125L28.8672 65.8984L28.5547 66.6406L28.2031 67.8125L27.8125 69.2578L27.5 70.1953L27.0312 71.4453L26.4062 72.7344L26.1719 73.1641L25.5469 74.1406L24.7266 75.3516L24.2578 75.8984L23.7891 76.4062L23.4766 76.7188L23.1641 76.9922L22.3828 77.5781L21.5234 78.0859L20.625 78.5156L19.7656 78.8281L18.7891 79.0625L18.0469 79.1797L17.6172 79.2188H16.0547L15.0781 79.1016L14.1016 78.8672L13.2812 78.5938L12.5 78.2422L11.8359 77.8906L11.1328 77.4219L10.625 77.0312L10.1953 76.6406L9.88281 76.3672L2.65625 69.1406L2.30469 68.7109L1.99219 68.3594L1.48438 67.6172L1.05469 66.875L0.703125 66.1328L0.429688 65.3906L0.195312 64.4922L0 63.5547V61.1719L0.117188 60.6641L0.351562 59.6094L0.625 58.7891L0.9375 58.0859L1.32812 57.3438L1.79688 56.6406L2.1875 56.1328L2.61719 55.6641L2.89062 55.3516L3.35938 54.9219L3.78906 54.5703L4.49219 54.0625L5.03906 53.7109L5.85938 53.3203L6.67969 53.0078L8.125 52.5781L12.0703 51.2109L13.0078 50.8203L13.9062 50.3516L14.375 50.0391L15 49.5703L15.3906 49.2188L15.7031 48.9453L15.9766 48.6719L16.25 48.3594L16.6406 47.8906L17.1875 47.0703L17.6562 46.1719L18.0859 45.1562L18.6328 43.8281L19.1016 42.6953L19.6094 41.7188L20.1562 40.8203L20.5078 40.3125L20.9375 39.7266L21.4062 39.1797L21.7578 38.7891L22.1875 38.3594H22.2656V38.2812L23.3594 37.4219L24.0625 36.9141L24.7266 36.4453L25.3125 36.0547L25.8203 35.7422L26.6016 35.2734L27.6562 34.7656L28.8281 34.375L29.4922 34.2578H30.5469L31.0156 34.375L31.6406 34.6875L32.1875 35.1562L32.4609 35.625L32.5 35.7812V36.3672L32.3047 36.875L32.0312 37.3438L31.6016 37.8516L31.25 38.2812L30.625 38.9062L30.3125 39.1797L29.9219 39.5312L29.375 39.9609L28.9453 40.3125L28.3984 40.7422L27.7734 41.25L27.4609 41.6406L27.1484 42.1875L26.9141 42.8516L26.8359 43.2812V43.9844L26.9531 44.4141L27.1484 44.8047L27.5 45.1953L27.8125 45.3906L28.0078 45.4688L28.7891 45.5859L29.1016 45.3125L29.2969 45.1172H29.375L29.4531 44.9609L29.7656 44.6875L30.8984 43.5547L31.2109 43.2812L32.2656 42.2266H32.3438V42.1484L32.6562 41.875L33.5156 41.0156L33.8281 40.7422L35.0781 39.4922L35.3906 39.2188L36.5234 38.0859L36.8359 37.8125L37.9688 36.6797H38.0469V36.6016H38.125V36.5234L38.4375 36.25L39.1016 35.5859L39.4141 35.3125L40.5469 34.1797H40.625L40.7031 34.0234L41.0156 33.75L42.1875 32.5781H42.2656V32.5L42.5781 32.2266L43.5938 31.2109H43.6719V31.1328H43.75V31.0547L44.0625 30.7812L44.7656 30.0781L45.0781 29.8047L46.3281 28.5547L46.6406 28.2812L47.8125 27.1094H47.8906L47.9297 26.9922L48.2422 26.7188L49.2969 25.6641H49.375V25.5859L49.6875 25.3125L50.3906 24.6094L50.7031 24.3359L51.9531 23.0859L52.2656 22.8125L53.4375 21.6406H53.5156L53.5547 21.5234L53.8672 21.25L54.9219 20.1953H55V20.1172L55.3125 19.8438L56.1328 19.0234L56.4453 18.75L57.5781 17.6172H57.6562L57.7344 17.4609L58.0469 17.1875L59.1797 16.0547L59.4922 15.7812L60.5469 14.7266H60.625V14.6484L60.9375 14.375L61.3672 13.9453L61.7188 13.4375L61.9922 12.7734L62.2266 12.1094L62.4609 11.6406L62.8125 11.1719L63.0859 10.8984L63.5547 10.5469L64.0625 10.1562L63.9062 9.88281L63.5547 9.375L63.4375 9.10156V8.78906L63.5547 8.55469L63.8281 8.32031L63.9453 8.28125H64.3359L64.6094 8.4375L64.8828 8.75L65.1953 9.21875L65.3516 9.14062L65.8984 8.71094L66.5234 8.20312L67.0312 7.8125L67.1875 7.65625L66.9141 7.22656L66.6406 6.83594L66.5625 6.64062V6.36719L66.7188 6.05469L66.9531 5.85938L67.0312 5.82031H67.5L67.7344 5.97656L68.0078 6.28906L68.2812 6.67969V6.75781L68.4766 6.67969L69.0625 6.21094L69.6094 5.78125L70.3125 5.23438L70.2344 5.03906L69.8047 4.45312L69.6484 4.0625L69.7266 3.67188L69.9609 3.39844L70.2734 3.28125L70.5859 3.32031L70.8203 3.47656L71.1328 3.82812L71.4453 4.29688L71.7188 4.14062L72.1875 3.75L73.2812 2.89062L73.4375 2.77344L73.3594 2.57812L72.8906 1.91406L72.7734 1.64062L72.8125 1.28906L73.0078 0.976562L73.3203 0.820312H73.6328L73.9453 0.976562L74.2969 1.40625L74.5703 1.79688L74.7266 1.75781L75.2344 1.36719L75.7422 1.05469L76.3281 0.820312L76.8359 0.742188ZM76.9141 2.14844L76.5625 2.22656L76.0547 2.5L75.4297 3.00781L74.8047 3.47656L74.3359 3.86719L73.7891 4.29688L73.2812 4.6875L72.5781 5.23438L71.9531 5.74219L71.2891 6.25L70.3125 7.03125L69.8047 7.42188L69.2188 7.89062L68.125 8.75L67.4219 9.29688L66.7969 9.80469L66.1328 10.3125L65.5469 10.7812L65.1953 11.0547L64.6484 11.4844L64.0234 11.9922L63.75 12.2266L63.4375 12.8906L63.1641 13.6328L62.8516 14.2578L62.4609 14.8047L61.9922 15.3125L61.5234 15.7812L61.4062 15.8594V15.9375L61.25 16.0156L60.1172 17.1484L59.9609 17.2656V17.3438L59.8047 17.4219L58.8281 18.3984L58.75 18.4375V18.5156L58.5938 18.5938L57.5391 19.6484L57.4609 19.6875V19.7656H57.3828V19.8438L57.2266 19.9219L56.0547 21.0938L55.7812 21.3281V21.4062L55.625 21.4844L54.4141 22.6953L54.3359 22.7344V22.8125L54.1797 22.8906L53.2031 23.8672L53.125 23.9062V23.9844H53.0469V24.0625L52.8906 24.1406L51.8359 25.1953L51.7578 25.2344V25.3125L51.6016 25.3906L50.2734 26.7188L50.1562 26.7969V26.875L50 26.9531L48.7891 28.1641L48.7109 28.2031V28.2812L48.5547 28.3594L47.5781 29.3359L47.5 29.375V29.4531H47.4219V29.5312L47.2656 29.6094L46.1328 30.7422L45.8203 31.0156L44.6484 32.1875L44.5312 32.2656V32.3438L44.375 32.4219V32.5L44.2188 32.5781L43.0859 33.7109L42.7734 33.9844L41.7969 34.9609L41.7188 35V35.0781L41.5625 35.1562L40.5078 36.2109L40.3516 36.3281V36.4062L40.1953 36.4844L39.0234 37.6562L38.75 37.8906V37.9688L38.5938 38.0469L37.4609 39.1797L37.3047 39.2969V39.375L37.1484 39.4531L36.1719 40.4297L36.0938 40.4688V40.5469L35.9375 40.625L34.8047 41.7578L34.7266 41.7969V41.875L34.5703 41.9531L33.2422 43.2812L33.125 43.3594V43.4375L32.9688 43.5156L31.7578 44.7266L31.6797 44.7656V44.8438L31.5234 44.9219L30.5469 45.8984L30.4688 45.9375V46.0156H30.3906V46.0938L30.2344 46.1719L29.1016 47.3047L28.7891 47.5781L27.6172 48.75L27.5 48.8281V48.9062L27.3438 48.9844L26.1328 50.1953L26.0547 50.2344V50.3125L25.8984 50.3906L25.5078 50.7812L25.7422 51.0547L28.0859 53.3984L28.2031 53.4375L28.6328 53.0078V52.9297L28.75 52.8906L29.0234 52.5781L30.3125 51.2891V51.2109L30.4688 51.1328V51.0547H30.5469L30.8203 50.7422L32.1094 49.4531V49.375L32.2656 49.2969L32.5391 48.9844L33.9844 47.5391V47.4609H34.0625V47.3828H34.1406V47.3047H34.2188L34.4922 46.9922L36.1328 45.3516V45.2734L36.25 45.2344L36.5234 44.9219L37.5 43.9453V43.8672L37.6562 43.7891V43.7109H37.7344V43.6328H37.8125L38.0859 43.3203L39.4531 41.9531L39.7266 41.6406L41.4844 39.8828V39.8047H41.5625L41.8359 39.4922L43.4766 37.8516V37.7734L43.5938 37.7344L43.8672 37.4219L45 36.2891V36.2109H45.0781V36.1328H45.1562L45.4297 35.8203L46.7969 34.4531L47.0703 34.1406L48.8281 32.3828V32.3047H48.9062L49.1797 31.9922L50.8203 30.3516V30.2734L50.9375 30.2344L51.2109 29.9219L52.3438 28.7891V28.7109H52.4219V28.6328H52.5L52.7734 28.3203L54.1406 26.9531V26.875L54.2969 26.7969L54.5703 26.4844L56.1719 24.8828V24.8047L56.3281 24.7266V24.6484H56.4062L56.6797 24.3359L58.1641 22.8516V22.7734L58.2812 22.7344L58.5547 22.4219L59.6875 21.2891V21.2109H59.7656V21.1328H59.8438V21.0547H59.9219L60.1953 20.7422L61.4844 19.4531L61.7578 19.1406L63.5156 17.3828V17.3047H63.5938L63.8281 17.0312L65.3906 15.4688L65.8203 15.1172L66.3281 14.8047L66.9141 14.5312L67.5 14.375L68.2031 14.2969L68.7891 14.3359L69.4141 14.4531L70.2734 14.7266H70.5469L70.7812 14.6094L71.0156 14.3359L71.5234 13.3984L72.4609 11.7578L73.0078 10.7812L74.0234 8.98438L74.5703 8.00781L75.0781 7.10938L75.4297 6.52344L75.7422 6.09375L76.0938 5.78125L76.6406 5.46875L77.5781 5.15625L77.9688 4.96094L78.2031 4.76562L78.4375 4.41406L78.5547 4.14062L78.5938 3.90625V3.39844L78.4766 3.00781L78.2422 2.61719L77.8906 2.34375L77.5 2.1875L77.3047 2.14844H76.9141ZM29.6484 35.6641L29.0234 35.7812L28.2422 36.0547L27.1094 36.6016L26.25 37.1094L25.6641 37.5L25 37.9688L24.2969 38.4766L23.7891 38.8672L23.3594 39.2188L22.8516 39.6875L22.3438 40.2344L22.0312 40.625L21.4844 41.3672L20.8203 42.4609L20.3516 43.3594L19.6875 44.9609L19.1016 46.3672L18.7891 47.0703L18.2812 47.9688L17.9297 48.4766L17.4609 49.1016L17.0312 49.5703L16.7578 49.8828L16.4453 50.1953L16.0156 50.5469L15.7031 50.8203L15.0391 51.2891L14.3359 51.7188L13.5156 52.1484L12.4609 52.5781L10.625 53.2031L9.17969 53.7109L7.85156 54.1406L7.03125 54.375L6.25 54.6875L5.42969 55.1562L4.84375 55.5469L4.41406 55.8984L4.02344 56.25L3.71094 56.5234L3.32031 56.9531L2.8125 57.6562L2.42188 58.2812L1.99219 59.1797L1.64062 60.2344L1.48438 61.0156L1.40625 61.5625V63.2031L1.5625 64.1797L1.83594 65.1562L2.10938 65.8203L2.42188 66.4453L2.73438 66.9922L3.20312 67.6172L3.67188 68.1641L11.25 75.7422L11.6797 76.0938L12.3438 76.5625L13.2031 77.0312L13.9453 77.3438L14.6875 77.5781L15.6641 77.7734L16.5625 77.8516H17.2266L18.2422 77.7344L19.1406 77.5391L20.0781 77.2266L20.8984 76.8359L21.5234 76.4453L22.0703 76.0547L22.6172 75.5859L23.125 75.0781L23.4766 74.6484L23.75 74.2969L24.0625 73.8281L24.4141 73.3203L24.8047 72.7344L25.3125 71.7969L25.7812 70.7422L26.0938 69.9609L26.5625 68.5156L27.1094 66.4844L27.4219 65.6641L27.7344 65.0391L28.2031 64.2969L28.75 63.6328L29.2969 63.0859L29.7266 62.7344L30.1172 62.4609L30.625 62.1484L31.25 61.8359L32.1094 61.4453L33.2812 60.9375L34.6094 60.2734L35.7031 59.6094L36.1719 59.2969L36.7969 58.7891L37.1875 58.3984L37.4609 58.0078L37.6562 57.6172L37.7734 57.2266L37.8125 56.8359L37.7344 56.25L37.5781 55.8203L37.3828 55.5859L37.1484 55.4688H36.8359L36.1719 55.7422L35.4297 56.0547L34.4922 56.3672L33.5156 56.5625L33.1641 56.6016H32.6172L31.875 56.4844L31.1719 56.2109L30.625 55.8203L30.3125 55.5469L29.8438 54.8828L29.5703 54.0625L29.2969 54.2969L28.3594 55.2344L28.2422 55.3906L28.0859 55.3125L23.7109 50.9375H23.6328L23.5938 50.7422L23.75 50.5469L24.0625 50.2734L25 49.3359L25.3125 49.0625L26.6406 47.7344L26.7188 47.6953V47.6172L26.875 47.5391V47.4609L27.0312 47.3828L27.5781 46.8359L27.4609 46.7578L26.9141 46.4844L26.5234 46.1719L26.1328 45.7812L25.7812 45.2344L25.5859 44.7656L25.4297 44.1406V43.2031L25.5859 42.3438L25.8984 41.5625L26.2891 40.8594L26.6016 40.4688L26.875 40.1953V40.1172L27.0312 40.0391L27.5781 39.5703L28.125 39.1406L28.7891 38.5938L29.1797 38.2812L29.5703 37.9297L29.6875 37.8516V37.7734L29.8438 37.6953L30.625 36.9141L31.0938 36.25L31.0547 36.0156L30.7031 35.7812L30.2734 35.6641H29.6484Z"/>
</mask>
<path d="M76.8359 0.742188H77.2266L77.8516 0.820312L78.3984 1.01562L78.9062 1.32812L79.2969 1.67969L79.6484 2.1875L79.8438 2.57812L79.9609 2.96875L80 3.00781V4.375H79.9219L79.8438 4.76562L79.5312 5.35156L79.1016 5.85938L78.7109 6.17188L78.0859 6.48438L77.1484 6.79688L76.875 6.95312L76.8359 7.03125H76.7578L76.6797 7.1875L76.1719 8.04688L75.5859 9.10156L75.3516 9.49219L75.1172 9.92188L74.5312 10.9766L73.4375 12.8906L73.2031 13.3203L72.1875 15.1172L71.875 15.5078L71.5234 15.8203L71.1328 16.0156L70.625 16.1328H70.1172L69.5312 15.9766L68.9844 15.7812L68.3203 15.7031L67.8125 15.7422L67.1875 15.9375L66.7578 16.1719L66.25 16.6016L64.3359 18.5156L64.2969 18.5938H64.2188V18.6719H64.1406V18.75H64.0625L63.9844 18.9062L62.5 20.3906L62.4609 20.4688H62.3828L62.3047 20.625L60.8203 22.1094L60.625 22.3438L58.6719 24.2969L58.3984 24.6094L57.0703 25.9375L57.0312 26.0156H56.9531V26.0938H56.875L56.7969 26.25L55.1562 27.8906L55.1172 27.9688H55.0391L54.9609 28.125L53.4766 29.6094L53.2422 29.8828H53.1641L53.0859 30.0391L51.4844 31.6406L51.2891 31.875H51.2109L51.1328 32.0312L49.8047 33.3594L49.7656 33.4375H49.6875V33.5156H49.6094V33.5938H49.5312L49.4531 33.75L47.9688 35.2344L47.9297 35.3125H47.8516L47.7734 35.4688L46.2891 36.9531L46.0547 37.2266H45.9766L45.8984 37.3828L44.1406 39.1406L43.8672 39.4531L42.5391 40.7812L42.5 40.8594H42.4219V40.9375H42.3438L42.2656 41.0938L40.7812 42.5781L40.5859 42.8125H40.5078L40.4297 42.9688L38.9453 44.4531L38.7109 44.7266H38.6328L38.5547 44.8828L36.9531 46.4844L36.7578 46.7188H36.6797L36.6016 46.875L35.2734 48.2031L35.2344 48.2812H35.1562L35.0781 48.4375H35L34.9219 48.5938L33.5938 49.9219L33.3984 50.1562H33.3203L33.2422 50.3125L31.4062 52.1484L31.1719 52.4609L30.9766 53.125L30.9375 53.6328L31.0547 54.1406L31.3281 54.5703L31.6016 54.8438L32.0703 55.0781L32.4219 55.1562H33.2812L34.2578 54.9609L35.7031 54.4141L36.1328 54.2188L36.6797 54.0625H37.3047L37.8125 54.2188L38.2422 54.4922L38.5938 54.8438L38.8672 55.2734L39.0625 55.7031L39.1797 56.1719L39.2188 56.4844V56.9141L39.1406 57.5391L38.9453 58.1641L38.5938 58.8281L38.2422 59.2969L37.8125 59.7656L37.3047 60.1953L36.6797 60.6641L35.7031 61.25L35.1562 61.5625L34.5703 61.875L33.6719 62.3047L32.8906 62.6562L31.9922 63.0469L31.3281 63.3594L30.6641 63.7891L30.1172 64.2578L29.6094 64.7656L29.2188 65.3125L28.8672 65.8984L28.5547 66.6406L28.2031 67.8125L27.8125 69.2578L27.5 70.1953L27.0312 71.4453L26.4062 72.7344L26.1719 73.1641L25.5469 74.1406L24.7266 75.3516L24.2578 75.8984L23.7891 76.4062L23.4766 76.7188L23.1641 76.9922L22.3828 77.5781L21.5234 78.0859L20.625 78.5156L19.7656 78.8281L18.7891 79.0625L18.0469 79.1797L17.6172 79.2188H16.0547L15.0781 79.1016L14.1016 78.8672L13.2812 78.5938L12.5 78.2422L11.8359 77.8906L11.1328 77.4219L10.625 77.0312L10.1953 76.6406L9.88281 76.3672L2.65625 69.1406L2.30469 68.7109L1.99219 68.3594L1.48438 67.6172L1.05469 66.875L0.703125 66.1328L0.429688 65.3906L0.195312 64.4922L0 63.5547V61.1719L0.117188 60.6641L0.351562 59.6094L0.625 58.7891L0.9375 58.0859L1.32812 57.3438L1.79688 56.6406L2.1875 56.1328L2.61719 55.6641L2.89062 55.3516L3.35938 54.9219L3.78906 54.5703L4.49219 54.0625L5.03906 53.7109L5.85938 53.3203L6.67969 53.0078L8.125 52.5781L12.0703 51.2109L13.0078 50.8203L13.9062 50.3516L14.375 50.0391L15 49.5703L15.3906 49.2188L15.7031 48.9453L15.9766 48.6719L16.25 48.3594L16.6406 47.8906L17.1875 47.0703L17.6562 46.1719L18.0859 45.1562L18.6328 43.8281L19.1016 42.6953L19.6094 41.7188L20.1562 40.8203L20.5078 40.3125L20.9375 39.7266L21.4062 39.1797L21.7578 38.7891L22.1875 38.3594H22.2656V38.2812L23.3594 37.4219L24.0625 36.9141L24.7266 36.4453L25.3125 36.0547L25.8203 35.7422L26.6016 35.2734L27.6562 34.7656L28.8281 34.375L29.4922 34.2578H30.5469L31.0156 34.375L31.6406 34.6875L32.1875 35.1562L32.4609 35.625L32.5 35.7812V36.3672L32.3047 36.875L32.0312 37.3438L31.6016 37.8516L31.25 38.2812L30.625 38.9062L30.3125 39.1797L29.9219 39.5312L29.375 39.9609L28.9453 40.3125L28.3984 40.7422L27.7734 41.25L27.4609 41.6406L27.1484 42.1875L26.9141 42.8516L26.8359 43.2812V43.9844L26.9531 44.4141L27.1484 44.8047L27.5 45.1953L27.8125 45.3906L28.0078 45.4688L28.7891 45.5859L29.1016 45.3125L29.2969 45.1172H29.375L29.4531 44.9609L29.7656 44.6875L30.8984 43.5547L31.2109 43.2812L32.2656 42.2266H32.3438V42.1484L32.6562 41.875L33.5156 41.0156L33.8281 40.7422L35.0781 39.4922L35.3906 39.2188L36.5234 38.0859L36.8359 37.8125L37.9688 36.6797H38.0469V36.6016H38.125V36.5234L38.4375 36.25L39.1016 35.5859L39.4141 35.3125L40.5469 34.1797H40.625L40.7031 34.0234L41.0156 33.75L42.1875 32.5781H42.2656V32.5L42.5781 32.2266L43.5938 31.2109H43.6719V31.1328H43.75V31.0547L44.0625 30.7812L44.7656 30.0781L45.0781 29.8047L46.3281 28.5547L46.6406 28.2812L47.8125 27.1094H47.8906L47.9297 26.9922L48.2422 26.7188L49.2969 25.6641H49.375V25.5859L49.6875 25.3125L50.3906 24.6094L50.7031 24.3359L51.9531 23.0859L52.2656 22.8125L53.4375 21.6406H53.5156L53.5547 21.5234L53.8672 21.25L54.9219 20.1953H55V20.1172L55.3125 19.8438L56.1328 19.0234L56.4453 18.75L57.5781 17.6172H57.6562L57.7344 17.4609L58.0469 17.1875L59.1797 16.0547L59.4922 15.7812L60.5469 14.7266H60.625V14.6484L60.9375 14.375L61.3672 13.9453L61.7188 13.4375L61.9922 12.7734L62.2266 12.1094L62.4609 11.6406L62.8125 11.1719L63.0859 10.8984L63.5547 10.5469L64.0625 10.1562L63.9062 9.88281L63.5547 9.375L63.4375 9.10156V8.78906L63.5547 8.55469L63.8281 8.32031L63.9453 8.28125H64.3359L64.6094 8.4375L64.8828 8.75L65.1953 9.21875L65.3516 9.14062L65.8984 8.71094L66.5234 8.20312L67.0312 7.8125L67.1875 7.65625L66.9141 7.22656L66.6406 6.83594L66.5625 6.64062V6.36719L66.7188 6.05469L66.9531 5.85938L67.0312 5.82031H67.5L67.7344 5.97656L68.0078 6.28906L68.2812 6.67969V6.75781L68.4766 6.67969L69.0625 6.21094L69.6094 5.78125L70.3125 5.23438L70.2344 5.03906L69.8047 4.45312L69.6484 4.0625L69.7266 3.67188L69.9609 3.39844L70.2734 3.28125L70.5859 3.32031L70.8203 3.47656L71.1328 3.82812L71.4453 4.29688L71.7188 4.14062L72.1875 3.75L73.2812 2.89062L73.4375 2.77344L73.3594 2.57812L72.8906 1.91406L72.7734 1.64062L72.8125 1.28906L73.0078 0.976562L73.3203 0.820312H73.6328L73.9453 0.976562L74.2969 1.40625L74.5703 1.79688L74.7266 1.75781L75.2344 1.36719L75.7422 1.05469L76.3281 0.820312L76.8359 0.742188ZM76.9141 2.14844L76.5625 2.22656L76.0547 2.5L75.4297 3.00781L74.8047 3.47656L74.3359 3.86719L73.7891 4.29688L73.2812 4.6875L72.5781 5.23438L71.9531 5.74219L71.2891 6.25L70.3125 7.03125L69.8047 7.42188L69.2188 7.89062L68.125 8.75L67.4219 9.29688L66.7969 9.80469L66.1328 10.3125L65.5469 10.7812L65.1953 11.0547L64.6484 11.4844L64.0234 11.9922L63.75 12.2266L63.4375 12.8906L63.1641 13.6328L62.8516 14.2578L62.4609 14.8047L61.9922 15.3125L61.5234 15.7812L61.4062 15.8594V15.9375L61.25 16.0156L60.1172 17.1484L59.9609 17.2656V17.3438L59.8047 17.4219L58.8281 18.3984L58.75 18.4375V18.5156L58.5938 18.5938L57.5391 19.6484L57.4609 19.6875V19.7656H57.3828V19.8438L57.2266 19.9219L56.0547 21.0938L55.7812 21.3281V21.4062L55.625 21.4844L54.4141 22.6953L54.3359 22.7344V22.8125L54.1797 22.8906L53.2031 23.8672L53.125 23.9062V23.9844H53.0469V24.0625L52.8906 24.1406L51.8359 25.1953L51.7578 25.2344V25.3125L51.6016 25.3906L50.2734 26.7188L50.1562 26.7969V26.875L50 26.9531L48.7891 28.1641L48.7109 28.2031V28.2812L48.5547 28.3594L47.5781 29.3359L47.5 29.375V29.4531H47.4219V29.5312L47.2656 29.6094L46.1328 30.7422L45.8203 31.0156L44.6484 32.1875L44.5312 32.2656V32.3438L44.375 32.4219V32.5L44.2188 32.5781L43.0859 33.7109L42.7734 33.9844L41.7969 34.9609L41.7188 35V35.0781L41.5625 35.1562L40.5078 36.2109L40.3516 36.3281V36.4062L40.1953 36.4844L39.0234 37.6562L38.75 37.8906V37.9688L38.5938 38.0469L37.4609 39.1797L37.3047 39.2969V39.375L37.1484 39.4531L36.1719 40.4297L36.0938 40.4688V40.5469L35.9375 40.625L34.8047 41.7578L34.7266 41.7969V41.875L34.5703 41.9531L33.2422 43.2812L33.125 43.3594V43.4375L32.9688 43.5156L31.7578 44.7266L31.6797 44.7656V44.8438L31.5234 44.9219L30.5469 45.8984L30.4688 45.9375V46.0156H30.3906V46.0938L30.2344 46.1719L29.1016 47.3047L28.7891 47.5781L27.6172 48.75L27.5 48.8281V48.9062L27.3438 48.9844L26.1328 50.1953L26.0547 50.2344V50.3125L25.8984 50.3906L25.5078 50.7812L25.7422 51.0547L28.0859 53.3984L28.2031 53.4375L28.6328 53.0078V52.9297L28.75 52.8906L29.0234 52.5781L30.3125 51.2891V51.2109L30.4688 51.1328V51.0547H30.5469L30.8203 50.7422L32.1094 49.4531V49.375L32.2656 49.2969L32.5391 48.9844L33.9844 47.5391V47.4609H34.0625V47.3828H34.1406V47.3047H34.2188L34.4922 46.9922L36.1328 45.3516V45.2734L36.25 45.2344L36.5234 44.9219L37.5 43.9453V43.8672L37.6562 43.7891V43.7109H37.7344V43.6328H37.8125L38.0859 43.3203L39.4531 41.9531L39.7266 41.6406L41.4844 39.8828V39.8047H41.5625L41.8359 39.4922L43.4766 37.8516V37.7734L43.5938 37.7344L43.8672 37.4219L45 36.2891V36.2109H45.0781V36.1328H45.1562L45.4297 35.8203L46.7969 34.4531L47.0703 34.1406L48.8281 32.3828V32.3047H48.9062L49.1797 31.9922L50.8203 30.3516V30.2734L50.9375 30.2344L51.2109 29.9219L52.3438 28.7891V28.7109H52.4219V28.6328H52.5L52.7734 28.3203L54.1406 26.9531V26.875L54.2969 26.7969L54.5703 26.4844L56.1719 24.8828V24.8047L56.3281 24.7266V24.6484H56.4062L56.6797 24.3359L58.1641 22.8516V22.7734L58.2812 22.7344L58.5547 22.4219L59.6875 21.2891V21.2109H59.7656V21.1328H59.8438V21.0547H59.9219L60.1953 20.7422L61.4844 19.4531L61.7578 19.1406L63.5156 17.3828V17.3047H63.5938L63.8281 17.0312L65.3906 15.4688L65.8203 15.1172L66.3281 14.8047L66.9141 14.5312L67.5 14.375L68.2031 14.2969L68.7891 14.3359L69.4141 14.4531L70.2734 14.7266H70.5469L70.7812 14.6094L71.0156 14.3359L71.5234 13.3984L72.4609 11.7578L73.0078 10.7812L74.0234 8.98438L74.5703 8.00781L75.0781 7.10938L75.4297 6.52344L75.7422 6.09375L76.0938 5.78125L76.6406 5.46875L77.5781 5.15625L77.9688 4.96094L78.2031 4.76562L78.4375 4.41406L78.5547 4.14062L78.5938 3.90625V3.39844L78.4766 3.00781L78.2422 2.61719L77.8906 2.34375L77.5 2.1875L77.3047 2.14844H76.9141ZM29.6484 35.6641L29.0234 35.7812L28.2422 36.0547L27.1094 36.6016L26.25 37.1094L25.6641 37.5L25 37.9688L24.2969 38.4766L23.7891 38.8672L23.3594 39.2188L22.8516 39.6875L22.3438 40.2344L22.0312 40.625L21.4844 41.3672L20.8203 42.4609L20.3516 43.3594L19.6875 44.9609L19.1016 46.3672L18.7891 47.0703L18.2812 47.9688L17.9297 48.4766L17.4609 49.1016L17.0312 49.5703L16.7578 49.8828L16.4453 50.1953L16.0156 50.5469L15.7031 50.8203L15.0391 51.2891L14.3359 51.7188L13.5156 52.1484L12.4609 52.5781L10.625 53.2031L9.17969 53.7109L7.85156 54.1406L7.03125 54.375L6.25 54.6875L5.42969 55.1562L4.84375 55.5469L4.41406 55.8984L4.02344 56.25L3.71094 56.5234L3.32031 56.9531L2.8125 57.6562L2.42188 58.2812L1.99219 59.1797L1.64062 60.2344L1.48438 61.0156L1.40625 61.5625V63.2031L1.5625 64.1797L1.83594 65.1562L2.10938 65.8203L2.42188 66.4453L2.73438 66.9922L3.20312 67.6172L3.67188 68.1641L11.25 75.7422L11.6797 76.0938L12.3438 76.5625L13.2031 77.0312L13.9453 77.3438L14.6875 77.5781L15.6641 77.7734L16.5625 77.8516H17.2266L18.2422 77.7344L19.1406 77.5391L20.0781 77.2266L20.8984 76.8359L21.5234 76.4453L22.0703 76.0547L22.6172 75.5859L23.125 75.0781L23.4766 74.6484L23.75 74.2969L24.0625 73.8281L24.4141 73.3203L24.8047 72.7344L25.3125 71.7969L25.7812 70.7422L26.0938 69.9609L26.5625 68.5156L27.1094 66.4844L27.4219 65.6641L27.7344 65.0391L28.2031 64.2969L28.75 63.6328L29.2969 63.0859L29.7266 62.7344L30.1172 62.4609L30.625 62.1484L31.25 61.8359L32.1094 61.4453L33.2812 60.9375L34.6094 60.2734L35.7031 59.6094L36.1719 59.2969L36.7969 58.7891L37.1875 58.3984L37.4609 58.0078L37.6562 57.6172L37.7734 57.2266L37.8125 56.8359L37.7344 56.25L37.5781 55.8203L37.3828 55.5859L37.1484 55.4688H36.8359L36.1719 55.7422L35.4297 56.0547L34.4922 56.3672L33.5156 56.5625L33.1641 56.6016H32.6172L31.875 56.4844L31.1719 56.2109L30.625 55.8203L30.3125 55.5469L29.8438 54.8828L29.5703 54.0625L29.2969 54.2969L28.3594 55.2344L28.2422 55.3906L28.0859 55.3125L23.7109 50.9375H23.6328L23.5938 50.7422L23.75 50.5469L24.0625 50.2734L25 49.3359L25.3125 49.0625L26.6406 47.7344L26.7188 47.6953V47.6172L26.875 47.5391V47.4609L27.0312 47.3828L27.5781 46.8359L27.4609 46.7578L26.9141 46.4844L26.5234 46.1719L26.1328 45.7812L25.7812 45.2344L25.5859 44.7656L25.4297 44.1406V43.2031L25.5859 42.3438L25.8984 41.5625L26.2891 40.8594L26.6016 40.4688L26.875 40.1953V40.1172L27.0312 40.0391L27.5781 39.5703L28.125 39.1406L28.7891 38.5938L29.1797 38.2812L29.5703 37.9297L29.6875 37.8516V37.7734L29.8438 37.6953L30.625 36.9141L31.0938 36.25L31.0547 36.0156L30.7031 35.7812L30.2734 35.6641H29.6484Z" fill="black" stroke="black" stroke-width="2" mask="url(#path-1-inside-1_221_2)"/>
<path d="M20.625 60.1523L16.8281 56.3554V56.2034L16.9624 56.0859H17.2969V56.0078H17.375V55.9297H17.4531V55.8516H17.5312V55.7734H17.6094V55.6953H17.6875V55.6172H17.7656V55.5391H17.8438V55.4609H17.9219V55.3828H18V55.3047H18.0781V55.2266H18.1562V55.1484H18.2344V54.8446L18.2597 54.7939L18.3016 54.7102L18.4102 54.6016H18.7812V54.4102L22.5741 58.2031L20.625 60.1523ZM18.7541 55.179L18.4794 55.1103L18.2793 55.3105L18.0839 55.5058L18.0502 55.5395L18.0308 55.546L17.9532 55.6366L17.9375 55.6523V55.6549L17.7063 55.9246L17.4903 56.1767L17.6387 56.4736L17.7168 56.6299L17.7531 56.7024L17.8105 56.7598L20.1933 59.1426L20.2768 59.2261L20.3888 59.2634L20.5059 59.3025L20.7991 59.4002L21.0176 59.1817L21.6036 58.5957L21.8584 58.3409L21.6972 58.0186L21.6191 57.8623L21.5828 57.7898L21.5254 57.7324L19.1426 55.3496L19.0447 55.2516L18.9103 55.2181L18.7541 55.179Z" fill="black" stroke="black"/>
<path d="M15.8829 61.2695L17.8125 59.3399L21.6757 63.2031L20.9355 63.9433L20.9195 63.9594L20.905 63.9768L20.7365 64.1789L20.4949 64.386L20.4631 64.4133L20.4362 64.4455L20.2661 64.6496L19.9832 64.8971L19.9707 64.9081L19.9589 64.9199L19.7461 65.1327L15.8829 61.2695ZM17.7734 60.1641H17.5856L17.4442 60.2878L17.1317 60.5612L17.1066 60.5832L17.0846 60.6082L16.8112 60.9207L16.5902 61.1734L16.7403 61.4736L16.8184 61.6299L16.9566 61.9062H17.0585L17.0683 61.9161L17.2246 62.0723L17.2583 62.106L17.2639 62.1228L17.3535 62.2013L17.371 62.2188H17.3735L17.666 62.4747L18.0288 62.8375L18.2096 63.0545L18.2365 63.0867L18.2684 63.114L18.5145 63.325L18.7188 63.5584V63.5863L18.8227 63.6773L18.9137 63.7812H18.9416L19.202 64.0091L19.2019 64.0092L19.2112 64.0169L19.4455 64.2122L19.7963 64.5045L20.1192 64.1817L20.3009 63.9999L20.5598 63.7781L20.6014 63.7423L20.6344 63.6984L20.7516 63.5422L20.8944 63.3518L20.8366 63.1209L20.7976 62.9647L20.7029 62.5859H20.5196L20.5098 62.5761L18.2442 60.3105L18.0977 60.1641H17.8906H17.7734Z" fill="black" stroke="black"/>
<path d="M18.8281 73.875H18.6767L18.5508 73.959L18.3164 74.1152L18.2228 74.1776L18.165 74.274L18.0478 74.4693L17.9766 74.5881V74.7266V75V75.1328L18.0424 75.2481L18.1987 75.5215L18.25 75.6114L18.3328 75.6734L18.4891 75.7906L18.554 75.8393L18.6309 75.865L18.7481 75.904L18.8251 75.9297H18.9062H19.1797H19.3676L19.5089 75.806L19.8214 75.5325L19.9647 75.4072L19.9883 75.2183L20.0274 74.9058L20.0442 74.7713L19.9908 74.6468L19.8736 74.3734L19.8357 74.2848L19.7676 74.2168L19.6504 74.0996L19.5588 74.008L19.4342 73.9724L19.1608 73.8942L19.0935 73.875H19.0234H18.8281ZM18.4083 73.585L18.7861 73.4688H19.1618L19.5343 73.5547L19.912 73.7872L20.2086 74.1134L20.3538 74.4038L20.4375 74.6828V75.1532L20.3243 75.4929L20.1498 75.7837L19.9158 76.0177L19.6488 76.1957L19.338 76.32L19.2744 76.3359H18.7861L18.4083 76.2197L18.1225 76.0482L17.8602 75.7859L17.6493 75.4244L17.5703 75.161V74.71L17.6553 74.3701L17.8602 74.0187L18.1225 73.7565L18.4083 73.585Z" fill="black" stroke="black"/>
<path d="M21.9922 70.4375H21.8072L21.6668 70.5579L21.3934 70.7922L21.3001 70.8722L21.2545 70.9862L21.1764 71.1815L21.1267 71.3056L21.1457 71.4379L21.1847 71.7113L21.199 71.8113L21.2509 71.8979L21.3681 72.0932L21.443 72.218L21.5733 72.2832L21.8858 72.4394L21.9913 72.4922H22.1094H22.3438H22.4951L22.6211 72.4082L22.8555 72.252L22.9267 72.2045L22.9781 72.1359L23.0953 71.9797L23.1634 71.889L23.1856 71.7777L23.2247 71.5824L23.2527 71.4425L23.2025 71.3088L23.0854 70.9963L23.0473 70.8949L22.9707 70.8183L22.7754 70.623L22.692 70.5395L22.58 70.5022L22.4628 70.4632L22.3858 70.4375H22.3047H21.9922ZM21.5206 70.1764L21.9561 70.0312H22.3298L22.7359 70.1183L23.1468 70.3824L23.3443 70.6081L23.5217 70.9039L23.6406 71.32V71.6127L23.5561 71.9227L23.3313 72.3402L23.241 72.453L22.836 72.7646L22.5411 72.8825L22.4775 72.8984H22.0101L21.6425 72.8136L21.2282 72.5473L21.0277 72.3181L20.8878 72.0942L20.7398 71.6209L20.7682 71.2236L20.8545 70.9358L21.0388 70.598L21.2009 70.409L21.5206 70.1764Z" fill="black" stroke="black"/>
<path d="M9.41406 71.1288L9.10554 70.8203L10.5469 69.379L10.8554 69.6875L9.41406 71.1288Z" fill="black" stroke="black"/>
<path d="M10.3751 72.0898L11.8087 70.6562H11.8241L12.1249 70.957L10.6836 72.3984L10.3751 72.0898Z" fill="black" stroke="black"/>
<path d="M7.83601 69.5508L9.27734 68.1095L9.58586 68.418L8.14453 69.8593L7.83601 69.5508Z" fill="black" stroke="black"/>
<path d="M8.10492 66.9751L8.12252 66.9947L8.14208 67.0123L8.30546 67.1593L6.875 68.5898L6.56648 68.2812L7.99488 66.8528L8.10492 66.9751Z" fill="black" stroke="black"/>
</g>
<defs>
<clipPath id="clip0_221_2">
<rect width="80" height="80" fill="white"/>
</clipPath>
</defs>
</svg>
