<svg width="80" height="80" viewBox="0 0 80 80" fill="none" xmlns="http://www.w3.org/2000/svg">
<g clip-path="url(#clip0_221_55)">
<path d="M10.4297 0H11.5234L11.4844 0.078125L11.7188 0.195312L12.0312 0.429688L12.2656 0.703125L12.4219 1.01562L12.5 1.36719L12.5391 3.35938L14.8047 4.17969L18.3203 5.46875L19.0234 5.78125L19.5703 6.13281L19.9609 6.44531L20.3906 6.875L20.7422 7.34375L21.0938 7.96875L21.3281 8.59375L21.4453 9.10156L21.5234 9.60938V10.1562L21.4453 10.7812L21.25 11.5234L20.9375 12.2266L20.625 12.6953L20.1562 13.2812L19.8828 13.5156H19.8047V13.5938L19.4141 13.8672L18.7891 14.2188L18.125 14.4531L17.4219 14.6094L17.1875 14.6484H16.5234L15.9375 14.5703L15.0781 14.3359L13.5547 13.7891L12.5781 13.4375L12.5391 13.5547V25.7812L12.5 35.2734H24.3359L25.2344 35.3516L25.8594 35.5078L26.5625 35.8203L27.1875 36.2109L27.5781 36.5625L27.8125 36.7578L28.2422 37.3047L28.5938 37.8906L28.8281 38.4375V38.5547L29.1016 38.4375L30.3516 37.6953L31.5234 37.1094L32.5391 36.6797L33.5938 36.2891L34.6875 35.9766L35.1562 35.8594H35.2734V29.0625L35.1562 29.1016H33.9453L33.5938 29.8828L32.9297 31.2891L32.5781 32.0312L32.1484 32.7344L31.8359 33.125H31.7578L31.6797 33.2812L31.3281 33.5938L30.7812 33.9844L30.0391 34.3359L29.375 34.5312L29.0234 34.6094L28.6328 34.6484H27.9688L27.1094 34.4922L26.0938 34.1016L24.6875 33.4375L23.1641 32.7344L21.7578 32.0703L20.6641 31.5625L19.9609 31.1328L19.4531 30.7031L19.0625 30.3125L18.6328 29.6875L18.3203 29.0625L18.125 28.4375L18.0078 27.9297L17.9688 27.4609V26.9922L18.0859 26.25L18.3984 25.3125L19.0234 23.9844L19.5312 22.8906L22.2656 17.0312L22.5781 16.4453L22.9297 15.8984L23.0469 15.7422H23.125L23.2031 15.5859L23.5938 15.1953L24.2578 14.7266L25.0781 14.3359L25.9375 14.1406L26.2891 14.1016H27.0703L27.7734 14.2188L28.4766 14.4531L29.2578 14.8047L30.5078 15.3906L31.5234 15.8594L32.8516 16.4844L33.8672 16.9531L34.4922 17.2656L35.1562 17.6953L35.5469 18.0469L35.625 18.0859V18.1641H35.7031V18.2422H35.7812L36.1719 18.75L36.5234 19.3359L36.7969 20L36.9531 20.625L36.9922 20.8594V21.9922L36.875 22.6172L36.6016 23.3984L36.25 24.1797L35.6641 25.4297L35.4688 25.8594L44.5312 25.8984L43.9453 24.6094L43.3984 23.4375L43.0859 22.5L42.9688 21.7578V21.25L43.0469 20.5859L43.2812 19.7656L43.6328 19.0234L44.1797 18.2812L44.4922 17.9688L44.9219 17.6172L45.7031 17.1484L46.6797 16.6797L47.7734 16.1719L48.6328 15.7812L49.2188 15.5078L50.3125 15L50.8594 14.7266L51.6016 14.4141L52.3828 14.1797L52.9297 14.1016H53.7109L54.2969 14.1797L55 14.375L55.6641 14.6875L56.1719 15.0391L56.6016 15.3906L57.0312 15.8594L57.3047 16.25L57.6562 16.875L58.3984 18.4375L58.8281 19.375L59.4922 20.7812L59.9219 21.7188L60.5859 23.125L61.0547 24.1406L61.5625 25.2344L61.8359 25.9766L61.9922 26.7188V27.9297L61.7969 28.75L61.6016 29.2188L61.25 29.8828L60.8594 30.3906L60.6641 30.625L60.3516 30.8984L59.9219 31.2109L59.1016 31.6797L57.5 32.4219L56.0938 33.0859L55.0781 33.5547L53.8281 34.1406L52.9688 34.4531L52.0312 34.6484H51.25L50.7031 34.5703L49.9219 34.3359L49.1016 33.9062L48.5938 33.5156L48.2812 33.2422L48.0078 32.9297L47.6172 32.3828L47.0703 31.3281L46.5234 30.1562L46.0938 29.2188L46.0547 29.0625H44.7266V35.8203L46.3672 36.2891L47.3047 36.6406L47.8125 36.8359L48.9453 37.3438L49.8438 37.8125L50.5078 38.2031L51.25 38.6719L51.9141 39.1406L52.7344 39.7656L53.8281 40.7031L54.6094 41.4844L54.7266 41.5625L55.8594 41.5234H67.4609L67.4219 13.4375L65.3516 14.1797L64.6484 14.4141L63.8281 14.6094L63.4375 14.6484H62.8125L61.9531 14.4922L61.2109 14.2188L60.5859 13.8672L60.2344 13.5938L59.8438 13.2422L59.5703 12.9688L59.1406 12.3438L58.8281 11.7188L58.6719 11.2891L58.5156 10.625L58.4766 10.2734V9.57031L58.6328 8.71094L58.9453 7.89062L59.4141 7.10938L59.8047 6.67969L59.8438 6.60156H59.9219V6.52344L60.5859 6.01562L60.9766 5.78125L61.6406 5.46875L62.5781 5.11719L63.4766 4.80469L64.9609 4.25781L66.7969 3.59375L67.3438 3.39844H67.4609V1.5625L67.5781 0.976562L67.8906 0.46875L68.2031 0.234375L68.5547 0H69.6484V0.078125L70.0781 0.351562L70.3906 0.703125L70.5859 1.13281L70.6641 1.67969V2.07031L70.625 2.1875L71.4062 1.91406L73.2422 1.25L74.1406 1.01562L74.3359 0.976562H75.4297L76.0938 1.09375L76.875 1.36719L77.6172 1.79688L78.0469 2.14844L78.2812 2.34375L78.6328 2.77344L78.9453 3.20312L79.2578 3.82812L79.4141 4.21875L79.6094 5.03906L79.6484 5.58594V5.97656L79.5312 6.71875L79.2578 7.53906L78.9062 8.20312L78.5938 8.63281L78.125 9.14062L77.7344 9.45312L77.1875 9.80469L76.4062 10.1562L74.1406 10.9766L71.9141 11.7969L70.7031 12.2266L70.6641 18.8281L70.625 41.5234H75.0781L76.0938 41.6016L76.7578 41.7578L77.3438 41.9922L77.8906 42.3047L78.3984 42.6953L78.6719 42.9297L79.0234 43.3594L79.2969 43.75L79.6484 44.4141L79.9609 45.3125H80V56.5625H79.8828L79.8438 56.875L79.5703 57.6172L79.2578 58.2031L78.8281 58.75L78.3594 59.2188L77.8125 59.6094L77.1875 59.9219L76.6797 60.1172L75.9375 60.2734L75.4688 60.3125H66.6016V74.2969L67.3438 74.6875L71.6406 76.8359L72.0312 77.0703L72.4219 77.3828L72.6562 77.7344L72.7734 78.0078L72.8125 78.2031V78.7109L72.6172 79.2188L72.3438 79.5703L71.9922 79.8438L71.6406 80H70.8594L69.6094 79.4141L68.9453 79.0625L68.0469 78.6328L67.3828 78.2812L66.5625 77.8906L65.8203 77.5L65.1953 77.1875L65 77.1094L64.0234 77.5781L59.4922 79.8438L59.0625 80H58.2031V79.9219L57.7344 79.6484L57.3828 79.2188L57.0703 78.6328L56.4453 77.2266L55.7031 75.625L55.0781 74.2188L54.4922 72.9688L53.9844 71.8359L53.5547 70.8984L53.5156 70.8203L53.0078 71.25L52.4609 71.6797L51.9531 72.0703L50.5469 73.0078L49.4141 73.6328L48.7891 73.9453L47.5781 74.4922L46.6016 74.8438L45.3516 75.2344L43.8281 75.5859L42.5391 75.7812L41.4062 75.8984L40.6641 75.9375H39.3359L37.9688 75.8594L36.3281 75.625L35.1172 75.3516L34.375 75.1562L32.6953 74.6094L31.3672 74.0234L30.7031 73.7109L29.8047 73.2031L29.2578 72.8906L28.7891 72.5781L27.9297 71.9922L27.2656 71.4453L26.7188 71.0156L26.4844 70.8203L26.2109 71.4062L25.5078 72.9297L25.1562 73.7109L24.5312 75.0781L23.7891 76.7188L23.1641 78.0859L22.6953 79.1016L22.3047 79.6094L21.875 79.8828L21.6797 79.9219V80H20.9375L20.1953 79.6875L15.0391 77.1094L14.5703 77.3047L9.49219 79.8438L9.0625 80H8.20312V79.9219L7.73438 79.6484L7.38281 79.2188L7.22656 78.8672L7.1875 78.7109V78.2031L7.30469 77.8125L7.57812 77.3438L8.125 76.9531L13.3594 74.3359L13.3984 63.4375H4.49219L3.75 63.3594L3.04688 63.1641L2.30469 62.8125L1.91406 62.5391L1.48438 62.1875L1.13281 61.8359L0.703125 61.25L0.3125 60.5078L0.078125 59.7266V59.6094L0 59.5703V39.1797H0.078125L0.117188 38.8672L0.3125 38.2422L0.625 37.6172L0.898438 37.1875L1.40625 36.6016L1.875 36.2109L2.42188 35.8594L3.00781 35.5859L3.67188 35.3906L4.21875 35.3125L4.76562 35.2734H9.33594V12.2266L8.94531 12.1094L6.67969 11.2891L3.59375 10.1562L2.73438 9.76562L2.26562 9.45312L1.83594 9.10156L1.5625 8.82812L1.25 8.4375L0.9375 7.92969L0.703125 7.46094L0.46875 6.75781L0.351562 6.01562V5.58594L0.390625 5L0.625 4.0625L1.01562 3.24219L1.48438 2.61719L1.75781 2.30469L2.07031 2.03125L2.5 1.71875L3.125 1.36719L3.75 1.13281L4.33594 1.01562L4.57031 0.976562H5.54688L6.32812 1.13281L7.61719 1.5625L8.78906 1.99219L9.29688 2.1875L9.375 1.32812L9.49219 0.898438L9.76562 0.507812L10.0781 0.234375L10.4297 0ZM4.84375 4.14062L4.33594 4.29688L3.94531 4.60938L3.63281 5.07812L3.55469 5.39062V5.97656L3.71094 6.40625L3.98438 6.75781L4.29688 6.99219L4.76562 7.22656L7.26562 8.125L9.49219 8.94531L11.9922 9.84375L14.2188 10.6641L15.4297 11.0938L16.1719 11.3672L16.8359 11.4844L17.2656 11.4062L17.5391 11.2891L17.8516 11.0547L18.125 10.7422L18.2812 10.4297L18.3203 10.1562V9.64844L18.1641 9.21875L17.8516 8.78906L17.4219 8.51562L16.4844 8.16406L14.2188 7.34375L11.9922 6.52344L9.60938 5.66406L5.74219 4.25781L5.19531 4.14062H4.84375ZM74.8828 4.14062L74.375 4.21875L73.1641 4.64844L72.3438 4.96094L71.5625 5.23438L69.3359 6.05469L67.6172 6.67969L66.8359 6.95312L62.6562 8.47656L62.2266 8.75L61.9531 9.02344L61.7188 9.49219L61.6797 9.64844V10.2344L61.8359 10.6641L62.1094 11.0547L62.5 11.3281L62.8906 11.4453H63.4766L63.9062 11.3281L65.3125 10.8203L67.5391 10L68.75 9.57031L70.9766 8.75L73.4766 7.85156L75.3906 7.14844L75.8203 6.91406L76.1328 6.64062L76.3672 6.25L76.4453 5.9375V5.42969L76.3281 5.03906L76.0938 4.64844L75.7812 4.375L75.4688 4.21875L75.1172 4.14062H74.8828ZM26.5625 17.2656L26.1328 17.3438L25.7031 17.5781L25.3516 17.9688L25 18.6328L24.6484 19.4141V19.5703L25.2734 19.8828L26.5625 20.4688L27.1094 20.7422L28.2031 21.25L31.6406 22.8516L32.9688 23.4766H33.0859L33.7109 22.1484L33.8281 21.6797V21.2109L33.7109 20.7812L33.4375 20.3906L33.0469 20.0781L32.1875 19.6484L30.8984 19.0625L29.8438 18.5547L28.9062 18.125L27.5781 17.5L27.0312 17.3047L26.8359 17.2656H26.5625ZM53.2422 17.2656L52.6172 17.4219L51.3672 18.0078L50.3516 18.4766L49.0234 19.1016L47.9688 19.5703L46.9531 20.0781L46.5625 20.3906L46.2891 20.7812L46.1719 21.2109V21.6797L46.3281 22.1875L46.6406 22.8906L46.9141 23.4766L47.1484 23.3984L48.0078 23.0078L48.5938 22.7344L49.7266 22.1875L51.0156 21.6016L52.5781 20.8594L53.5938 20.3906L55.3516 19.5703L55.3125 19.3359L54.7656 18.1641L54.4922 17.7734L54.1797 17.5L53.8672 17.3438L53.2422 17.2656ZM23.2422 22.4219L22.8516 23.2812L22.5391 23.9062L22.1094 24.8438L21.4453 26.25L21.2109 26.875L21.1719 27.0703V27.5391L21.25 27.8906L21.5234 28.3203L21.9141 28.6328L22.5 28.9453L23.7891 29.5312L25.2734 30.2344L26.2891 30.7031L27.5391 31.2891L27.9297 31.4062L28.0859 31.4453H28.6328L29.0625 31.2891L29.2969 31.1328L29.4922 30.9766L29.8438 30.4297L30.3906 29.2578L30.9766 28.0078L31.4844 26.9141L31.6797 26.4844L31.6406 26.2891L31.0156 26.0156L29.5312 25.3125L28.4375 24.8047L26.0938 23.7109L24.7656 23.0859L23.4766 22.5L23.2422 22.4219ZM56.7188 22.4219L55.5859 22.9297L54.2578 23.5547L51.9141 24.6484L49.5703 25.7422L48.7891 26.0938L48.3203 26.3281L48.3594 26.5625L49.1016 28.1641L49.6484 29.3359L50.1562 30.4297L50.5078 30.9766L50.7812 31.2109L51.1719 31.4062L51.4062 31.4453H51.9141L52.4219 31.2891L53.75 30.6641L56.0938 29.5703L57.6172 28.8672L58.125 28.5938L58.4766 28.3203L58.75 27.8906L58.8281 27.5V27.0703L58.6719 26.5234L58.0078 25.1172L57.2656 23.5156L56.7969 22.5L56.7188 22.4219ZM38.4766 29.0625L38.4375 30.0391V35.3125L38.4766 35.3516H41.5234V29.0625H38.4766ZM4.76562 38.4375L4.21875 38.5156L3.82812 38.7109L3.51562 38.9844L3.28125 39.375L3.16406 39.8047L3.125 40.5859V41.5234H25.3516L25.8203 41.0938L25.8984 40.9766V39.8438L25.7812 39.375L25.5078 38.9453L25.2344 38.7109L24.8047 38.5156L24.3359 38.4375H4.76562ZM38.8281 38.4766L37.6562 38.5938L36.5234 38.7891L35.3906 39.0625L34.2969 39.4141L33.4766 39.7266L32.5781 40.1172L31.5234 40.6641L30.7031 41.1719L30.2344 41.4844L29.6094 41.9531L29.0625 42.3828L28.2812 43.0859L28.125 43.2031V43.2812L27.9688 43.3594L27.6562 43.6719L27.3828 43.9844L26.875 44.5312L25.8594 45.8594L25.5469 46.3672L25.0391 47.1875L24.375 48.4766L23.9062 49.6094L23.4375 51.0547L23.125 52.3828L22.9297 53.7109L22.8516 54.7656L22.8125 55.625L22.8906 57.1094L23.0078 58.125L23.2031 59.2188L23.5156 60.4688L23.8281 61.4062L24.2578 62.5L24.9219 63.8672L25.2734 64.4531L25.7812 65.2734L26.4062 66.0938L26.7969 66.6016L27.2266 67.0703L27.2656 67.1484H27.3438L27.4219 67.3047L28.0078 67.9297L28.3203 68.2031L28.8281 68.6719L29.2578 69.0234L30.0781 69.6484L30.6641 70.0391L31.7188 70.6641L32.3438 70.9766L33.3203 71.4453L34.3359 71.8359L35.1953 72.1094L36.6016 72.4609L38.2031 72.6953L39.4141 72.7734H40.5469L41.8359 72.6953L43.5547 72.4219L45.0391 72.0312L46.25 71.6016L46.8359 71.3672L48.2812 70.6641L49.375 70L49.8828 69.6484L50.7031 69.0234L51.0938 68.7109L51.6016 68.2422L51.9922 67.8906L52.1875 67.7344L52.4609 67.4219L52.5 67.3047H52.5781L52.8516 66.9922L53.2812 66.5234L53.8672 65.7422L54.2969 65.1562L54.7656 64.375L55.1953 63.6328L55.7812 62.4219L56.2109 61.2891L56.5234 60.3125L56.8359 59.0234L57.0703 57.5L57.1484 56.2109V54.8828L57.0703 53.7891L56.875 52.4219L56.6016 51.2109L56.1719 49.8047L55.6641 48.5547L55.3516 47.9297L55.0391 47.3438L54.375 46.25L54.0234 45.7031L53.5938 45.1562L53.2422 44.7266L52.8125 44.1797L52.5781 43.9062L52.2656 43.6328L51.6016 42.9688L51.2891 42.6953L50.8984 42.3438L50.1953 41.8359L49.4531 41.2891L49.0234 41.0156L47.8906 40.3906L47.0703 39.9609L45.4297 39.3359L44.7266 39.1016L43.6328 38.8281L42.8125 38.6719L41.6016 38.5156L40.9766 38.4766H38.8281ZM3.16406 44.6875L3.125 45.8203V54.0234L8.47656 54.0625L9.17969 54.1406L9.53125 54.2969L9.88281 54.5703L10.1172 54.9219L10.2344 55.2344L10.2734 55.3906V55.8594L10.1562 56.25L9.88281 56.6797L9.53125 56.9531L9.25781 57.0703L8.78906 57.1484L3.16406 57.1875L3.125 57.3047V58.5547L3.20312 59.1406L3.35938 59.5312L3.63281 59.8828L4.0625 60.1562L4.57031 60.2734H20.1953L20.1562 59.9219L19.8438 58.0859L19.7656 57.1875L19.6875 55.7422L19.7266 54.3359L19.8828 52.8125L20.1562 51.2891L20.4688 50.0391L20.9375 48.5938L21.4844 47.2656L21.7969 46.6016L22.1875 45.8594L22.5391 45.2344L22.8125 44.7656V44.6875H3.16406ZM57.1484 44.6875L57.3438 45.0781L57.6562 45.5859L58.125 46.4453L58.75 47.7734H76.8359V46.1328L76.7188 45.625L76.4844 45.2344L76.1719 44.9609L75.7422 44.7656L75.2734 44.6875H57.1484ZM59.8047 50.9375L59.8438 51.3672L60.1172 52.9688L60.1953 53.6719L60.2734 55V57.1484H75.4688L75.9375 57.0312L76.2891 56.7969L76.5625 56.5234L76.7578 56.1328L76.8359 55.7812V50.9375H59.8047ZM59.7656 60.3125L59.2578 62.0312L58.9844 62.8125L58.3203 64.375L57.8125 65.3516L57.2656 66.2891L56.9141 66.8359L56.4453 67.5L55.9375 68.2031L55.8984 68.3984L56.3672 69.4141L56.9531 70.7031L57.3828 71.6406L58.125 73.2812L58.7891 74.7266L59.4141 76.1328L59.4922 76.25L59.6875 76.2109L63.3594 74.375L63.3984 74.3359V60.3125H59.7656ZM16.6016 63.4375L16.5625 64.5703V74.2969L16.875 74.4922L20.3906 76.25H20.5078L21.1328 74.9219L21.7578 73.5156L22.3438 72.2656L23.3984 69.9219L24.0234 68.5547L24.1016 68.2812L23.5938 67.5781L23.2422 67.1094L22.6953 66.25L22.3047 65.5859L21.7188 64.4922L21.2891 63.5547L21.2109 63.4375H16.6016Z" fill="black"/>
<path d="M39.7656 41.5234L41.0156 41.5625L41.7969 41.6406L42.9688 41.8359L44.1406 42.1484L45.1562 42.5L45.9375 42.8516L46.6797 43.2031L47.7734 43.8672L48.4766 44.375L49.0234 44.8047L49.5312 45.2734L50 45.7031L50.3125 46.0156L50.5859 46.3281L51.0156 46.8359L51.3672 47.3047L51.8359 47.9688L52.2266 48.6328L52.6172 49.375L53.0078 50.1953L53.4375 51.3672L53.7891 52.7344L53.9844 53.9062L54.0625 54.8438V56.4062L53.9844 57.3438L53.8281 58.3203L53.5938 59.3359L53.3594 60.0781L53.0469 60.9375L52.6953 61.7188L52.3047 62.5L51.9922 63.0078L51.6016 63.6328L51.0547 64.3359L50.7422 64.7266L50.6641 64.8438H50.5859L50.5078 65L49.8828 65.6641L49.375 66.1328L48.8281 66.6016L48.0859 67.1484L47.5 67.5391L46.6406 68.0469L45.5078 68.5938L44.4531 68.9844L43.3594 69.2969L42.4219 69.4922L41.2891 69.6484L40.6641 69.6875H39.2969L38.2812 69.6094L37.1094 69.4141L35.8984 69.1016L34.6875 68.6719L33.5938 68.1641L33.0078 67.8516L32.1875 67.3438L31.4453 66.7969L31.0547 66.4844L30.6641 66.1328L30.3516 65.8594L29.9609 65.5078L29.2578 64.7266L28.7891 64.1406L28.2812 63.4375L27.7734 62.6172L27.4609 62.0703L26.9922 61.0547L26.5625 59.8828L26.25 58.7109L26.0547 57.6562L25.9766 57.1094L25.8984 55.8594L25.9375 54.6484L26.0156 53.8672L26.2109 52.6953L26.5234 51.4844L26.9141 50.3906L27.1875 49.7656L27.5781 48.9453L28.2422 47.8516L28.7891 47.1094L29.1797 46.6016L29.5703 46.1719L29.8438 45.8594L30.4688 45.2344H30.5469V45.1562L30.8594 44.8828L31.4062 44.4531L32.1484 43.9062L33.2422 43.2422L33.8672 42.9297L34.5312 42.6172L35.7031 42.1875L36.6797 41.9141L37.6953 41.7188L38.4766 41.6016L39.7656 41.5234ZM39.9219 44.6875L38.7109 44.7656L37.7344 44.9219L36.6797 45.1953L35.7422 45.5469L34.7656 46.0156L33.9453 46.5234L33.3594 46.9531L32.9297 47.3047L32.4609 47.7344L32.3438 47.8125V47.8906H32.2656L31.9922 48.2031L31.5625 48.6719L31.2109 49.1406L30.9375 49.5312L30.5469 50.1562L30.0781 51.0547L29.7656 51.7969L29.5312 52.5L29.2969 53.4375L29.1797 54.1016L29.0625 55.5078L29.1016 56.4062L29.2188 57.4219L29.4141 58.3594L29.6875 59.2578L30.0781 60.1953L30.3906 60.8203L30.7031 61.3672L31.0156 61.8359L31.4844 62.4609L31.9531 63.0078L32.6953 63.75L33.0078 64.0234L33.7891 64.6094L34.5312 65.0781L35.5078 65.5859L36.2891 65.8984L37.0312 66.1328L38.0469 66.3672L38.9062 66.4844L39.4141 66.5234H40.5859L41.4453 66.4453L42.5 66.25L43.4766 65.9766L44.4531 65.5859L45.1172 65.2734L46.0938 64.6875L46.7578 64.1797L47.1484 63.8672L47.7734 63.2812L48.0469 63.0078L48.3203 62.6953L48.6719 62.2656L49.1406 61.6016L49.4922 61.0156L49.9609 60.1172L50.1953 59.5312L50.5078 58.5938L50.7422 57.6172L50.8594 56.7969L50.8984 56.2109V55L50.8203 54.1797L50.6641 53.2812L50.4297 52.3828L50.0781 51.4062L49.6094 50.4297L49.2969 49.8828L48.9062 49.2969L48.5547 48.8281L48.0859 48.2812L47.1875 47.3828L46.6406 46.9531L46.0547 46.5234L45.2734 46.0547L44.6875 45.7422L43.9453 45.4297L42.8906 45.0781L42.0312 44.8828L41.25 44.7656L40 44.6875H39.9219Z" fill="black"/>
<path d="M14.7266 54.0625H15.2734L15.7422 54.2188L16.1328 54.5312L16.3672 54.8438L16.5234 55.1953L16.5625 55.3906V55.8984L16.4062 56.3281L16.0938 56.7578L15.7031 57.0312L15.3906 57.1484L15.1562 57.1875H14.8047L14.375 57.0703L13.9844 56.8359L13.7109 56.5234L13.4766 56.0547L13.4375 55.8984V55.3906L13.5938 54.8828L13.8672 54.5312L14.1406 54.2969L14.5312 54.1016L14.7266 54.0625Z" fill="black"/>
</g>
<defs>
<clipPath id="clip0_221_55">
<rect width="80" height="80" fill="white"/>
</clipPath>
</defs>
</svg>
