<svg width="44" height="88" viewBox="0 0 44 88" fill="none" xmlns="http://www.w3.org/2000/svg">
<path d="M24.2461 0.201172H25.1738L25.9551 0.298828L26.5898 0.494141L27.127 0.787109L28.0059 1.42188L28.7871 2.05664L29.4219 2.64258L30.1055 3.32617L30.5449 3.86328L31.0332 4.44922L31.5703 5.23047L32.0586 6.01172L32.5469 6.89062L33.0352 7.91602L33.4746 9.08789L33.7676 10.0156L34.1094 11.3828L34.3535 12.8965L34.5 14.459V17.4375L34.4023 18.9023L34.207 20.4648L33.8652 22.3203L33.4258 23.9805L32.8398 25.7383L32.3027 27.0078L31.7168 28.2285L31.1797 29.2539L30.6914 30.0352L30.3496 30.5723L29.959 31.1582L29.3242 32.0371L28.6895 32.8184L28.2988 33.3066L27.7617 33.8926L27.4199 34.2832L26.6875 35.0645L25.9551 35.7969L25.5645 36.1387L25.3203 36.334L25.2715 36.4316H25.1738L25.8086 38.7266L26.2969 40.6309L26.6875 41.9492V42.0469L27.2246 41.8516L27.957 41.7539L29.5195 41.6562H30.9844L32.2051 41.7539L33.5234 41.9492L34.8906 42.291L36.2578 42.7793L37.5762 43.4141L38.6016 44.0488L39.4316 44.6348L40.2129 45.2695L41.1406 46.1973L41.6777 46.8809L42.3613 47.9062L42.8984 48.9316L43.2891 49.957L43.6309 51.0801L43.8262 52.1055L43.875 52.5449V54.5957L43.7285 55.8652L43.5332 56.9395L43.2402 58.0625L42.8984 59.0879L42.3613 60.3086L41.9219 61.1387L41.2871 62.1641L40.6035 63.0918L40.0664 63.7266L39.627 64.2148L38.6504 65.1914L38.1133 65.6309L37.7227 65.9727L37.1367 66.4121L36.3066 66.998L35.3789 67.584L34.1582 68.2676L33.377 68.6582V69.4395L33.4746 71.5391V73.248L33.4258 74.3223L33.2305 76.1777L32.9863 77.5449L32.6445 78.9121L32.2539 80.084L31.8145 81.1094L31.3262 82.0859L30.7402 83.0137L30.3008 83.5996L29.8613 84.0879L29.7637 84.2344H29.666L29.5684 84.4297L29.0801 84.8691L28.4453 85.4062L27.6152 85.9922L26.7852 86.4805L25.6621 87.0176L24.4902 87.4082L23.416 87.6523L22.6836 87.75H21.2188L20.2422 87.6035L19.1191 87.2617L18.2402 86.8711L17.3613 86.3828L16.5312 85.748L15.7988 85.0645L15.3594 84.5762L14.9199 83.9414L14.627 83.3066L14.4316 82.4766L14.334 81.6953V81.1094L14.4316 80.2793L14.6758 79.3516L15.0176 78.5215L15.457 77.7891L15.9941 77.1055L16.8242 76.2754L17.3125 75.9336L17.9473 75.6406L18.3867 75.543H19.3633L19.998 75.7383L20.4863 75.9824L20.9746 76.373L21.3652 76.7637L21.707 77.3008L21.9512 77.9355L22 78.1309V79.2051L21.8047 79.8887L21.4141 80.5234L20.9258 81.0605V81.207L21.7559 81.4023H22.4395L23.2207 81.207L24.002 80.8164L24.5391 80.4258L25.125 79.8887L25.5645 79.3516L25.9551 78.7168L26.3945 77.7891L26.7852 76.6172L27.0293 75.543L27.1758 74.6152L27.2734 73.1504V70.9043L26.834 71.002L24.7344 71.3438L23.2695 71.4902L22.3418 71.5391H19.9492L18.4844 71.4414L17.0684 71.2461L15.6035 70.9531L13.9922 70.5137L12.4785 69.9766L11.2578 69.4395L10.4766 69.0488L9.74414 68.6582L8.86523 68.1211L8.08398 67.584L7.49805 67.1445L6.96094 66.7051L6.22852 66.0703L5.49609 65.3379L5.30078 65.1914V65.0938L5.10547 64.9961V64.8984L4.91016 64.8008V64.7031H4.8125L4.4707 64.3125L4.03125 63.8242L3.39648 62.9941L2.9082 62.3105L2.37109 61.4316L1.88281 60.5527L1.39453 59.5273L0.90625 58.2578L0.515625 56.9395L0.222656 55.4258L0.0761719 54.0586V53.1797L0.222656 51.8613L0.466797 50.6406L0.808594 49.4688L1.19922 48.4434L1.73633 47.2715L2.41992 46.0996L2.9082 45.3672L3.44531 44.6348L3.93359 44L4.42188 43.4629L4.86133 42.9258L6.375 41.4121L6.76562 41.0703L7.25391 40.6309L7.74219 40.2402L8.52344 39.6055L10.0859 38.4336L12.1367 37.0664L13.0645 36.4805L13.8945 35.9922L15.0664 35.3086L16.0918 34.6738L17.0684 33.9902L17.5078 33.6973L17.459 33.3066L16.9219 31.2559L15.9453 27.3496L15.0664 23.8828L14.1387 20.2695L13.8457 18.9023L13.6504 17.7793L13.5039 16.4609L13.4551 15.582V14.459L13.5527 13.1406L13.7969 11.6758L14.0898 10.5039L14.4805 9.33203L14.9199 8.30664L15.457 7.28125L16.043 6.35352L16.6289 5.57227L17.0684 5.03516L17.166 4.88867H17.2637L17.3613 4.69336L17.6055 4.40039H17.7031L17.8008 4.20508L18.5332 3.52148L18.9238 3.17969L19.8027 2.49609L20.291 2.1543L21.2188 1.56836L22 1.12891L22.7812 0.738281L23.709 0.347656L24.2461 0.201172ZM24.6855 6.89062L24.1484 7.23242L23.5625 7.67188L22.8789 8.25781L22.293 8.84375L21.7559 9.52734L21.4141 10.0156L21.0234 10.6992L20.6328 11.5293L20.3398 12.4082L20.1445 13.2871L19.998 14.3125V16.0703L20.1445 17.2422L20.4375 18.6582L21.1211 21.1484L21.8535 23.7852L22.4395 25.9824L23.123 28.7168L23.2207 29.1562H23.3672L23.7578 28.7168L24.2949 28.0332L24.7832 27.3984L25.3691 26.5195L25.7598 25.8848L26.4434 24.5664L26.8828 23.541L27.2734 22.4668L27.6641 21.0508L27.9082 19.8301L28.1035 18.4141L28.2012 17.0957V14.9473L28.0547 13.5312L27.8105 12.2617L27.4199 10.9922L27.127 10.2598L26.6387 9.23438L26.0527 8.30664L25.418 7.47656L24.8809 6.89062H24.6855ZM19.7539 40.2891L19.0215 40.6797L17.9473 41.3145L16.6777 41.998L15.5059 42.6816L14.4805 43.3164L13.8945 43.707L13.0645 44.293L12.2832 44.8789L11.502 45.5137L11.0137 45.9531L10.8672 46.0508V46.1484L10.6719 46.2461L9.69531 47.2227V47.3203H9.59766L9.1582 47.8574L8.57227 48.5898L8.08398 49.3223L7.64453 50.1035L7.25391 50.9336L6.96094 51.8125L6.76562 52.7402L6.66797 53.9609V54.9375L6.81445 55.8652L7.15625 56.9883L7.54688 57.8672L8.03516 58.7461L8.62109 59.5762L9.25586 60.3086L10.1348 61.1875L10.6719 61.627L11.4531 62.2129L12.0879 62.6523L13.0645 63.2383L13.9922 63.7266L14.7734 64.0684L15.9941 64.5078L17.0684 64.8008L18.2891 65.0449L19.5586 65.1914L20.291 65.2402H21.8535L23.2207 65.1426L24.5879 64.9473L26.1992 64.6543L26.3457 64.5078L26.2969 63.8242L26.0527 62.6035L25.5156 60.6504L25.1738 59.4297L23.416 53.5703L22.7324 51.2754L22.6836 51.0312H22.4395L22.0977 51.373L22 51.4219V51.5195L21.8047 51.6172L21.6094 51.8125V51.9102H21.5117V52.0078H21.4141L20.5352 53.082L20.0469 53.8145L19.5586 54.6934L19.2168 55.5234L19.0215 56.1582L18.7773 57.3789L18.582 57.8672L18.2402 58.3066L17.8984 58.6484L17.2148 59.0391L16.6777 59.2344L16.3359 59.332H15.5059L14.8711 59.2344L14.1875 58.8926L13.6992 58.4531L13.3574 57.9648L13.0645 57.3789L12.918 56.8906L12.8691 56.3047L13.0156 55.4746L13.3574 54.2051L13.8457 52.8867L14.334 51.8125L14.8711 50.8359L15.5059 49.8105L16.0918 49.0293L16.5801 48.3945L17.166 47.7109L17.752 47.0762L18.582 46.2461L19.1191 45.8066L19.6074 45.3672L20.584 44.6348L21.0234 44.293L20.6328 43.3164L20.2422 41.998L19.8516 40.3867L19.7539 40.2891ZM29.1289 47.7109L28.3965 47.7598L28.2988 47.8574L28.8848 49.9082L29.7637 52.8867L30.7402 56.207L31.3262 58.209L32.2539 61.8711L32.3516 62.0176L32.5957 61.9199L33.5234 61.2852L34.3535 60.6016L35.2812 59.6738L35.8184 58.9902L36.2578 58.3066L36.7949 57.2812L37.1367 56.3047L37.3809 55.377L37.5273 54.4004L37.5762 53.9121V52.7402L37.4297 52.0566L37.1367 51.3242L36.7949 50.7383L36.3555 50.2012L35.8184 49.6641H35.7207V49.5664L35.1836 49.127L34.5 48.6875L33.7188 48.2969L32.6445 47.9551L31.5215 47.7598L31.082 47.7109H29.1289Z" fill="black"/>
</svg>
