<svg width="80" height="80" viewBox="0 0 80 80" fill="none" xmlns="http://www.w3.org/2000/svg">
<g clip-path="url(#clip0_223_62)">
<path d="M76.3281 0H77.2266V0.078125L77.5 0.117188L77.8906 0.3125L78.2812 0.625L79.4141 1.75781L79.8047 2.34375L79.9219 2.69531V2.85156H80V3.51562L79.9219 3.55469L79.7656 3.94531L79.5312 4.41406L78.3984 6.09375L77.2656 7.8125L76.7188 8.39844L76.0938 8.71094L75.7031 8.78906H75.1172L75.0391 8.94531L74.8047 9.21875L74.2578 9.76562L74.2969 9.96094L74.4531 10.1172L74.6484 10.0781L75.1562 9.84375L75.8203 9.6875H76.875L77.4609 9.80469L78.2812 10.1953L78.7891 10.5859L79.2188 11.0156L79.5703 11.5625L79.8438 12.1484L79.9609 12.5L80 12.6562V14.1406L79.9219 14.2188L79.7266 14.7656L79.4141 15.3516L79.2188 15.625H79.1406L79.0625 15.7812L78.8672 15.9766L78.5547 16.25L78.0469 16.5625L77.5781 16.7578L77.2266 16.875L76.5234 16.9922H76.0938L75.5859 16.9141L74.9609 16.7188L74.4922 16.4844L73.9453 16.0938L73.5547 15.7031L73.2031 15.1953L72.9297 14.6484L72.7734 14.1406L72.6953 13.6719V13.0078L72.8125 12.3438L72.8906 12.1484L72.8516 11.9922L72.5781 11.6797L72.3828 11.7969L72.1094 12.0703L71.8359 12.3828L71.6016 12.6562L71.0547 13.2031L70.7812 13.5156L70.1562 14.1797L69.6875 14.6875L69.2969 15.0781L69.0234 15.3906L68.5938 15.8594L68.5156 16.0156L68.8672 15.8984L69.4922 15.6641L70.1562 15.5469H70.8984L71.6016 15.7031L72.3047 16.0156L72.8516 16.4062L73.3594 16.9141L73.7109 17.4609L73.9453 18.0078L74.1016 18.6328L74.1406 18.9062V19.5312L74.0234 20.1562L73.8672 20.625L73.5547 21.2109L73.125 21.7188L72.9297 21.9141L72.5391 22.2266L72.0703 22.5L71.2891 22.7734L70.7031 22.8516H70.1172L69.4531 22.7344L68.9453 22.5391L68.5156 22.3047L68.0078 21.9141L67.7344 21.6406L67.3438 21.1328L67.0312 20.4688L66.875 19.9219L66.8359 19.6875V18.7109L66.9922 18.0078L66.9531 17.8125L66.7969 17.7734L66.6406 17.9688H66.5625L66.4844 18.125L66.1328 18.4766L65.8594 18.7891L64.6875 20.0391L63.75 21.0547L62.5 22.3828L62.4219 22.5H62.3438L62.2656 22.6562L61.9141 23.0078L61.6406 23.3203L61.0938 23.8672L60.8203 24.0625L60.4688 24.1797H60.0781L59.6875 24.0234L59.375 23.75L59.1797 23.4766L59.0625 23.0859L59.1406 22.5781L59.4141 22.1094L59.7266 21.7969L60 21.4844L60.2344 21.2109H60.3125L60.3906 21.0547L60.8984 20.5469L61.1719 20.2344L61.7578 19.6094L62.1875 19.1406L62.4219 18.8672H62.5L62.5781 18.7109L62.9688 18.3203L63.2422 18.0078L63.5547 17.6953L63.8281 17.3828L64.4141 16.7578L64.6094 16.5234H64.6875L64.7656 16.3672L65.1562 15.9766L65.4297 15.6641L65.625 15.4297H65.7031L65.7812 15.2734L66.1328 14.9219L66.4062 14.6094L66.7188 14.2969L66.9922 13.9844L67.3438 13.6328L67.6172 13.3203L67.8125 13.0859H67.8906L67.9688 12.9297L68.3203 12.5781L68.5938 12.2656L68.8281 11.9922L69.4922 11.3281L69.7656 11.0156L70.3516 10.3906L70.8203 9.88281L71.0156 9.64844L71.6797 8.98438L71.9531 8.67188L72.5391 8.04688L72.8906 7.65625L73.1641 7.34375L73.125 7.22656L72.9297 7.03125L72.6562 6.79688L72.5 6.875L72.0312 7.34375L71.7188 7.61719L71.4453 7.89062H71.3672V7.96875L71.0547 8.24219L70.4297 8.82812L69.2578 9.92188L68.75 10.3906L68.0859 11.0156L66.9141 12.1094L66.4062 12.5781L66.25 12.7344H66.1719V12.8125L65.8594 13.0859L65.1953 13.7109L65.0781 13.8281H65V13.9062L64.6875 14.1797L64.0625 14.7656L63.5938 15.1953L63.3203 15.4688L63.0078 15.7422L62.3438 16.3672L62.2266 16.4844H62.1484V16.5625L61.8359 16.8359L61.2109 17.4219L60.7031 17.8906L60.0391 18.5156L59.5312 18.9844L58.3594 20.0781L57.6953 20.7031L57.2266 21.1328L57.1094 21.25H57.0312V21.3281L56.7188 21.6016L56.4453 21.875L55.8203 22.4219L55.2734 22.9688L54.9609 23.2422L53.6719 24.4531L53.1641 24.9219L53.0078 25.0781H52.9297V25.1562L52.6172 25.4297L51.9922 26.0156L51.4844 26.4844L50.8203 27.1094L50.3125 27.5781L49.1406 28.6719L48.9844 28.8281H48.9062V28.9062L48.5938 29.1797L47.9688 29.7656L47.8125 29.8438V29.9219L47.5 30.1953L47.2266 30.4688L46.6016 31.0156L46.0547 31.5625L45.7422 31.8359L45.8203 31.9922L48.0469 34.2188L48.2031 34.1406L48.4375 33.8672H48.5156L48.5938 33.7109L48.9453 33.3594L49.2188 33.0469L49.5703 32.6953L49.8438 32.3828L50.1562 32.0703L50.4297 31.7578L50.625 31.5234H50.7031L50.7812 31.3672L51.1328 31.0156L51.4062 30.7031L51.6406 30.4297L52.3047 29.7656L52.5781 29.4531L53.1641 28.8281L53.6328 28.3203L53.8281 28.0859H53.9062L53.9844 27.9297L54.375 27.5391L54.6484 27.2266L54.8438 26.9922H54.9219L55 26.8359L55.3516 26.4844L55.625 26.1719L55.8984 25.8984L56.3281 25.6641L56.8359 25.625L57.2266 25.7422L57.5391 25.9766L57.7734 26.2891L57.8906 26.6406V26.9922L57.7734 27.3438L57.5781 27.6562L57.2266 28.0469L56.6797 28.6328L56.0938 29.2578L55.625 29.7656L55.4297 30H55.3516L55.3125 30.1953L55.9375 31.2891L56.3672 32.0312L56.7578 32.8906L57.3047 34.2188L57.8125 36.0156L57.9688 36.8359L58.125 38.0469L58.1641 38.5156V40.0391L58.0859 40.9375L57.8906 41.9531L57.6953 42.6953L57.4609 43.3594L57.4219 43.5938L75.1562 61.3281L75.4297 61.7188L75.5469 62.1094L75.5078 62.5391L75.3125 62.9297L75.0391 63.2812H74.9609L74.8828 63.4375L73.3203 65H73.2422L73.1641 65.1562L72.8516 65.4688H72.7734L72.8125 65.5859L73.125 65.8594L76.3281 69.0625V69.1406H76.4062V69.2188H76.4844V69.2969H76.5625L76.875 69.6875L77.0312 70L77.0703 70.1562V70.5078L76.9531 70.8594L76.7188 71.2109L76.3672 71.4453L76.1328 71.5234H75.5859L75.3125 71.4062L74.8828 71.0938L52.9297 49.1406L52.8906 49.0625L52.6562 49.1016L51.9531 49.5703L51.5234 49.8438L50.4688 50.4297L49.8828 50.8203L49.4141 51.25L49.2188 51.4453L48.75 52.0312L48.2031 53.0469L47.9297 53.4766L47.6953 53.75L47.3047 54.0234L46.9141 54.1797L46.6797 54.2188H46.0156L45.625 54.1016L45.2734 53.9062L44.8828 53.5547L44.6094 53.125L44.375 52.6953L44.1797 52.5781H43.75L43.2812 52.6953L42.6172 53.0078L42.1875 53.2812L41.6016 53.7109L41.2109 54.0625L40.8984 54.3359L40.3906 54.8438L40.1172 55.1562L39.6094 55.7812L39.1406 56.4453L38.4766 57.5781L38.2031 58.0469L37.6562 59.4141L37.3828 60.5078L37.3438 60.7422V61.6797L37.4609 62.0703L37.6562 62.2656L38.7109 62.7344L39.1016 62.9688L39.4531 63.3203L39.6875 63.7109L39.8047 64.1016V64.6875L39.6484 65.1562L39.4141 65.5469L39.1016 65.8203L38.5156 66.1719L37.6953 66.6406L37.1875 67.0703L36.875 67.3438L36.4844 67.8516L36.2109 68.2812L35.7422 69.2578L35.1562 70.7422L34.7656 71.6406L34.3359 72.5L33.8672 73.3594L33.2031 74.375L32.7734 75L32.4219 75.4297L31.4844 76.5234L30.8984 77.0703L30.4688 77.4219L29.9609 77.8125L29.2969 78.2422L28.6719 78.5938L28.0469 78.9062L27.3047 79.2188L26.3281 79.5312L25.2734 79.7656L24.3359 79.9219L23.8281 80H21.4062L21.2891 79.9219L19.5703 79.6484L18.0078 79.2578L16.5234 78.75L15.3125 78.2422L14.3359 77.7734L13.3594 77.2656L12.4609 76.7188L11.6016 76.1719L10.1953 75.1562L9.6875 74.7266L9.29688 74.4141L8.75 73.9453L8.4375 73.6719L7.8125 73.0859L6.52344 71.7969L6.25 71.4844L5.85938 71.0547L5.50781 70.625L4.96094 69.9609L4.41406 69.2188L3.90625 68.5156L3.51562 67.9297L2.89062 66.9141L2.5 66.2109L1.91406 65.0781L1.32812 63.75L0.859375 62.4219L0.585938 61.5234L0.273438 60.1953L0.078125 58.9453V58.75H0V55.7812L0.117188 55.1562L0.351562 53.9453L0.585938 53.1641L0.859375 52.3828L1.28906 51.4453L1.64062 50.7812L1.91406 50.3906L2.30469 49.8047L2.65625 49.375L3.35938 48.5547H3.4375V48.4766L3.75 48.2031L4.21875 47.7734L4.76562 47.3438L5.11719 47.1875L5.50781 47.1484L5.85938 47.2266L6.25 47.4609L6.48438 47.7734L6.60156 48.0469L6.64062 48.2031V48.5547L6.52344 48.8672L6.21094 49.2969L5.74219 49.7266L5.3125 50.0781L5 50.3906L4.64844 50.8203L4.17969 51.3672L3.75 52.0703L3.39844 52.6953L3.00781 53.6328L2.77344 54.375L2.53906 55.4688L2.46094 56.1719L2.42188 56.875V57.6172L2.53906 58.8672L2.69531 59.8047L3.04688 61.1328L3.35938 62.1484L3.67188 62.9297L4.21875 64.2188L4.57031 64.8828L5.07812 65.7812L5.42969 66.4062L5.9375 67.1094L6.36719 67.7344L6.75781 68.2812L7.03125 68.0469L12.3438 62.7344L12.6172 62.3047L12.9297 61.6797L13.4766 60.625L13.8672 59.9219L14.1797 59.2969L14.7656 58.2031L15.3906 56.9922L15.7422 56.3672L16.0547 55.7422L16.6016 54.6875L16.9531 54.0625L17.2266 53.7109L17.4609 53.5547L17.7734 53.4375H18.2422L18.6328 53.5938L18.9453 53.8281L19.3359 54.1797L21.6016 56.4453V56.5234L21.7578 56.6016V56.6797L21.9141 56.7578V56.8359L22.0703 56.9141V56.9922L22.1875 57.0312L22.4219 57.3047L22.6562 57.5L22.8906 57.7734L23.125 57.9688L23.3594 58.2422L23.5938 58.4375L23.8281 58.7109L24.0625 58.9062L24.2969 59.1797L24.5312 59.375L24.7656 59.6484L25 59.8438L25.2344 60.1172L25.4688 60.3125L25.7031 60.5859L25.9375 60.7812L26.2109 61.0938L26.4844 61.5234L26.5625 61.9531L26.4844 62.3047L26.3281 62.6172L26.1719 62.8125L25.7812 63.0859L24.5703 63.7109L23.8281 64.1016L22.7344 64.6875L21.6797 65.2344L20.9375 65.625L20.2344 66.0156L19.6094 66.3281L17.9688 67.1875L17.3438 67.5391L16.8359 68.0078L11.6797 73.1641L11.875 73.3594L12.5 73.7891L13.3984 74.4141L13.9062 74.7266L14.8828 75.2734L15.7422 75.7422L16.7188 76.1719L18.0078 76.6797L19.6875 77.1484L20.5859 77.3438L21.7969 77.5L22.3047 77.5391H23.2812L24.1406 77.4609L25.1172 77.3047L26.1328 77.0312L27.1094 76.6406L27.6562 76.3672L28.4766 75.8594L28.8672 75.5469L29.4141 75.0781L29.8047 74.7266L30.1953 74.2969L30.5469 73.8672L30.9766 73.3203L31.3281 72.7734L31.8359 71.9922L32.6953 70.2734L33.1641 69.1016L33.5938 68.0469L34.0625 67.0703L34.7266 66.0938L35.1172 65.7031L35.3906 65.3906L35.6641 65.1172L36.2891 64.6484L36.5234 64.4922L36.4062 64.375L35.9766 64.0625L35.625 63.7109L35.3516 63.3203L35.0781 62.7344L34.9219 62.1484L34.8438 61.4453L34.8828 60.5859L35.0391 59.6484L35.3125 58.6328L35.7031 57.6172L36.2891 56.4062L36.7188 55.6641L37.1094 55.0781L37.4219 54.6484L37.9297 53.9844L38.2422 53.5938L38.5938 53.2031L38.9062 52.8906L38.9844 52.7734H39.0625L39.1406 52.6172L39.4141 52.3438L40.2734 51.6406L40.7031 51.3281L41.6797 50.7422L42.5781 50.3516L43.2422 50.1953L43.9062 50.1172L44.8047 50.1953L45.2344 50.3516L45.625 50.5469L46.0156 50.8594L46.3281 51.2109L46.5234 51.0156L46.7969 50.5859L47.1094 50.1172H47.1875L47.2656 49.9609L47.5391 49.6484H47.6172L47.6953 49.4922L47.9688 49.2188L48.3984 48.8672L48.9062 48.5156L49.7266 48.0469L50.4688 47.6172L51.0156 47.2656L50.7812 46.9922L45.0391 41.25L44.8828 41.2891L44.6094 41.5625L44.3359 41.875L43.75 42.5L43.6328 42.6562H43.5547L43.4766 42.8125L43.1641 43.125L43.125 43.2031H43.0469L42.9688 43.3594L42.5781 43.75L42.3047 44.0625L41.0938 45.3516L40.9375 45.5469H40.8594V45.625L40.5469 45.8594L40.2344 46.0156L40.0781 46.0547H39.6875L39.3359 45.9375L39.0234 45.7031L38.8281 45.5469V45.4688L38.6719 45.3906V45.3125L38.5156 45.2344V45.1562L38.3594 45.0781V45L38.2031 44.9219V44.8438H38.125V44.7656H38.0469V44.6875H37.9688V44.6094H37.8906V44.5312H37.8125V44.4531H37.7344V44.375H37.6562V44.2969H37.5781V44.2188H37.5V44.1406H37.4219V44.0625L37.2656 43.9844V43.9062L37.1094 43.8281V43.75L36.9531 43.6719V43.5938L36.7969 43.5156V43.4375L36.6406 43.3594V43.2812L36.4844 43.2031V43.125L36.3281 43.0469V42.9688L36.1719 42.8906V42.8125L36.0156 42.7344V42.6562L35.8594 42.5781V42.5L35.7031 42.4219V42.3438L35.5469 42.2656V42.1875L35.3906 42.1094V42.0312L35.2344 41.9531V41.875L35.1172 41.8359L34.9219 41.6016L34.6484 41.3672L34.4531 41.1719V41.0938L34.3359 41.0547L34.0234 40.625L33.9062 40.3516V39.8047L34.1016 39.4141L34.4531 39.0234L34.9219 38.5547L35.2344 38.2812L35.8984 37.6562L36.5234 37.0703L36.9922 36.6406L37.5 36.1719L37.7734 35.8984L38.0859 35.625L38.3594 35.3516L38.6719 35.0781L38.75 34.9609L32.7344 28.9453L32.5781 29.1016L32.3047 29.5703L31.9141 30.2344L31.5234 30.9375L31.2109 31.4062L30.8594 31.8359L30.5078 32.2266L30.2344 32.5L29.9219 32.7734L29.4531 33.125L28.75 33.5938L29.2188 34.0625L29.5312 34.5312L29.7266 35.0391L29.8047 35.3906L29.8438 35.8594V36.25L29.6484 37.2266L29.2578 38.2031L28.9062 38.8281L28.5547 39.375L28.125 39.9219L27.5781 40.5859L27.0703 41.0938L26.7578 41.3672L26.4062 41.7188L25.2344 42.6172L24.4141 43.1641L23.8281 43.5156L23.125 43.9062L22.0703 44.375L20.7812 44.8047L19.8828 45L19.375 45.0781L18.4766 45.1172L17.6562 45L17.0312 44.8047L16.5234 44.5312L16.1719 44.2578L15.8594 43.9453L15.5859 43.5547L15.5078 43.4375L15.1953 43.8281L14.9219 44.1797L14.5703 44.5703L14.0234 45.1172L13.5156 45.5078L12.8125 45.9375L12.1875 46.25L11.1328 46.6797L10.3906 46.9141L10.0391 46.9531L9.53125 46.7969L9.17969 46.4844L8.98438 46.0938L8.94531 45.9375V45.5469L9.10156 45.1172L9.375 44.8047L9.76562 44.5703L10.8594 44.1406L11.8359 43.6719L12.3438 43.2812L12.7734 42.9297L13.2031 42.4219L13.5547 41.875L13.9062 41.2109L14.2578 40.7031L14.6484 40.3906L15.1562 40.1953L15.625 40.1562L16.0938 40.2344L16.4062 40.3516L16.7578 40.625L17.0312 40.8984L17.3438 41.4844L17.6953 42.2656L17.8125 42.4609L18.0859 42.5781L18.3984 42.6172H19.1797L20.1562 42.4219L20.7812 42.2266L22.0703 41.6797L22.9297 41.1719L23.75 40.6641L24.2578 40.2734L24.8047 39.8438L25.3125 39.375L25.625 39.1016L25.9766 38.6719L26.3672 38.2422L26.6406 37.8516L26.9922 37.2656L27.2656 36.6797L27.3828 36.2109V35.7812L27.2656 35.5859L26.5234 35.1562L26.1328 34.8047L25.8984 34.4141L25.7422 33.9844L25.7031 33.4766L25.8203 32.9297L26.0547 32.4609L26.3281 32.1484L26.7188 31.875L27.8125 31.2891L28.2812 30.9375L28.7109 30.5859L29.0625 30.1953L29.4922 29.5703L30 28.6328L30.2344 28.2422L30.9375 27.1875L30.7031 26.9141L16.2109 12.4219L15.8594 11.9141L15.7812 11.6406V11.3281L15.8984 10.9375L16.1328 10.625L16.3672 10.4297L16.7969 10.2734H17.1484L17.5781 10.4297L17.9688 10.7031H18.125L18.8281 10.2344L19.6094 9.88281L20.3906 9.6875L20.6641 9.64844H21.9531L22.7344 9.80469L23.4375 10.0781L24.0234 10.3906L24.4922 10.7422L25 11.1719L36.3281 22.5L36.4844 22.5391L37.6562 22.1484L38.7891 21.9141L39.8047 21.7969H41.5625L43.1641 21.9922L43.9844 22.1484L45.1172 22.4609L46.0547 22.7734L47.4219 23.3594L48.1641 23.7109L49.0234 24.2188L49.7656 24.6484L49.9609 24.5703L50.5078 24.0234L50.8203 23.75L52.0703 22.5781L53.0859 21.6406L53.75 21.0156L53.9062 20.8594H53.9844V20.7812L54.2969 20.5078L54.4531 20.3516H54.5312V20.2734L54.8438 20L55.4297 19.4531L55.5469 19.3359H55.625V19.2578L55.9375 18.9844L56.2109 18.7109L56.5234 18.4375L56.7969 18.1641L57.1094 17.8906L58.3203 16.7578L58.9844 16.1328L59.1406 16.0547V15.9766L59.4531 15.7031L59.9609 15.2344L60.2344 14.9609L60.5469 14.6875L60.8984 14.3359L61.2109 14.0625L61.8359 13.4766L62.1875 13.1641L62.2266 13.0859L61.3281 13.4375L60.7031 13.5547H59.8047L59.0625 13.3594L58.4375 13.0469L58.0078 12.7344L57.4609 12.1875L57.0703 11.5625L56.8359 11.0156L56.7188 10.5469L56.6797 10.1953V9.64844L56.7969 8.94531L57.0703 8.28125L57.2656 7.92969L57.6562 7.42188L58.0078 7.07031L58.5938 6.67969L59.1406 6.44531L59.7266 6.28906L60.625 6.25L61.2109 6.32812L61.875 6.5625L62.5781 6.99219L62.8516 7.26562L63.0469 7.42188L63.4766 8.00781L63.75 8.55469L63.9453 9.21875L63.9844 9.45312V10.3516L63.8672 10.8984L63.8281 11.25L64.0234 11.4062L64.4141 11.0938L64.9219 10.5859L65.2344 10.3125L65.8594 9.72656L67.0312 8.63281L67.6953 8.00781L68.2031 7.53906L68.2812 7.42188V7.34375H68.2031L68.0859 7.22656L67.8906 7.30469L67.2656 7.53906L66.7578 7.65625L66.4453 7.69531H65.9375L65.3906 7.61719L64.8047 7.42188L64.2188 7.10938L63.8672 6.83594L63.3203 6.28906L62.9688 5.74219L62.6953 5.07812L62.5781 4.53125L62.5391 3.82812L62.6562 3.125L62.9297 2.38281L63.2812 1.83594L63.6328 1.44531L63.9062 1.17188L64.4922 0.78125L65.0391 0.546875L65.7031 0.390625H66.6406L67.2656 0.507812L67.8516 0.742188L68.4766 1.13281L68.9453 1.5625L69.2969 2.03125L69.6094 2.61719L69.8047 3.28125L69.8828 3.86719V4.25781L69.8047 4.84375L69.6875 5.3125L69.9609 5.625L70.0391 5.70312L70.2344 5.66406L70.4688 5.42969H70.5469V5.35156L70.8594 5.07812L71.1328 4.84375L71.1719 4.64844V4.17969L71.2891 3.75L71.4844 3.35938L71.6406 3.125H71.7188L71.7969 2.96875L72.5 2.46094L74.2188 1.32812L75.7422 0.3125L76.25 0.078125H76.3281V0ZM76.7578 2.53906L73.9453 4.41406L73.8672 4.45312L73.9062 4.60938L75.3906 6.09375L75.5469 6.05469L75.9375 5.42969L76.2891 4.92188L77.3828 3.28125L77.3438 3.08594L76.7969 2.53906H76.7578ZM66.2109 2.77344L65.7812 2.85156L65.3516 3.125L65.1562 3.35938L65 3.78906V4.29688L65.1562 4.6875L65.4688 5.03906L65.8594 5.23438L66.3281 5.27344L66.8359 5.11719L67.2266 4.76562L67.3828 4.45312L67.4609 3.98438L67.3828 3.59375L67.1875 3.24219L66.8359 2.92969L66.5234 2.8125L66.2109 2.77344ZM60.1172 8.67188L59.7266 8.82812L59.4141 9.0625L59.1797 9.45312L59.1016 9.80469V10.0781L59.2578 10.5469L59.5703 10.8984L59.9609 11.0938L60.1172 11.1328H60.5859L60.9766 10.9766L61.3672 10.625L61.5234 10.3125L61.5625 10.1172V9.6875L61.4062 9.25781L61.0938 8.90625L60.7422 8.71094L60.5469 8.67188H60.1172ZM21.0547 12.0312L20.4688 12.1484L19.7656 12.5L19.8438 12.6562L20.1562 12.9297L32.5 25.2734L32.6562 25.2344L32.6953 25.1172L32.8516 25.0391L33.125 24.7266L33.6719 24.2578L34.1797 23.8281L33.9453 23.5547L33.4766 23.0859L33.2422 22.8125H33.1641L33.0859 22.6562L23.2422 12.8125L22.7344 12.4219L22.1484 12.1484L21.5234 12.0312H21.0547ZM76.25 12.0703L75.7422 12.2266L75.3516 12.5781L75.1562 13.0078L75.1172 13.4766L75.2344 13.8672L75.4688 14.1797L75.7031 14.375L75.9375 14.4922L76.0938 14.5312H76.6406L76.9922 14.375L77.3047 14.1406L77.5 13.8281L77.5781 13.5547V13.0469L77.4219 12.6562L77.1094 12.3047L76.6797 12.1094L76.25 12.0703ZM70.2344 17.9688L69.8438 18.125L69.4531 18.4766L69.2969 18.7891L69.2578 18.9844V19.4531L69.4141 19.8438L69.7656 20.2344L70.2344 20.4297H70.7031L71.1719 20.2344L71.4062 20.0391V19.9609H71.4844L71.6797 19.5312L71.7188 19.1016L71.6406 18.75L71.4062 18.3594L71.1328 18.125L70.7031 17.9688H70.2344ZM39.8047 24.2188L38.9062 24.3359L38.3203 24.4531L38.4375 24.6484L43.9062 30.1172L44.0234 30.1562L44.1016 30L44.2578 29.9219L44.6875 29.4922L44.7656 29.4531V29.375L44.9219 29.2969L45.2344 28.9844L45.3125 28.9453V28.8672L45.4688 28.7891L45.8203 28.4375L46.1328 28.1641L46.4062 27.8906L46.7188 27.6172L47.0312 27.3047L47.3438 27.0312L47.6172 26.7578L47.9297 26.4844V26.3672L47.0312 25.8594L46.3672 25.5078L44.8047 24.8828L43.6719 24.5703L43.0078 24.4141L41.9141 24.2578L41.5625 24.2188H39.8047ZM35.8594 25.5859L35.5078 25.8594L34.8438 26.4062L34.2578 26.9922L34.4922 27.2656L40.5469 33.3203L40.7422 33.2031L41.1719 32.7734L41.4844 32.5L41.7969 32.1875L42.1094 31.9141L42.1875 31.7969L42.0703 31.6406H41.9922V31.5625L41.7578 31.3672L41.6797 31.25H41.6016L41.5234 31.0938L36.0156 25.5859H35.8594ZM53.5156 31.9922L53.2031 32.3047L52.9297 32.6172L52.8125 32.7344V32.8125H52.7344L52.4609 33.125L51.8359 33.7891L51.3672 34.2969L50.8203 34.8828L50.2344 35.5078L49.8047 35.9766L50.0391 36.25L55.4297 41.6406L55.5078 41.5625L55.6641 40.7422L55.7422 40.1172V38.4375L55.5469 36.9531L55.2344 35.7031L54.9219 34.7656L54.4141 33.5156L53.7109 32.1875L53.5156 31.9922ZM43.8672 33.5547L43.3594 34.0234L42.7734 34.5703L42.3047 35V35.1172L42.6172 35.3906L44.8828 37.6562L45.0391 37.5781L45.2344 37.3828V37.3047H45.3125L45.5859 36.9922L46.2109 36.3281L46.4062 36.0938L46.3672 35.9375H46.2891L46.2109 35.7812L45.9766 35.5859L45.8984 35.4688H45.8203L45.7422 35.3125H45.6641L45.5859 35.1562L43.9844 33.5547H43.8672ZM40.4297 36.7188L39.7656 37.3828L39.6875 37.4219V37.5L39.5312 37.5781L39.1797 37.9297L38.8672 38.2031L38.5938 38.4375V38.5156L38.4375 38.5938L38.0078 39.0234L37.6953 39.2969L37.0703 39.8828L36.8359 40.0781L37.0703 40.3516L37.7734 41.0547L37.8906 41.2109H37.9688V41.2891H38.0469V41.3672H38.125V41.4453H38.2031V41.5234H38.2812V41.6016L38.5547 41.8359L38.75 42.0703L39.0625 42.3438L39.8047 43.0859L39.9609 43.0469L40.3125 42.6562L40.7422 42.1875L41.0156 41.9141V41.8359H41.0938L41.3672 41.5234L41.9922 40.8594L42.0312 40.7422H42.1094L42.3828 40.4297L42.9688 39.8047L43.2422 39.4922L43.1641 39.3359L40.6641 36.8359L40.5859 36.7188H40.4297ZM48.125 37.7734L47.7734 38.125L47.5 38.4375L47.4219 38.5938H47.3438L47.0703 38.9062L46.6406 39.375L46.7188 39.5312L47.0312 39.8047L52.8906 45.6641L53.0469 45.625L53.7109 44.9609L54.1016 44.4531L54.4141 44.0625L54.3359 43.9062L54.0234 43.6328L53.6328 43.2422L53.3984 42.9688H53.3203L53.2422 42.8125L51.6797 41.25H51.6016L51.5234 41.0938H51.4453L51.3672 40.9375H51.2891L51.2109 40.7812H51.1328L51.0547 40.625H50.9766L50.8984 40.4688H50.8203L50.7422 40.3125H50.6641L50.5859 40.1562H50.5078L50.4297 40H50.3516L50.2734 39.8438H50.1953L50.1172 39.6875H50.0391L49.9609 39.5312H49.8828L49.8047 39.375H49.7266L49.6484 39.2188H49.5703L49.4922 39.0625L48.5547 38.125H48.4766V38.0469H48.3984L48.3203 37.8906L48.125 37.7734ZM56.1328 45.7812L55.7812 46.1719L55.4297 46.6016L55.0781 46.9922L54.8047 47.2656L54.6875 47.3438L54.7266 47.5L66.4844 59.2578L66.6406 59.1797L68.0078 57.8125L68.0859 57.7734L68.0078 57.5781H67.9297V57.5L67.6953 57.3047L67.6172 57.1875H67.5391L67.4609 57.0312L56.2109 45.7812H56.1328ZM18.3203 56.6406L17.7734 57.6953L17.1875 58.7891L16.6016 59.9219L16.25 60.5469L15.9375 61.1719L15.2734 62.4219L14.9219 63.0859L14.9609 63.2422L16.7578 65.0391L16.9531 65L17.9297 64.4922L18.7891 64.0234L19.9219 63.4375L20.7812 62.9688L21.5625 62.5781L22.4219 62.1094L23.2422 61.6797V61.5234L22.9297 61.2109L22.6562 60.8984L22.4609 60.7422L22.2266 60.4688L21.9922 60.2734L21.7578 60L21.4453 59.7266L18.3594 56.6406H18.3203ZM69.7656 59.4531L69.4922 59.6875L69.2188 60L68.2422 60.9766L68.2812 61.0938L68.5938 61.3672L71.0156 63.7891L71.1719 63.7109L72.6172 62.2656L72.5391 62.1094H72.4609V62.0312L72.2266 61.8359L72.1484 61.7188H72.0703L71.9922 61.5625L69.8828 59.4531H69.7656ZM13.3594 65.1172L11.9922 66.4844V66.5625L11.8359 66.6406V66.7188L11.6797 66.7969V66.875L11.5234 66.9531V67.0312L11.3672 67.1094V67.1875L11.2109 67.2656V67.3438L11.0547 67.4219V67.5L10.8984 67.5781V67.6562L10.7422 67.7344V67.8125L10.5859 67.8906V67.9688L10.4297 68.0469V68.125L10.2734 68.2031V68.2812L10.1172 68.3594V68.4375L9.96094 68.5156V68.5938L9.80469 68.6719V68.75L9.64844 68.8281V68.9062H9.57031V68.9844H9.49219V69.0625L9.33594 69.1406V69.2188L9.17969 69.2969V69.375H9.10156L8.86719 69.6484L8.55469 69.9219V70L8.39844 70.0781L8.35938 70.2344L9.72656 71.6016L9.88281 71.5625L14.2188 67.2266V67.1484L14.375 67.0703V66.9922L14.5312 66.9141L14.8438 66.6016L14.7656 66.4062L13.5156 65.1562L13.3594 65.1172Z" fill="black"/>
<path d="M29.9609 42.0312H30.3125L30.9375 42.1484L31.4844 42.4219L31.875 42.7344L32.1875 43.0859L32.3828 43.4766L32.4609 43.9453L32.3828 44.2578L32.2266 44.5703L31.9531 44.8438L31.6406 45L31.2891 45.0781L30.9375 45.0391L30.5859 44.8828L30.2734 44.6094V44.5312L30.0781 44.4922L29.6484 44.7266L28.75 45.3125L27.9688 45.7812L27.1094 46.3281L26.3672 46.7969L25.4297 47.3828L24.6875 47.8516L23.9844 48.2812L23.5156 48.5156L23.1641 48.6328L22.7344 48.7109H22.3438L21.7578 48.5938L21.1328 48.2812L20.7422 47.9297L20.4688 47.6172L20.2734 47.2266L20.2344 47.0703V46.6797L20.3906 46.25L20.7031 45.8984L20.9766 45.7422L21.25 45.6641H21.6016L22.0312 45.8203L22.3438 46.0547L22.5 46.2109V46.2891L22.9297 46.0547L23.75 45.5469L25.2344 44.6094L26.1719 44.0234L27.6562 43.0859L28.4766 42.5781L29.0234 42.2656L29.5703 42.0703L29.9609 42.0312Z" fill="black"/>
<path d="M35.8203 47.5391H36.3672L36.7578 47.6953L37.1875 48.0469L37.4609 48.3594L37.7344 48.8281L37.8906 49.3359L37.9297 49.5703V50.1562L37.7734 50.7422L37.4609 51.3672L36.5234 52.8516L36.2109 53.3594L35.2734 54.8438L34.6875 55.7812L34.2188 56.5234L33.9062 57.0312L33.7109 57.3438L33.7891 57.5391L34.0625 57.7734L34.2578 58.2031L34.2969 58.3984V58.6719L34.1797 59.0234L33.9844 59.3359L33.7109 59.5703L33.3594 59.6875L32.8906 59.7266L32.4609 59.5703L32.0703 59.2578L31.7969 58.9844L31.5234 58.5547L31.2891 57.9297L31.25 57.6953V57.1875L31.3672 56.6406L31.5625 56.1719L31.7969 55.7812L32.9688 53.9062L34.375 51.6797L35 50.6641L35.4297 50L35.4688 49.8047L35.4297 49.6875L35.2734 49.6094L35.0391 49.2969L34.9219 49.0625L34.8828 48.5547L35.0391 48.125L35.3906 47.7344L35.7031 47.5781L35.8203 47.5391Z" fill="black"/>
</g>
<defs>
<clipPath id="clip0_223_62">
<rect width="80" height="80" fill="white"/>
</clipPath>
</defs>
</svg>
