<svg width="24" height="24" viewBox="0 0 24 24" fill="none" xmlns="http://www.w3.org/2000/svg">
<path d="M17.1429 12.878L12.4 8.13659C11.8095 7.55122 11.3095 6.90244 10.9 6.19024C10.4905 5.47805 10.2857 4.70244 10.2857 3.86341C10.2857 2.79024 10.6524 1.87805 11.3857 1.12683C12.119 0.37561 13.0095 0 14.0571 0C14.6667 0 15.2381 0.131707 15.7714 0.395122C16.3048 0.658537 16.7619 1.01463 17.1429 1.46341C17.5238 1.01463 17.981 0.658537 18.5143 0.395122C19.0476 0.131707 19.619 0 20.2286 0C21.2762 0 22.1667 0.37561 22.9 1.12683C23.6333 1.87805 24 2.79024 24 3.86341C24 4.70244 23.8 5.47805 23.4 6.19024C23 6.90244 22.5048 7.55122 21.9143 8.13659L17.1429 12.878ZM17.1429 9.6L20.2571 6.46829C20.619 6.09756 20.9524 5.70244 21.2571 5.28293C21.5619 4.86341 21.7143 4.39024 21.7143 3.86341C21.7143 3.43415 21.5714 3.07317 21.2857 2.78049C21 2.4878 20.6476 2.34146 20.2286 2.34146C19.9619 2.34146 19.7095 2.39512 19.4714 2.50244C19.2333 2.60976 19.0286 2.77073 18.8571 2.98537L17.1429 5.09268L15.4286 2.98537C15.2571 2.77073 15.0524 2.60976 14.8143 2.50244C14.5762 2.39512 14.3238 2.34146 14.0571 2.34146C13.6381 2.34146 13.2857 2.4878 13 2.78049C12.7143 3.07317 12.5714 3.43415 12.5714 3.86341C12.5714 4.39024 12.7238 4.86341 13.0286 5.28293C13.3333 5.70244 13.6667 6.09756 14.0286 6.46829L17.1429 9.6ZM6.85714 19.3171L14.8 21.5415L21.6 19.3756C21.5048 19.2 21.3667 19.0488 21.1857 18.922C21.0048 18.7951 20.8 18.7317 20.5714 18.7317H14.8C14.2857 18.7317 13.8762 18.7122 13.5714 18.6732C13.2667 18.6341 12.9524 18.5561 12.6286 18.439L9.97143 17.5317L10.6 15.2488L12.9143 16.039C13.2381 16.1366 13.619 16.2146 14.0571 16.2732C14.4952 16.3317 15.1429 16.3707 16 16.3902C16 16.1756 15.9381 15.9707 15.8143 15.7756C15.6905 15.5805 15.5429 15.4537 15.3714 15.3951L8.68571 12.878H6.85714V19.3171ZM0 23.4146V10.5366H8.68571C8.81905 10.5366 8.95238 10.5512 9.08571 10.5805C9.21905 10.6098 9.34286 10.6439 9.45714 10.6829L16.1714 13.2293C16.8 13.4634 17.3095 13.8732 17.7 14.4585C18.0905 15.0439 18.2857 15.6878 18.2857 16.3902H20.5714C21.5238 16.3902 22.3333 16.7122 23 17.3561C23.6667 18 24 18.8488 24 19.9024V21.0732L14.8571 24L6.85714 21.7171V23.4146H0ZM2.28571 21.0732H4.57143V12.878H2.28571V21.0732Z" fill="#FD47BC"/>
</svg>
