<svg width="17" height="20" viewBox="0 0 17 20" fill="none" xmlns="http://www.w3.org/2000/svg">
<path d="M1.96455 17.0968H15.3747C15.7741 17.0968 16.1159 17.2389 16.4 17.523C16.6842 17.8072 16.8263 18.149 16.8263 18.5484C16.8263 18.9478 16.6842 19.2896 16.4 19.5737C16.1159 19.8579 15.7741 20 15.3747 20H1.96455C1.56517 20 1.22338 19.8579 0.939207 19.5737C0.655029 19.2896 0.512939 18.9478 0.512939 18.5484C0.512939 18.149 0.655029 17.8072 0.939207 17.523C1.22338 17.2389 1.56517 17.0968 1.96455 17.0968ZM8.66962 14.3779C8.45457 14.3779 8.25103 14.3356 8.05902 14.2512C7.86701 14.1667 7.6942 14.0323 7.54059 13.8479L2.40234 7.41935C2.01832 6.94316 1.95687 6.43241 2.21801 5.8871C2.47915 5.34178 2.91693 5.06912 3.53137 5.06912H4.84474V1.45161C4.84474 1.05223 4.98683 0.710445 5.271 0.426267C5.55518 0.142089 5.89696 0 6.29635 0H11.0429C11.4423 0 11.7841 0.142089 12.0682 0.426267C12.3524 0.710445 12.4945 1.05223 12.4945 1.45161V5.06912H13.8079C14.4223 5.06912 14.8601 5.34178 15.1212 5.8871C15.3824 6.43241 15.3209 6.94316 14.9369 7.41935L9.79865 13.8479C9.64504 14.0323 9.47223 14.1667 9.28022 14.2512C9.08821 14.3356 8.88468 14.3779 8.66962 14.3779Z" fill="#020202"/>
</svg>
