<svg width="25" height="24" viewBox="0 0 25 24" fill="none" xmlns="http://www.w3.org/2000/svg">
<path d="M12.4989 5.19138C13.8514 5.18876 15.2024 5.27297 16.5406 5.44334L15.8643 6.36326C14.7516 6.24366 13.6314 6.1843 12.5102 6.18553C11.557 6.18519 10.6045 6.22757 9.65639 6.31248L8.96211 5.38279C10.1388 5.25237 11.3239 5.18713 12.5102 5.18748L12.4989 5.19138ZM15.3346 8.84568C14.9637 8.8462 14.6033 8.95255 14.309 9.14829C14.0148 9.34404 13.8032 9.61828 13.7069 9.92866C13.6106 10.239 13.6349 10.5683 13.7761 10.8655C13.9173 11.1627 14.1675 11.4113 14.4881 11.573C14.8087 11.7346 15.1819 11.8003 15.5498 11.7598C15.9178 11.7194 16.2602 11.575 16.5241 11.3491C16.7879 11.1232 16.9585 10.8283 17.0096 10.51C17.0607 10.1916 16.9893 9.86756 16.8066 9.58787L22.9785 2.40623C23.693 1.31638 22.0475 0.572244 21.2901 1.4824L15.7584 8.8906C15.6198 8.86065 15.4775 8.84557 15.3346 8.84568ZM9.39716 7.77146C9.76867 7.7694 10.1306 7.87356 10.4268 8.06782C10.7231 8.26207 10.9371 8.53556 11.0358 8.84591C11.1344 9.15626 11.1121 9.48614 10.9724 9.78441C10.8327 10.0827 10.5834 10.3327 10.263 10.4957C9.9427 10.6588 9.56923 10.7257 9.20053 10.6861C8.83183 10.6466 8.48848 10.5028 8.22369 10.277C7.95891 10.0512 7.78747 9.75598 7.73595 9.43719C7.68443 9.1184 7.7557 8.79378 7.93872 8.51365L1.75332 1.33201C1.03875 0.242166 2.68429 -0.500022 3.44168 0.408181L8.97563 7.81248C9.11319 7.78104 9.2549 7.76529 9.39716 7.7656V7.77146ZM5.26529 15.4863H5.31714V13.2988C4.92717 13.1914 4.55749 13.0859 4.2081 12.9551C3.27039 12.6506 2.40258 12.2042 1.64512 11.6367V19.5449C2.09595 20.6113 3.47549 21.4394 5.31714 22.0195V19.9726H5.26529C5.11521 19.9721 4.97141 19.9204 4.86507 19.8286C4.75873 19.7368 4.69843 19.6124 4.69725 19.4824V15.9785C4.69784 15.8481 4.75788 15.7232 4.86428 15.631C4.97068 15.5388 5.11482 15.4868 5.26529 15.4863ZM6.50733 15.4863H6.56143C6.7117 15.4868 6.85561 15.5389 6.96165 15.6312C7.06769 15.7234 7.12723 15.8483 7.12723 15.9785V19.4824C7.12663 19.6123 7.06683 19.7367 6.96085 19.8285C6.85488 19.9203 6.71131 19.9721 6.56143 19.9726H6.50733V22.2168C6.50779 22.2595 6.5025 22.3021 6.49156 22.3437L6.62906 22.375C8.34694 22.7547 10.1088 22.965 11.8812 23.0019V20.7168H11.8519C11.7015 20.7163 11.5573 20.6642 11.4509 20.5721C11.3445 20.4799 11.2845 20.355 11.2839 20.2246V16.7226C11.2845 16.5923 11.3445 16.4674 11.4509 16.3752C11.5573 16.283 11.7015 16.231 11.8519 16.2304H11.8812V14.1543C10.0715 14.1297 8.27005 13.9378 6.50733 13.582V15.4863ZM18.4386 15.4863H18.4927V13.582C16.7314 13.9374 14.9315 14.1292 13.1233 14.1543V16.2304H13.1526C13.3029 16.231 13.4468 16.283 13.5528 16.3753C13.6588 16.4675 13.7184 16.5924 13.7184 16.7226V20.2246C13.7184 20.3548 13.6588 20.4797 13.5528 20.5719C13.4468 20.6642 13.3029 20.7163 13.1526 20.7168H13.1233V23.0097H13.1706C14.9792 22.995 16.7793 22.7944 18.5333 22.4121C18.5057 22.3498 18.492 22.2835 18.4927 22.2168V19.9726H18.4386C18.2885 19.9721 18.1447 19.9204 18.0384 19.8286C17.932 19.7368 17.8717 19.6124 17.8705 19.4824V15.9785C17.8711 15.8481 17.9312 15.7232 18.0376 15.631C18.144 15.5388 18.2881 15.4868 18.4386 15.4863ZM19.6806 15.4863H19.7347C19.885 15.4868 20.0289 15.5389 20.1349 15.6312C20.241 15.7234 20.3005 15.8483 20.3005 15.9785V19.4824C20.2999 19.6123 20.2401 19.7367 20.1341 19.8285C20.0282 19.9203 19.8846 19.9721 19.7347 19.9726H19.6806V22.1074C21.5809 21.5215 22.9694 20.6758 23.3526 19.5683V11.6367C22.5947 12.2046 21.726 12.651 20.7874 12.9551C20.438 13.0781 20.0661 13.1914 19.6761 13.2988V15.4863H19.6806ZM24.4978 9.7656V19.6308C24.4971 19.6736 24.4911 19.7162 24.4797 19.7578C24.0018 21.3086 22.2256 22.4238 19.8204 23.1172C17.8976 23.6738 15.5578 23.9668 13.1841 24.0019C10.8788 24.0489 8.57675 23.8256 6.34053 23.3379C3.47324 22.6738 1.23035 21.5078 0.554108 19.832C0.522203 19.7706 0.505318 19.7041 0.504517 19.6367V9.7656C0.504517 9.73826 0.504517 9.70896 0.504517 9.68162C0.504517 8.3574 1.92238 7.20115 4.2126 6.40232H4.22838L4.93844 7.22654L4.63864 7.3281C2.78798 7.96092 1.64737 8.78904 1.64737 9.67576C1.64737 10.5625 2.78798 11.3906 4.63413 12.0351C6.63582 12.7344 9.4152 13.166 12.4989 13.166C13.2134 13.166 13.9122 13.1426 14.5885 13.0976C15.3617 13.0488 16.1145 12.9687 16.881 12.8554C18.0726 12.6887 19.2407 12.4137 20.3659 12.0351C22.2098 11.3906 23.3504 10.5547 23.3504 9.67576C23.3504 8.83006 22.2954 8.02342 20.571 7.3906L21.2743 6.5742C23.2783 7.35545 24.5 8.44724 24.5 9.67576C24.5 9.7031 24.5 9.7324 24.5 9.75974L24.4978 9.7656Z" fill="black"/>
</svg>
