<svg width="24" height="24" viewBox="0 0 24 24" fill="none" xmlns="http://www.w3.org/2000/svg">
<path d="M2.66667 21.3333H4.56667L17.6 8.3L15.7 6.4L2.66667 19.4333V21.3333ZM0 24V18.3333L17.6 0.766667C17.8667 0.522222 18.1611 0.333333 18.4833 0.2C18.8056 0.0666667 19.1444 0 19.5 0C19.8556 0 20.2 0.0666667 20.5333 0.2C20.8667 0.333333 21.1556 0.533333 21.4 0.8L23.2333 2.66667C23.5 2.91111 23.6944 3.2 23.8167 3.53333C23.9389 3.86667 24 4.2 24 4.53333C24 4.88889 23.9389 5.22778 23.8167 5.55C23.6944 5.87222 23.5 6.16667 23.2333 6.43333L5.66667 24H0ZM16.6333 7.36667L15.7 6.4L17.6 8.3L16.6333 7.36667Z" fill="black" fill-opacity="0.8"/>
</svg>
