<svg width="23" height="20" viewBox="0 0 23 20" fill="none" xmlns="http://www.w3.org/2000/svg">
<path d="M11.2176 20C10.8204 20 10.4318 19.9266 10.0518 19.7798C9.67185 19.633 9.32642 19.4128 9.01554 19.1192L7.17617 17.4352C5.37997 15.8117 3.73489 14.1451 2.24093 12.4352C0.746978 10.7254 0 8.78238 0 6.60622C0 4.72366 0.621762 3.15199 1.86529 1.89119C3.10881 0.630397 4.67185 0 6.5544 0C7.43523 0 8.27288 0.15544 9.06736 0.466321C9.86183 0.777202 10.5786 1.23489 11.2176 1.83938C11.8566 1.23489 12.5734 0.777202 13.3679 0.466321C14.1623 0.15544 15 0 15.8808 0C17.7634 0 19.3394 0.630397 20.6088 1.89119C21.8782 3.15199 22.513 4.72366 22.513 6.60622C22.513 8.78238 21.7573 10.7297 20.2461 12.4482C18.7349 14.1667 17.0639 15.8463 15.2332 17.487L13.4456 19.1451C13.1347 19.4387 12.785 19.6546 12.3964 19.7927C12.0078 19.9309 11.6149 20 11.2176 20Z" fill="#020202"/>
</svg>
