<svg width="25" height="24" viewBox="0 0 25 24" fill="none" xmlns="http://www.w3.org/2000/svg">
<path d="M8.26349 24C7.86838 24 7.52141 23.816 7.22256 23.4479C6.92371 23.0799 6.77429 22.6526 6.77429 22.166V19.8809C6.77429 19.5503 6.86705 19.2733 7.05257 19.05C7.23809 18.8269 7.46081 18.7153 7.72071 18.7153H10.6666V13.1781C9.87904 13.3317 9.08477 13.2779 8.28384 13.0168C7.48268 12.7555 6.7674 12.315 6.13798 11.6953C6.0264 11.587 5.94043 11.4547 5.88005 11.2984C5.81988 11.1424 5.7898 10.9752 5.7898 10.7968V8.90988H4.3787C4.26056 8.90988 4.14559 8.88293 4.0338 8.82905C3.92201 8.77516 3.81612 8.6814 3.71614 8.54776L0.786302 4.93951C0.577809 4.68274 0.483189 4.37775 0.502441 4.02452C0.521912 3.67102 0.647708 3.39176 0.879828 3.18672C1.5716 2.57942 2.35372 2.10212 3.22619 1.75482C4.09889 1.40779 4.95845 1.23427 5.8049 1.23427C6.56951 1.23427 7.39222 1.38812 8.27301 1.69581C9.15358 2.0035 9.95145 2.49212 10.6666 3.16166V2.44025C10.6666 1.76344 10.8574 1.18753 11.2389 0.712515C11.6205 0.237505 12.0903 0 12.6484 0H22.6127C23.1249 0 23.5675 0.230367 23.9405 0.691097C24.3135 1.15156 24.5 1.69837 24.5 2.33154V20.3938C24.5 21.3963 24.2155 22.248 23.6464 22.9488C23.0774 23.6496 22.39 24 21.5843 24H8.26349ZM12.1562 18.7153H19.2241C19.4779 18.7153 19.6949 18.8264 19.8752 19.0484C20.0555 19.2704 20.1456 19.5375 20.1456 19.8498V20.3938C20.1456 20.9119 20.2803 21.3368 20.5496 21.6685C20.8187 22.0001 21.1636 22.166 21.5843 22.166C21.9967 22.166 22.3375 22.0001 22.6068 21.6685C22.8759 21.3368 23.0105 20.9119 23.0105 20.3938V2.33154C23.0105 2.18658 22.9726 2.06749 22.8969 1.97427C22.8212 1.88078 22.7245 1.83403 22.6068 1.83403H12.5598C12.4421 1.83403 12.3454 1.88078 12.2697 1.97427C12.194 2.06749 12.1562 2.18658 12.1562 2.33154V4.58871L19.4916 13.6384C19.6285 13.7928 19.7049 13.9584 19.7206 14.1351C19.7364 14.3119 19.7206 14.4826 19.6734 14.6472C19.6263 14.8118 19.5423 14.9496 19.4214 15.0606C19.3004 15.1716 19.1547 15.2271 18.9842 15.2271C18.8749 15.2271 18.7763 15.2071 18.6886 15.1669C18.6008 15.1268 18.516 15.0567 18.4339 14.9568L14.4937 10.1191L13.7717 11.083C13.5125 11.4456 13.2554 11.7269 13.0005 11.9268C12.7454 12.127 12.464 12.3162 12.1562 12.4943V18.7153ZM4.6688 7.07585H6.33225C6.59238 7.07585 6.8152 7.18739 7.00072 7.41048C7.18624 7.63384 7.279 7.91082 7.279 8.24141V10.4707C7.70146 10.8083 8.10729 11.0539 8.49649 11.2075C8.88569 11.3608 9.27762 11.4374 9.67229 11.4374C10.2494 11.4374 10.8224 11.2607 11.3912 10.9072C11.96 10.554 12.401 10.168 12.714 9.74929L13.4232 8.80116L11.0453 5.87269C10.3282 4.97925 9.52561 4.28856 8.6376 3.80062C7.74981 3.31241 6.80557 3.0683 5.8049 3.0683C5.15535 3.0683 4.54781 3.17661 3.98228 3.39324C3.41675 3.60986 2.87823 3.88711 2.36673 4.22498L4.6688 7.07585ZM18.6561 20.5494H8.26349V22.166H19.1408C18.9927 21.9938 18.8749 21.7647 18.7873 21.4785C18.6998 21.1924 18.6561 20.8827 18.6561 20.5494Z" fill="#020202"/>
</svg>
