<svg width="80" height="80" viewBox="0 0 80 80" fill="none" xmlns="http://www.w3.org/2000/svg">
<path d="M74.2578 0H75.8984L76.0156 0.078125L76.5234 0.273438L77.0703 0.546875L77.6172 0.976562L78.0078 1.40625L78.3594 1.95312L78.5547 2.38281L78.7109 2.89062L78.7891 3.39844V4.02344L78.7109 4.57031L78.5156 5.15625L78.2031 5.78125L77.8516 6.21094L77.5 6.60156L73.6328 10.4688L73.5547 10.5078L73.6328 10.6641L74.0625 11.2109L74.375 11.875L74.4922 12.3047L74.5312 12.5781V13.5156L74.3359 14.2578L73.9844 14.9219L73.6719 15.3125L73.3984 15.625H73.3203V15.7031H73.2422V15.7812L72.9688 16.0156L72.7734 16.25L72.5 16.4844L72.4609 16.5625H72.3828L72.3047 16.7188L68.8672 20.1562H68.7891V20.2344H68.7109V20.3125H68.6328V20.3906H68.5547V20.4688H68.4766V20.5469H68.3984V20.625H68.3203V20.7031H68.2422V20.7812L67.9688 21.0156L67.7734 21.25L67.5 21.4844L67.3047 21.7188H67.2266V21.7969H67.1484V21.875L66.875 22.1094L66.6797 22.3438L66.3672 22.6172L65.9766 22.8125L65.8203 22.8516H65.3906L65 22.6953L64.6875 22.4219L64.4922 22.0703L64.4141 21.7969L64.4531 21.3672L64.6875 20.8984L71.9141 13.6719L72.1094 13.2812V12.7734L71.875 12.3047L68.3203 8.75L68.2422 8.71094V8.63281L67.9297 8.90625L67.6562 9.21875L67.3828 9.45312L67.1875 9.6875L66.9141 9.92188L66.6797 10.1953H66.6016L66.5234 10.3516H66.4453L66.3672 10.5078H66.2891L66.2109 10.6641H66.1328L66.0547 10.8203H65.9766L65.9375 10.9375L65.7031 11.1328L65.4688 11.4062L65.1953 11.6406L65 11.875L64.7266 12.1094L64.5312 12.3438L64.2969 12.5391L64.5312 12.8125L66.25 14.5312L66.4844 14.8828L66.5625 15.1172V15.625L66.3672 16.0547L66.2109 16.25L65.8203 16.4844L65.5078 16.5625H65.1953L64.7656 16.4062L64.2969 15.9766L62.6172 14.2969L62.4609 14.375L62.0703 14.7656L61.875 15L61.6016 15.2344L61.4062 15.4688L61.1328 15.7031L60.9375 15.9375L60.6641 16.1719L60.4688 16.4062L60.1953 16.6406L60 16.875L59.7656 17.0703L59.5312 17.3438L59.2969 17.5391L59.0625 17.8125L58.8281 18.0078L58.5938 18.2812L58.3594 18.4766L58.125 18.75L57.8906 18.9453L57.6562 19.2188L57.4219 19.4141L57.1875 19.6875L56.9141 19.9219L56.7188 20.1562L56.4844 20.3516L56.25 20.625L55.9766 20.8594L55.7812 21.0938L55.5078 21.3281L55.3125 21.5625L55.0781 21.7578L54.8438 22.0312L54.6094 22.2266L54.375 22.5L54.1016 22.7344L53.9062 22.9688L53.6328 23.2031L53.4375 23.4375L53.2422 23.6328H53.1641L53.0859 23.7891L52.8516 23.9844L52.6562 24.2188L52.3828 24.4531L52.1875 24.6484L52.0703 24.8047L52.1094 25L52.3047 25.625L52.3828 26.0547V26.9141L52.2656 27.5391L52.0703 28.0859L52.1094 28.2422L54.6484 30.7812L54.7656 30.8203L60.9766 24.6094L61.2891 24.4141L61.6406 24.3359L62.0703 24.375L62.4219 24.5312L62.6562 24.7266L62.8906 25.1172L62.9688 25.4297L62.9297 25.8594L62.6953 26.2891L62.4609 26.5625L62.1484 26.8359L61.4062 27.5781L61.2109 27.8125L61.0547 27.9688H60.9766V28.0469H60.8984V28.125L60.7422 28.2812H60.6641V28.3594H60.5859V28.4375H60.5078L60.4297 28.5938L59.4141 29.6094H59.3359V29.6875L59.0625 29.9219L58.8672 30.1562L58.5938 30.3906L58.3984 30.625L58.125 30.8594L57.9297 31.0938H57.8516V31.1719H57.7734V31.25L57.5 31.4844L57.4609 31.5625H57.3828L57.3047 31.7188L57.1484 31.875H57.0703V31.9531H56.9922V32.0312L56.7188 32.2656L56.5234 32.4609L56.4453 32.5781L57.5 33.6328L57.8906 34.1406L58.2031 34.7266L58.3984 35.3516L58.4766 35.8203V36.4453L58.3984 37.0312L58.2031 37.6172L57.8906 38.2031L57.6172 38.5547L57.2656 38.9453L39.2578 56.9531L38.8672 57.2656L38.4766 57.5L37.8906 57.7344L37.2656 57.8906L36.9141 57.9297H36.5625L35.9375 57.8516L35.2344 57.6172L34.6094 57.2656L34.0625 56.7969L33.1641 55.8984L32.9688 56.0156L32.0312 56.9531L31.8359 57.1875L31.5625 57.4219L31.5234 57.5H31.4453L31.3672 57.6562L30.6641 58.3594L30.3906 58.6719L30.0781 58.9844L29.8438 59.2969H29.7656L29.6875 59.4531L29.2969 59.8828L28.9844 60.2734L28.4766 60.8984L28.0859 61.4062L27.6172 62.0312L27.1484 62.6953L26.2891 63.9844L25.8203 64.7266L25.5859 65.1172L25.1562 65.8594L24.7656 66.5625L24.1797 67.6953L23.5547 68.9844L23.2031 69.8047L22.6953 71.0547L22.1484 72.4219L22.1094 72.6562L22.3828 72.9688L23.5156 74.1016V74.1797H23.5938L23.9062 74.6875L24.0625 75.1172L24.1406 75.5859L24.1016 76.1719L23.9453 76.7188L23.6719 77.1875L23.4375 77.5H23.3594L23.2812 77.6562L21.6797 79.2578L21.2891 79.5703L20.8203 79.8438L20.3906 80H19.2969L18.8281 79.8047L18.3984 79.5312L18.0078 79.1797L1.71875 62.8906L1.44531 62.4609L1.25 61.875L1.21094 61.6406V61.0547L1.36719 60.4297L1.5625 60.0391L1.91406 59.6094L3.90625 57.6172L4.33594 57.3438L4.84375 57.1484L5.07812 57.1094H5.89844L6.40625 57.2656L6.83594 57.5L7.1875 57.7734L8.51562 59.1016L8.63281 59.1406L9.17969 58.9062L10.2734 58.4766L11.6797 57.8906L12.7734 57.3828L13.75 56.9141L14.9609 56.2891L15.625 55.8984L16.3281 55.5078L16.6016 55.4297H17.0703L17.4609 55.5859L17.7344 55.8203L17.9688 56.2109L18.0078 56.3672V56.875L17.8516 57.2656L17.6562 57.5L17.1094 57.8516L15.9766 58.4766L15.1172 58.9453L14.4922 59.2578L13.3594 59.8047L12.1875 60.3125L10.7422 60.8984L10.4297 60.9766L10.7031 61.2891L11.4062 61.9922L11.6406 62.4609L11.6797 62.8125L11.6016 63.1641L11.3672 63.5547L11.1328 63.75L10.7812 63.9062L10.2734 63.9453L9.88281 63.7891L9.57031 63.5547L5.54688 59.5312L5.35156 59.5703L3.63281 61.2891L3.67188 61.4453L19.8047 77.5781L19.9609 77.6172L20.0391 77.4609L21.7188 75.7812L21.6016 75.5859L13.3984 67.3828L13.2031 67.0312L13.125 66.7969V66.4453L13.2812 66.0156L13.5547 65.7031L13.8281 65.5078L14.1016 65.4297H14.5312L14.8828 65.5469L15.2344 65.8203L19.9219 70.5078L20.1953 70.7422L20.3906 70.3125L20.8203 69.2188L21.3281 68.0469L21.9531 66.7188L22.6953 65.2734L23.1641 64.4531L23.6719 63.5938L24.2578 62.6562L24.9609 61.6016L25.4297 60.9375L25.9766 60.1953L26.0156 60.1172H26.0938L26.1719 59.9609L26.4844 59.5312L26.9922 58.9062L27.3438 58.4766L27.8125 57.9297L28.1641 57.5391L28.2031 57.4609H28.2812L28.3594 57.3047L28.9844 56.6406L29.0625 56.5234H29.1406L29.2188 56.3672L31.3672 54.2188L31.3281 54.0625L28.7891 51.5234L28.6719 51.4844L28.0469 51.7188L27.4609 51.8359H26.6797L25.9766 51.6797L25.4297 51.4844L25.2734 51.5625L24.5703 52.2656H24.4922V52.3438L24.1797 52.6172L24.0625 52.7344H23.9844V52.8125L23.6719 53.0859L23.1641 53.5156L22.5781 54.0234L21.9922 54.4922L21.6406 54.6484L21.4453 54.6875H21.1719L20.7812 54.5703L20.5469 54.4141L20.2734 54.1016L20.1172 53.6719V53.3203L20.2344 52.9688L20.3906 52.7344L20.5859 52.5391L20.9766 52.1875L21.4062 51.8359L21.9922 51.3281L22.4609 50.8984L22.7734 50.625L23.125 50.2734L23.4375 50L23.6719 49.7656L23.5547 49.4141L23.3594 48.6719L23.3203 48.3594V47.8906L23.4375 47.1484L23.6719 46.5234L23.8281 46.2109L24.1797 45.7031L24.7656 45.1172L25.2734 44.8047L25.8984 44.5312L26.3672 44.4141L26.6797 44.375H27.4609L28.125 44.4922L28.5938 44.6875L28.7891 44.6484L30.8203 42.6172H30.8984L30.625 41.7969L30.5469 41.4062V40.4297L30.7031 39.7266L30.9766 39.1016L31.25 38.6719L31.6016 38.2812L31.9531 37.9297L32.5781 37.5391L33.1641 37.3047L33.7109 37.1875L34.4141 37.1484L35.0781 37.2266L35.7812 37.4609L35.9375 37.5L38.0078 35.4297H38.0859L37.9688 35.0391L37.7734 34.375L37.7344 34.1016V33.3203L37.8516 32.6953L38.0859 32.0703L38.3594 31.6016L38.6328 31.25L39.1406 30.7422L39.6875 30.3906L40.2344 30.1562L40.8594 30L41.25 29.9609H41.6797L42.4219 30.0781L42.9688 30.2734L43.125 30.3125L45.2344 28.2031L45.1953 27.9297L45 27.3047L44.9219 26.7969V26.25L45.0391 25.5469L45.3125 24.8047L45.7031 24.1797H45.7812L45.8594 24.0234L46.3281 23.5547L46.875 23.2031L47.3047 23.0078L47.8125 22.8516L48.3203 22.7734H49.0234L49.6484 22.8906L50.1953 23.0859L50.3906 23.0469L72.5391 0.898438L73.125 0.46875L73.7109 0.195312L74.2188 0.0390625L74.2578 0ZM74.9609 2.34375L74.5703 2.42188L74.1797 2.65625L73.75 3.04688V3.125L73.5938 3.20312V3.28125L73.4375 3.35938V3.4375L73.2812 3.51562V3.59375L73.125 3.67188V3.75L72.9688 3.82812V3.90625L72.8125 3.98438V4.0625L72.6953 4.10156L72.4609 4.375L72.2266 4.57031L71.9922 4.84375L71.7578 5.03906L71.5625 5.27344L71.2891 5.50781L71.0547 5.78125L70.8203 5.97656L70.625 6.17188V6.25L70.4688 6.32812V6.40625L70.3125 6.48438V6.5625L70.1562 6.64062V6.71875L70 6.79688L69.8828 6.95312L71.7969 8.86719L72.1094 8.63281L72.3828 8.32031L75.3906 5.3125L75.625 5.11719L75.8984 4.80469L76.2109 4.45312L76.3672 4.10156L76.4062 3.90625V3.55469L76.2891 3.16406L76.0938 2.85156L75.8984 2.65625L75.7031 2.5L75.3516 2.38281L74.9609 2.34375ZM48.3984 25.1562L48.0078 25.3125L47.6953 25.5469L47.4609 25.8594L47.3438 26.1719L47.3047 26.3672V26.6406L47.4609 27.1484L47.7344 27.5L48.0859 27.7344L48.4766 27.8516H48.8672L49.2969 27.6953L49.6484 27.4609L49.8828 27.1094L50 26.7578V26.2109L49.8438 25.8203L49.6094 25.5078L49.2578 25.2734L48.9062 25.1562H48.3984ZM46.9531 29.8438L46.5625 30.2344V30.3125L46.4062 30.3906V30.4688L46.25 30.5469V30.625L46.0938 30.7031L45.8984 30.9375L45.6641 31.1328L45.4688 31.3281V31.4062L45.3125 31.4844V31.5625L45.1562 31.6406V31.7188L45 31.7969L44.8438 31.9922L44.8828 32.2656L45.0781 32.8516L45.1562 33.3594V34.0234L45.0781 34.5703L44.8828 35.1562L44.8438 35.4297L45.0781 35.6641H45.1562L45.2344 35.8203L46.1719 36.7578H46.25L46.3281 36.9141L47.2656 37.8516H47.3438V37.9297L47.5 38.0469L47.6562 37.9688L53.0078 32.6172L52.9688 32.4609L50.3906 29.8828L50.1172 29.9219L49.4922 30.1172L49.0625 30.1953H48.2422L47.4219 30L47.0312 29.8438H46.9531ZM41.2891 32.3438L40.8984 32.4609L40.5469 32.6953L40.3125 32.9688L40.1562 33.3203L40.1172 33.5156V33.9453L40.2734 34.375L40.4688 34.6484L40.8594 34.9219L41.2109 35.0391H41.7188L42.1484 34.8828L42.5 34.6094L42.6953 34.2969L42.8125 33.9062V33.5156L42.7344 33.2031L42.5 32.8125L42.1875 32.5391L41.8359 32.3828L41.6406 32.3438H41.2891ZM54.7266 34.2578L54.3359 34.6094L54.1797 34.7656V34.8438L54.0234 34.9219L53.7109 35.2344V35.3125L53.5547 35.3906V35.4688H53.4766V35.5469H53.3984V35.625L53.2422 35.7031V35.7812L53.0859 35.8594V35.9375H53.0078L52.8516 36.0938V36.1719H52.7734V36.25H52.6953V36.3281H52.6172V36.4062L52.4609 36.4844V36.5625L52.3047 36.6406V36.7188H52.2266L52.0703 36.875V36.9531H51.9922V37.0312L51.8359 37.1094V37.1875L51.6797 37.2656V37.3438L51.5234 37.4219V37.5L51.3672 37.5781V37.6562H51.2891L51.0938 37.8516L51.0547 37.9688L50.8984 38.0469V38.125L50.7422 38.2031V38.2812H50.6641L50.4688 38.4766L50.4297 38.5938L50.2734 38.6719V38.75L50.1172 38.8281V38.9062H50.0391V38.9844H49.9609V39.0625H49.8828L49.6484 39.3359L49.3359 39.6094L49.2188 39.7266L49.2578 39.8438L49.4531 40.0391L49.6094 40.1172V40.1953H49.6875V40.2734H49.7656V40.3516H49.8438V40.4297H49.9219V40.5078H50L50.0781 40.6641L50.8594 41.4453H50.9375V41.5234H51.0156V41.6016L51.1719 41.6797L51.5625 41.2891V41.2109H51.6406V41.1328H51.7188V41.0547H51.7969V40.9766H51.875V40.8984L52.0312 40.8203V40.7422L52.1875 40.6641L52.6562 40.1953V40.1172L52.8125 40.0391V39.9609H52.8906V39.8828H52.9688V39.8047H53.0469V39.7266H53.125V39.6484L53.2812 39.5703V39.4922L53.4375 39.4141V39.3359L53.5938 39.2578L53.75 39.1016V39.0234L53.9062 38.9453V38.8672H53.9844V38.7891H54.0625V38.7109H54.1406V38.6328H54.2188V38.5547L54.375 38.4766L54.6875 38.1641V38.0859H54.7656V38.0078H54.8438V37.9297L55 37.8516L55.3125 37.5391V37.4609L55.4688 37.3828V37.3047L55.625 37.2266V37.1484H55.7031L55.9766 36.7578L56.0938 36.3672V36.0156L56.0156 35.7031L55.7812 35.2734L54.7656 34.2578H54.7266ZM39.7656 37.0312L39.375 37.4219V37.5L39.2188 37.5781V37.6562L39.0625 37.7344V37.8125L38.9062 37.8906L38.7109 38.125L38.4766 38.3203L38.2812 38.5156V38.5938L38.125 38.6719L37.9688 38.8281V38.9062L37.8125 38.9844L37.6562 39.1797L37.6953 39.4531L37.8906 40.1172L37.9688 40.7031V41.0547L37.8906 41.7188L37.7344 42.2266L37.6172 42.5781L40.3125 45.2734L40.5859 45.0391L45.8203 39.8047L45.7422 39.6484L43.2812 37.1875L43.2031 37.0703L42.9297 37.1094L42.3047 37.3047L41.9531 37.3828L41.4062 37.4219L40.7812 37.3438L40.1953 37.1875L39.7656 37.0312ZM33.9062 39.5703L33.5156 39.7656L33.1641 40.0781L32.9688 40.4688L32.9297 40.6641V41.1719L33.0859 41.5625L33.3203 41.875L33.6328 42.1094L33.9453 42.2266H34.5703L34.9609 42.0703L35.3125 41.7969L35.5078 41.4844L35.625 41.0156L35.5859 40.5469L35.3516 40.0781L35.1953 39.8828L34.9219 39.6875L34.6094 39.5703H33.9062ZM47.5 41.4844L47.1875 41.7578L46.9922 41.9531V42.0312L46.8359 42.1094L46.6797 42.2656V42.3438L46.5234 42.4219V42.5L46.3672 42.5781V42.6562H46.2891V42.7344H46.2109L45.9375 43.0469L45.6641 43.2812V43.3594H45.5859V43.4375H45.5078L45.2344 43.75L44.8047 44.1797L44.7266 44.2188V44.2969H44.6484V44.375L44.4922 44.4531V44.5312L44.3359 44.6094V44.6875L44.1797 44.7656V44.8438L44.0234 44.9219V45L43.8672 45.0781V45.1562L43.7109 45.2344V45.3125H43.6328L43.4375 45.5078L43.3984 45.625H43.3203V45.7031H43.2422L42.9688 46.0156L42.4609 46.5234L42.1484 46.7969L42.0312 46.9141L42.1094 47.0703L43.9062 48.8672L44.0625 48.7891L44.375 48.4766V48.3984H44.4531V48.3203H44.5312V48.2422H44.6094V48.1641H44.6875V48.0859L44.8438 48.0078V47.9297L45 47.8516V47.7734L45.1562 47.6953V47.6172L45.3125 47.5391L45.625 47.2266V47.1484L45.7812 47.0703V46.9922L45.9375 46.9141V46.8359L46.0938 46.7578L47.1875 45.6641V45.5859L47.3438 45.5078L47.6562 45.1953V45.1172L47.8125 45.0391V44.9609L47.9688 44.8828V44.8047L48.125 44.7266V44.6484L48.2812 44.5703V44.4922H48.3594V44.4141H48.4375V44.3359L48.5938 44.2578V44.1797L48.75 44.1016V44.0234L48.9062 43.9453V43.8672L49.0625 43.7891L49.4141 43.4375L49.375 43.2812L47.5781 41.4844H47.5ZM32.5391 44.2578L32.1875 44.6094V44.6875L32.0312 44.7656V44.8438L31.875 44.9219V45L31.7188 45.0781V45.1562L31.6016 45.1953L31.3672 45.4688L31.25 45.5469V45.625L31.0938 45.7031V45.7812L30.9375 45.8594L30.7812 46.0156V46.0938L30.625 46.1719L30.4297 46.3672L30.5078 46.6797L30.7031 47.3438L30.7422 47.5781V48.6328L30.5859 49.2969L30.4297 49.6875L30.4688 49.8438L33.0469 52.4219L33.1641 52.4609L38.6328 46.9922L38.5938 46.875H38.5156V46.7969L38.2031 46.5234L37.9688 46.25L37.7344 46.0547L37.4609 45.7422L36.0156 44.2969L35.8203 44.2578L35.4297 44.4141L34.5703 44.6094H34.0234L33.3594 44.4922L32.7734 44.2969L32.5391 44.2578ZM26.7969 46.7578L26.4453 46.875L26.0938 47.1484L25.9375 47.3438L25.7812 47.6562L25.7422 47.8125V48.4375L25.9766 48.9062L26.1328 49.1016L26.4844 49.3359L26.7188 49.4141L27.2266 49.4531L27.6172 49.3359L28.0078 49.1016L28.2812 48.75L28.3984 48.3984V47.7734L28.2422 47.4219L28.0859 47.1875L27.8125 46.9531L27.5 46.7969L27.3438 46.7578H26.7969ZM40.3125 48.6719L40 48.9453L39.8047 49.1406V49.2188L39.6484 49.2969L39.4922 49.4531V49.5312L39.3359 49.6094V49.6875L39.1797 49.7656V49.8438H39.1016L38.8281 50.1562L38.5547 50.4297L38.4766 50.4688V50.5469H38.3984V50.625H38.3203L38.0469 50.9375L37.8516 51.0938L37.6172 51.3672L37.5391 51.4062V51.4844H37.4609V51.5625H37.3828V51.6406H37.3047V51.7188L37.1484 51.7969V51.875H37.0703V51.9531H36.9922V52.0312H36.9141L36.7578 52.1875V52.2656H36.6797V52.3438H36.6016L36.4062 52.5391L36.3672 52.6562L36.2109 52.7344V52.8125L36.0547 52.8906L35.8984 53.0859L35.8203 53.125V53.2031H35.7422V53.2812H35.6641L35.4297 53.5547L35.2734 53.6719V53.75L35.1562 53.7891L34.8438 54.1016L34.8828 54.2578L35.7812 55.1562L36.2109 55.4297L36.4453 55.5078H37.0312L37.3828 55.3516L37.6172 55.1953L38.0078 54.8438L38.2812 54.5703V54.4922L38.4375 54.4141V54.3359L38.5938 54.2578V54.1797L38.75 54.1016V54.0234L38.9062 53.9453V53.8672H38.9844V53.7891H39.0625V53.7109L39.2188 53.6328L39.5312 53.3203V53.2422L39.6875 53.1641L40 52.8516V52.7734L40.1562 52.6953V52.6172L40.3125 52.5391L40.9375 51.9141V51.8359L41.0938 51.7578V51.6797H41.1719V51.6016H41.25V51.5234L41.4062 51.4453V51.3672L41.5625 51.2891V51.2109H41.6406V51.1328H41.7188V51.0547H41.7969V50.9766L41.9531 50.8984L42.2266 50.625L42.1875 50.4688H42.1094L42.0312 50.3125L41.7578 50.0781L41.7188 50H41.6406L41.5625 49.8438L41.4062 49.6875H41.3281L41.25 49.5312L40.3906 48.6719H40.3125Z" fill="black"/>
<path d="M55.5859 24.4141H56.0547L56.4062 24.5703L56.7188 24.9219L56.7969 25.1172V25.625L56.6797 25.8984L56.4844 26.1328L56.2109 26.2891L55.9766 26.3672H55.7031L55.3516 26.25L55.0781 26.0156L54.8828 25.6641L54.8438 25.2734L55 24.8438L55.1562 24.6484L55.5078 24.4531L55.5859 24.4141Z" fill="black"/>
<path d="M61.7969 18.3203L62.1875 18.3594L62.5 18.5156L62.7734 18.8281L62.8906 19.1406V19.4531L62.7734 19.8047L62.5391 20.0781L62.1484 20.2734H61.6797L61.2891 20.0781L61.0156 19.7266L60.9375 19.4922V19.1406L61.0547 18.8281L61.25 18.5547L61.6406 18.3594L61.7969 18.3203Z" fill="black"/>
<path d="M58.7109 21.3672H59.0234L59.375 21.4844L59.6094 21.6797L59.8047 21.9922L59.8438 22.1484V22.5781L59.6484 22.9688L59.375 23.2031L58.9844 23.3203H58.7109L58.3203 23.1641L58.0078 22.8125L57.8906 22.5V22.1875L58.0469 21.7969L58.2422 21.6016L58.5547 21.4062L58.7109 21.3672Z" fill="black"/>
</svg>
