<svg width="80" height="80" viewBox="0 0 80 80" fill="none" xmlns="http://www.w3.org/2000/svg">
<path d="M46.0054 0H48.9106L48.9539 0.078125L50.3415 0.351562L51.5989 0.78125L52.2927 1.09375L53.3333 1.64062L55.8049 3.125L57.7127 4.25781L58.7534 4.88281L59.5772 5.3125L60.4878 5.625L61.2683 5.78125L62.3523 5.85938L66.9052 5.89844L67.5122 6.09375L68.6829 6.67969L69.6802 7.1875L70.851 7.77344L71.935 8.32031L72.9323 8.82812L74.103 9.41406L75.1003 9.92188L76.271 10.5078L77.2683 11.0156L78.439 11.6016L79.2195 12.0312L79.6531 12.3828L79.8699 12.6953L80 12.9688V13.8281H79.9133L79.8266 14.1016L79.523 14.4531L79.1328 14.7266L78.6992 14.8828L78.4824 14.9219H58.2764L57.1491 14.7656L56.1518 14.4922L55.1111 14.0625L53.5935 13.3984L51.5989 12.5391V45.5859L51.5122 46.2109L51.2954 46.6016L50.9485 46.9531L50.5149 47.1875L50.0379 47.3047H49.6043L49.1274 47.1875L48.7371 46.9531L48.5203 46.7578L48.3469 46.5625L48.1734 46.25L48.0867 45.8984V12.2266L48.2168 11.6016L48.5203 10.9766L48.9539 10.4297L49.1707 10.2344L49.5176 9.96094L49.9946 9.6875L50.645 9.45312L51.122 9.375H52.0325L52.4661 9.45312L53.1165 9.64844L56.8022 11.25L57.4092 11.4844L58.1897 11.6797L58.5366 11.7188L64.8239 11.7578V9.0625H62.3523L61.0081 8.98438L59.9241 8.78906L59.2737 8.63281L58.0596 8.20312L57.019 7.65625L56.3252 7.26562L53.4634 5.54688L52.336 4.88281L51.6856 4.49219L50.7751 3.98438L50.0813 3.67188L49.2141 3.39844L48.3902 3.24219L48 3.20312H46.7859L45.7886 3.32031L44.6612 3.63281L43.664 4.10156L43.0569 4.49219L42.4065 5L42.0596 5.35156L41.7127 5.74219L41.3659 6.21094L41.1057 6.64062L40.8455 7.14844L40.4986 8.16406L40.3686 9.21875V16.4062L41.0623 16.7578L41.5393 17.1094L41.8862 17.3828L42.4065 18.0078L42.71 18.5156L42.7967 18.5547H43.9675L44.878 18.5938L45.3984 18.7109L45.7886 18.9453L46.0054 19.1016L46.3089 19.5312L46.439 20V20.3516L46.3089 20.7812L46.0488 21.1719L45.6585 21.4844L45.1382 21.6797L44.5312 21.7578H42.71L42.6233 21.9531L42.3198 22.4609L41.8428 22.9688L41.4959 23.2812L40.9323 23.6328L40.3686 23.9062V28.9844L40.9756 29.2578L41.5393 29.6484L42.0163 30.0781L42.4499 30.625L42.7534 31.0938L44.8347 31.1328L45.355 31.25L45.7886 31.4844L46.0921 31.7578L46.3523 32.2266L46.439 32.5391V32.8906L46.3089 33.3203L46.0488 33.7109L45.6152 34.0625L45.1816 34.2188L44.748 34.2969H42.71L42.6233 34.5312L42.2764 35.0391L41.7561 35.625L41.2791 35.9766L40.8022 36.25L40.3686 36.4453L40.3252 41.5234L40.5854 41.6016L41.1491 41.9141L41.626 42.2656L42.0163 42.6172L42.3631 43.0469L42.71 43.5938V43.6719H44.748L45.4417 43.8281L45.8753 44.1016L46.1789 44.4141L46.3523 44.7656L46.439 45.0781V45.4297L46.3089 45.8984L46.0054 46.3281L45.6152 46.6016L45.2249 46.7578L44.8347 46.8359L42.7534 46.875L42.4065 47.4219L41.9729 47.9688H41.8862L41.7995 48.125L41.4092 48.4375L40.9756 48.7109L40.3686 49.0234L40.3252 57.4609L40.2818 58.2422L40.1084 58.9062L39.7615 59.5312L39.4146 59.9609L39.1978 60.1953L38.7209 60.5469L38.2873 60.7812L37.7669 60.9766L37.0298 61.1328L36.4228 61.1719L35.5556 61.0547L34.8618 60.8203L34.2547 60.4688L33.6911 60L32.9973 59.3359L32.607 58.9453L32.1734 58.5156L31.8699 58.2031L31.3496 57.6953L30.8726 57.2266L30.4824 56.8359L30.1789 56.5234L29.6585 56.0156L29.1816 55.5469L28.7913 55.1172L28.4011 54.7656L28.0976 54.4531L27.4905 53.8672L27.1003 53.4375L26.71 53.0859L26.4065 52.7734L25.7995 52.1875L25.4092 51.7578L25.019 51.4062L24.7154 51.0938L24.1518 50.5469L23.7615 50.1172L23.3713 49.7656L23.0678 49.4531L22.4607 48.8672L22.0705 48.4375L21.7236 48.125L21.4634 47.8516L21.3333 48.0078L20.5962 49.1406L19.9892 50.0781L19.5556 50.7422L18.9051 51.7188L18.5149 52.3438L18.168 52.8516L17.4309 53.9844L16.8672 54.8438L16.4336 55.5078L15.7398 56.5625L15.1328 57.5L14.6992 58.1641L14.0054 59.2188L13.2683 60.3516L12.1409 62.0703L11.4472 63.125L11.1003 63.6719L10.6667 64.3359L10.5799 64.4922L10.7967 64.5703L11.4472 65L12.3577 65.5469L13.0515 65.9766L14.1355 66.6406L16.0434 67.8125L19.8591 70.1562L21.7669 71.3281L23.6748 72.5L25.5827 73.6719L26.4065 74.1797L27.4472 74.8047L29.0081 75.625L30.6558 76.2109L31.393 76.4062L32.5637 76.6406L33.7778 76.7578L34.3848 76.7969H35.5122L36.5095 76.7188L37.7236 76.5234L38.8509 76.25L40.1084 75.8203L41.1057 75.3906L42.2331 74.7656L43.0569 74.2188L43.664 73.75L44.3577 73.1641L44.748 72.7734L45.2249 72.2656L45.832 71.5234L46.3523 70.7422L46.6992 70.1172L47.0461 69.4531L47.4797 68.3594L47.7398 67.4219L47.9133 66.4844L48 65.7422L48.0434 64.4141L48.0867 59.4141L48.2168 58.9844L48.4336 58.6328L48.6504 58.3984L49.1274 58.125L49.6043 58.0078H50.0813L50.5149 58.125L50.9485 58.3594L51.2954 58.7109L51.4688 58.9844L51.5556 59.2969L51.5989 59.6484V64.9219L51.5556 66.0156L51.4688 66.7969L51.252 67.9688L50.8618 69.375L50.4282 70.4688L50.0813 71.1719L49.6043 72.0703L49.084 72.8516L48.607 73.5156L48.0867 74.1406L47.6965 74.5703L47.393 74.9219H47.3062L47.2195 75.0781L46.5257 75.7422L46.0921 76.0938L45.7453 76.3672L45.2249 76.7578L44.4011 77.3047L43.664 77.7344L42.71 78.2422L41.4526 78.7891L40.1951 79.2188L39.1978 79.4922L38.0705 79.7266L36.3794 80H32.9106L32.8238 79.9219L31.3062 79.6875L30.0921 79.4141L28.7913 79.0234L27.4038 78.4766L26.2764 77.9297L25.2791 77.3438L24.6287 76.9531L23.6748 76.3672L21.7669 75.1953L21.0732 74.7656L19.8591 74.0234L17.9512 72.8516L17.2575 72.4219L15.2195 71.1719L14.5257 70.7422L13.4417 70.0781L12.4878 69.4922L10.71 68.3984L9.88618 67.8906L8.67209 67.1484L8.45529 67.0703L7.71816 67.5L7.02439 67.7734L6.28726 67.9688L5.8103 68.0469L5.02981 68.0859L4.29268 68.0078L3.46883 67.8125L2.94851 67.6172L2.47154 67.3828L1.77778 66.9141L1.17073 66.3672L0.780488 65.8594L0.433604 65.3125L0.130081 64.5312L0 63.9062V62.8125L0.216802 61.9141L0.607046 61.0938L1.21409 60.1562L1.95122 59.0234L2.51491 58.1641L3.20867 57.1094L3.9458 55.9766L4.42276 55.2734L4.55285 55.1172H4.63957L4.72629 54.9609L5.07317 54.7266L5.50678 54.5703H6.28726L6.80759 54.7656L7.24119 55.1172L7.50136 55.4688L7.63144 55.7812V56.4453L7.41463 56.9531L6.98103 57.6562L6.54743 58.3203L5.42005 60.0391L4.94309 60.7812L4.29268 61.7578L3.81572 62.5L3.59892 62.9688L3.55556 63.125V63.6328L3.729 64.0625L3.98916 64.4141L4.33604 64.6484L4.76965 64.8047L4.94309 64.8438H5.46341L5.85366 64.7266L6.20054 64.5703L6.59079 64.2188L6.93767 63.7109L7.6748 62.5781L8.06504 61.9922L8.80217 60.8594L10.1897 58.75L10.8401 57.7344L11.3604 56.9531L11.9241 56.0938L12.6179 55.0391L13.2683 54.0234L13.7886 53.2422L14.5257 52.1094L15.9133 50L16.5203 49.0625L16.9539 48.3984L18.3415 46.2891L18.9919 45.2734L19.5122 44.4922L19.9458 43.8281L20.1192 43.3594V42.7734L19.9892 42.4219L19.729 42.0312L19.3388 41.7578L18.9051 41.6016L18.7317 41.5625L18.0379 41.6016L17.4309 41.875L17.0407 42.2656L16.4336 43.2031L16 43.8672L15.4363 44.7266L14.7425 45.7812L14.1355 46.7188L13.5285 47.6172L13.1382 48.0078L12.6179 48.2422L12.2276 48.3203H11.7073L11.1436 48.125L10.71 47.7734L10.4499 47.4219L10.3198 47.1484L10.2764 46.6406L10.4065 46.1719L10.71 45.625L11.3604 44.6484L11.9675 43.7109L12.7046 42.5781L13.0949 41.9922L13.832 40.8594L14.3957 40.1172L14.7859 39.7266L15.3062 39.2969L16.0867 38.8672L16.7805 38.5938L17.4309 38.4375L17.9946 38.3594H18.9485L19.5122 38.4375L20.206 38.5938L21.2033 39.0234L21.897 39.4922L22.5474 40.0781L23.0678 40.7812L23.3713 41.3672L23.5881 42.0312L23.6748 42.5L23.7182 42.9297V43.3203L23.5881 44.1016L23.3713 44.7656L23.3279 44.9219L23.7182 45.3516L24.4119 46.0156L24.7154 46.3281L25.2358 46.8359L25.626 47.2266L26.0596 47.6562L26.3631 47.9688L26.8835 48.4766L27.2737 48.8672L27.7507 49.3359L28.5312 50.1172L29.0081 50.5859L29.3117 50.8984L30.2656 51.8359L30.6558 52.2266V52.3047H30.7425L31.0461 52.6172L31.4363 53.0078L31.9133 53.4766L32.3035 53.8672L32.7805 54.3359L33.561 55.1172L34.0379 55.5859L34.3415 55.8984L34.8618 56.4062L35.252 56.7969L35.6856 57.2266L35.9892 57.5391L36.206 57.7734L36.4228 57.9297L36.7263 57.8906L36.7696 57.3047V48.9844L36.5095 48.9062L35.9892 48.6328L35.5556 48.3203L35.0786 47.8906L34.645 47.3438L34.2981 46.6797L34.0813 46.0156L34.0379 45.7812V44.7656L34.2547 43.9453L34.5583 43.3203L34.8618 42.8906L35.2087 42.5L35.5989 42.1484L36.206 41.7578L36.7696 41.4844V36.4453L36.5095 36.3672L35.9024 36.0156L35.4255 35.6641L34.9485 35.1953L34.5583 34.6484L34.2981 34.1406L34.1247 33.6328L34.0379 33.2031V32.2266L34.2114 31.5234L34.4715 30.9375L34.8184 30.3906L35.1653 30L35.252 29.8828H35.3388V29.8047L35.8157 29.4531L36.4228 29.1016L36.6829 28.9844H36.7696V23.9453L36.0759 23.5938L35.6423 23.2812L35.3388 23.0469V22.9688H35.252L34.7751 22.4219L34.3848 21.7969L34.1247 21.0938L34.0379 20.6641V19.6875L34.168 19.1016L34.4282 18.4375L34.8184 17.8516L35.122 17.5L35.2954 17.3047L35.6423 17.0312L36.1626 16.6797L36.7696 16.3672V9.80469L36.813 8.71094L36.9431 7.8125L37.2033 6.83594L37.5068 6.01562L37.8537 5.3125L38.2439 4.64844L38.6341 4.10156L39.1545 3.47656L39.5447 3.08594L39.8482 2.77344L40.1518 2.5L40.4986 2.22656L40.9323 1.91406L41.5393 1.52344L42.4065 1.05469L43.3171 0.664062L44.1843 0.390625L45.1382 0.15625L46.0054 0ZM68.3794 10.1953V11.7578H71.4146L71.1978 11.6016L70.1572 11.0547L68.9865 10.4688L68.4661 10.1953H68.3794ZM38.3306 19.2578L37.897 19.4531L37.6802 19.6875L37.5501 20.0391V20.3125L37.7236 20.7031L38.0705 20.9766L38.2873 21.0547H38.7642L39.1545 20.8984L39.3713 20.7031L39.5447 20.3906V19.9219L39.3713 19.6094L39.0244 19.3359L38.7642 19.2578H38.3306ZM38.4173 31.7969L38.0271 31.9141L37.6802 32.2266L37.5501 32.5781V32.8516L37.7236 33.2422L38.0705 33.5156L38.5041 33.6328L38.9377 33.5547L39.3279 33.3203L39.5447 32.9688V32.4609L39.3279 32.1094L39.0678 31.9141L38.6775 31.7969H38.4173ZM38.5041 44.3359L38.1572 44.4141L37.897 44.5703L37.6802 44.8047L37.5501 45.1172V45.3906L37.7236 45.7812L37.9404 45.9766L38.1138 46.0938L38.4607 46.1719L38.8943 46.1328L39.2846 45.8984L39.5014 45.625L39.5447 45.5078V45L39.2846 44.6094L38.981 44.4141L38.5041 44.3359Z" fill="black"/>
</svg>
