<svg width="25" height="26" viewBox="0 0 25 26" fill="none" xmlns="http://www.w3.org/2000/svg">
<path d="M0.923223 24.5768C1.36695 25.0205 1.89603 25.25 2.5 25.25H22.5C23.0844 25.25 23.6061 25.0186 24.0577 24.5792C24.5131 24.1361 24.75 23.6063 24.75 23V3C24.75 2.41328 24.5111 1.89087 24.0601 1.43989C23.6091 0.98891 23.0867 0.75 22.5 0.75H2.5C1.89372 0.75 1.36394 0.986899 0.920819 1.44233C0.481446 1.8939 0.25 2.4156 0.25 3V23C0.25 23.604 0.479496 24.133 0.923223 24.5768ZM7.48333 16.25V22.75H2.75V3.25H5.81667V15C5.81667 15.3463 5.93658 15.6484 6.17756 15.8891C6.4183 16.1301 6.72038 16.25 7.06667 16.25H7.48333ZM22.25 3.25V22.75H17.5167V16.25H17.9333C18.2797 16.25 18.5818 16.1301 18.8228 15.8891C19.0636 15.6483 19.1833 15.3462 19.1833 15V3.25H22.25ZM15.6833 16.25V22.75H9.31667V16.25H9.73333C10.0797 16.25 10.3818 16.1301 10.6228 15.8891C10.8636 15.6483 10.9833 15.3462 10.9833 15V3.25H14.0167V15C14.0167 15.3463 14.1366 15.6484 14.3776 15.8891C14.6183 16.1301 14.9204 16.25 15.2667 16.25H15.6833Z" fill="#020202" stroke="#FDFDFD" stroke-width="0.5"/>
</svg>
