<svg width="80" height="80" viewBox="0 0 80 80" fill="none" xmlns="http://www.w3.org/2000/svg">
<g clip-path="url(#clip0_223_115)">
<path d="M45.4062 0.359364C45.1406 0.624989 45.0312 0.968739 44.9531 1.78124C44.75 3.89061 43.4375 5.85936 41.5156 6.89061L40.5469 7.42186L37.1562 7.46874L33.75 7.51561V6.26561V4.99999H34.6094C35.6562 4.99999 36.25 4.54686 36.25 3.74999C36.25 3.45311 36.1094 3.12499 35.8594 2.89061L35.4844 2.49999H27.5H19.5156L19.1406 2.89061C18.8906 3.12499 18.75 3.45311 18.75 3.74999C18.75 4.54686 19.3438 4.99999 20.3906 4.99999H21.25V6.24999V7.49999H17.2656H13.2812L12.7344 6.40624C12.4375 5.81249 12.0469 5.24999 11.8906 5.15624C11.7188 5.07811 10.5781 4.99999 9.29688 4.99999C7.07812 4.99999 7 5.01561 6.64062 5.39061L6.25 5.76561V11.25V16.7344L6.64062 17.1094C7 17.4844 7.07812 17.5 9.29688 17.5C10.5781 17.5 11.7188 17.4219 11.8906 17.3437C12.0469 17.25 12.4375 16.6875 12.7344 16.0937L13.2812 15H15.0938C16.4844 15 16.875 15.0469 16.8125 15.1875C16.3594 16.2969 16.2188 17.1875 16.2812 18.5781C16.375 20.2031 16.6562 21.0312 17.4844 22.0469C18.0469 22.7187 19.5156 23.5312 20.4688 23.6719C21.0625 23.7656 21.2031 23.8594 21.4062 24.2656C21.8594 25.2344 23.1406 25.2187 23.5938 24.2656C23.8281 23.7656 23.8281 23.75 25 23.75C26.1719 23.75 26.1719 23.7656 26.4062 24.2656C26.5469 24.5469 26.8281 24.8281 27.0781 24.9062C27.6875 25.125 28.3125 24.8594 28.5938 24.2656C28.8281 23.7656 28.8281 23.75 30 23.75C31.1719 23.75 31.1719 23.7656 31.4062 24.2656C31.8594 25.2187 33.1406 25.2344 33.5938 24.2656C33.7969 23.8594 33.9375 23.7656 34.5312 23.6719C35.3125 23.5469 36.4531 23.0156 37.1406 22.4375C37.3906 22.2187 37.8438 21.6094 38.125 21.0781C38.5781 20.2031 38.6562 19.9219 38.7188 18.5937C38.7812 17.1875 38.6562 16.3281 38.1719 15.1719C38.0938 15 38.3125 14.9687 39.3125 15.0312C40.3281 15.0937 40.7344 15.1875 41.5312 15.625C43.4219 16.625 44.75 18.6094 44.9531 20.7187C45.0312 21.5312 45.1406 21.875 45.4062 22.1406C45.75 22.4844 45.875 22.5 48.125 22.5C50.4219 22.5 50.5 22.4844 50.8594 22.1094L51.25 21.7344V11.25V0.765614L50.8594 0.390614C50.5 0.0156136 50.4219 -1.14441e-05 48.125 -1.14441e-05C45.875 -1.14441e-05 45.75 0.0156136 45.4062 0.359364ZM48.75 11.25V20H48.0625C47.3906 20 47.3906 20 47.2812 19.3281C47.2188 18.9687 46.8906 18.0937 46.5469 17.375C45.6562 15.5469 44.3125 14.1875 42.4375 13.2656L41.0469 12.5781L37.3906 12.5312L33.75 12.4844V11.2344V9.99999H37.1094C40.1094 9.99999 40.5781 9.96874 41.4531 9.67186C44.2656 8.73436 46.6562 6.12499 47.2344 3.35936L47.4062 2.49999H48.0781H48.75V11.25ZM26.25 6.24999V7.49999H25H23.75V6.24999V4.99999H25H26.25V6.24999ZM31.25 6.24999V7.49999H30H28.75V6.24999V4.99999H30H31.25V6.24999ZM11.0156 8.59374C11.3125 9.18749 11.7031 9.74999 11.8594 9.84374C12.0469 9.93749 13.8594 9.99999 16.7031 9.99999H21.25V11.25V12.5H16.7031C13.8594 12.5 12.0469 12.5625 11.8594 12.6562C11.7031 12.75 11.3125 13.3125 11.0156 13.9062L10.4688 15H9.60938H8.75V11.25V7.49999H9.60938H10.4688L11.0156 8.59374ZM26.25 11.25V12.5H25H23.75V11.25V9.99999H25H26.25V11.25ZM31.25 11.25V12.5H30H28.75V11.25V9.99999H30H31.25V11.25ZM21.25 18.1406V21.2812L20.75 21.1875C20.1406 21.0781 19.5938 20.7031 19.1562 20.1094C18.8125 19.6406 18.625 17.9531 18.8125 16.9531C19 16.0156 20.0938 15.0312 20.9844 15C21.2344 15 21.25 15.25 21.25 18.1406ZM26.25 18.125V21.25H25H23.75V18.125V15H25H26.25V18.125ZM31.25 18.125V21.25H30H28.75V18.125V15H30H31.25V18.125ZM35.1406 15.4375C36.0312 16.0937 36.1719 16.4687 36.1719 18.125C36.1719 19.4375 36.125 19.7344 35.8438 20.0937C35.4062 20.7031 34.8594 21.0781 34.2656 21.1875L33.75 21.2812V18.125V14.9531L34.2656 15.0625C34.5312 15.1094 34.9375 15.2812 35.1406 15.4375Z" fill="black"/>
<path d="M58.5156 0.390625C58.1875 0.703125 58.125 0.921875 58.125 1.64062V2.5H56.9531C55.9063 2.5 55.7188 2.54688 55.3906 2.89062C55.1406 3.125 55 3.45312 55 3.75C55 4.04688 55.1406 4.375 55.3906 4.60938C55.7188 4.95312 55.9063 5 56.9531 5H58.125V6.25V7.5H56.9531C55.9063 7.5 55.7188 7.54688 55.3906 7.89062C55.1406 8.125 55 8.45312 55 8.75C55 9.04688 55.1406 9.375 55.3906 9.60938C55.7188 9.95312 55.9063 10 56.9063 10L58.0469 10.0156L58.7188 12L59.375 13.9844V23.25V32.5H57.7656C56.8281 32.5 55.7813 32.5938 55.2344 32.7344C52.2188 33.5156 50 36.4062 50 39.5312C50 40.7812 50.3125 41.7188 51.3906 43.8281C52.5469 46.0781 52.8906 47.4219 52.75 49.2969C52.6875 50.3281 52.2969 52.1094 52.1094 52.3125C52.0781 52.3438 51.5469 51.9531 50.9063 51.4375C50.2813 50.9219 49.2813 50.25 48.6719 49.9531C46.5781 48.9062 46.3125 48.875 39.8906 48.7656C34.3438 48.6719 34.0625 48.6562 33.6563 48.3438C32.7813 47.7031 32.6094 47.2969 32.4844 45.6719C32.2031 42.0625 31.2813 39.3438 29.4531 36.7969C23.6094 28.6562 11.875 27.7031 4.78125 34.7812C2.29688 37.2812 0.640625 40.5625 0.171875 43.9688C0.0625 44.7812 0 50.8438 0 62.2031V79.2344L0.390625 79.6094L0.765625 80H27.5H54.2344L54.6094 79.6094L55 79.2344V74.6094V70H63.9531C71.375 70 73.0625 69.9531 73.8906 69.7656C78.125 68.7656 80.7656 64.4531 79.7656 60.1875C79.4688 58.9219 79.1563 58.3281 77.4531 55.7969C75.8125 53.3438 75.2344 52.1719 74.9219 50.6875C74.4063 48.2812 74.7188 46.5156 76.1406 43.75C77.5156 41.0625 77.7656 39.7031 77.25 37.7344C76.6406 35.3594 74.6406 33.3594 72.2656 32.7344C71.7188 32.5938 70.6719 32.5 69.7344 32.5H68.125V23.2344V13.9844L68.7813 12L69.4531 10.0156L70.5938 10C71.5938 10 71.7813 9.95312 72.1094 9.60938C72.3594 9.375 72.5 9.04688 72.5 8.75C72.5 8.45312 72.3594 8.125 72.1094 7.89062C71.7813 7.54688 71.5938 7.5 70.5469 7.5H69.375V6.25V5H70.5469C71.5938 5 71.7813 4.95312 72.1094 4.60938C72.3594 4.375 72.5 4.04688 72.5 3.75C72.5 3.45312 72.3594 3.125 72.1094 2.89062C71.7813 2.54688 71.5938 2.5 70.5469 2.5H69.375V1.64062C69.375 0.921875 69.3125 0.703125 68.9844 0.390625L68.6094 0H63.75H58.8906L58.5156 0.390625ZM66.875 6.14062C66.875 9.71875 66.875 9.79688 66.4375 11.0938L65.9844 12.4219H63.75H61.5156L61.0625 11.0938C60.625 9.79688 60.625 9.71875 60.625 6.14062V2.5H63.75H66.875V6.14062ZM65.625 28.9062V42.8125L65.2031 42.7031C64.6406 42.5469 62.8594 42.5469 62.3125 42.7031L61.875 42.8125V28.9062V15H63.75H65.625V28.9062ZM18.6719 32.7344C23.9531 33.6562 28.4063 37.8594 29.6094 43.0469C29.7344 43.5938 29.9063 44.8438 29.9844 45.8281C30.2031 48.4844 30.8594 49.6406 32.6875 50.6406L33.6719 51.1719L39.6094 51.2656C44.7969 51.3281 45.6406 51.375 46.3281 51.625C47.75 52.1406 48.875 52.8281 49.8281 53.7812L50.7656 54.7188L49.5313 56.5781C48.3281 58.3906 47.6563 59.9375 47.6563 60.875V61.25H25.0781H2.5V53.2188C2.5 44.3594 2.5625 43.5312 3.45313 41.25C4.42188 38.7188 6.4375 36.2656 8.79688 34.7188C11.6875 32.8281 15.1875 32.125 18.6719 32.7344ZM59.375 39.6094V44.2188L58.8594 44.8906C57.9063 46.1406 57.5938 47.0938 57.5781 48.75C57.5781 50.0938 57.625 50.3281 58.0625 51.25C58.9063 53.0156 60.0625 54.0781 61.8438 54.6719C63.0781 55.0938 64.4219 55.0938 65.6563 54.6719C67.4375 54.0781 68.5938 53.0156 69.4375 51.25C69.875 50.3281 69.9219 50.0938 69.9219 48.75C69.9219 47.4531 69.8594 47.1406 69.4844 46.3281C69.25 45.8125 68.8438 45.125 68.5938 44.8125L68.125 44.2344V39.6094V34.9688L69.8906 35.0312C71.9063 35.0938 72.7031 35.375 73.6719 36.3281C74.5625 37.2188 74.9219 38.1406 74.9219 39.5312C74.9219 40.6719 74.8906 40.75 73.9531 42.5C72.625 44.9688 72.2813 46.2656 72.2813 48.75C72.2813 51.9531 72.7344 53.1875 75.4531 57.3281C77.2344 60.0469 77.5781 60.9062 77.4531 62.4375C77.2969 64.375 76.1719 66.0469 74.4063 66.9062L73.3594 67.4219H63.75H54.1406L53.0938 66.9062C51.3281 66.0469 50.2031 64.375 50.0469 62.4375C49.9219 60.9062 50.2656 60.0469 52.0469 57.3281C54.7656 53.1875 55.2188 51.9531 55.2188 48.75C55.2188 46.2812 54.875 44.9844 53.5781 42.5469C52.5313 40.5938 52.3438 39.75 52.6563 38.4531C53.0156 36.9219 54.1563 35.7031 55.6563 35.2344C56.0313 35.1094 57.0156 35.0156 57.8594 35.0156L59.375 35V39.6094ZM64.9063 45.1875C66.25 45.5938 67.5 47.3125 67.5 48.75C67.5 50.6875 65.6875 52.5 63.75 52.5C61.8125 52.5 60 50.6875 60 48.75C60 47.7656 60.3594 46.9688 61.1719 46.1719C62.2656 45.0625 63.4375 44.7656 64.9063 45.1875ZM5 68.3594V72.9844L5.39063 73.3594C5.70313 73.6875 5.92188 73.75 6.64063 73.75H7.5V75.625V77.5H5H2.5V70.625V63.75H3.75H5V68.3594ZM10 67.5V71.25H8.75H7.5V67.5V63.75H8.75H10V67.5ZM15 70.625V77.5H12.5H10V75.625V73.75H10.8594C11.5781 73.75 11.7969 73.6875 12.1094 73.3594L12.5 72.9844V68.3594V63.75H13.75H15V70.625ZM20 68.3594V72.9844L20.3906 73.3594C20.7031 73.6875 20.9219 73.75 21.6406 73.75H22.5V75.625V77.5H20H17.5V70.625V63.75H18.75H20V68.3594ZM25 67.5V71.25H23.75H22.5V67.5V63.75H23.75H25V67.5ZM30 70.625V77.5H27.5H25V75.625V73.75H25.8594C26.5781 73.75 26.7969 73.6875 27.1094 73.3594L27.5 72.9844V68.3594V63.75H28.75H30V70.625ZM37.5 70.625V77.5H35H32.5V70.625V63.75H35H37.5V70.625ZM42.5 68.3594V72.9844L42.8906 73.3594C43.2031 73.6875 43.4219 73.75 44.1406 73.75H45V75.625V77.5H42.5H40V70.625V63.75H41.25H42.5V68.3594ZM47.5 67.5V71.25H46.25H45V67.5V63.75H46.25H47.5V67.5ZM52 69.1875L52.5 69.4375V73.4688V77.5H50H47.5V75.625V73.75H48.3594C49.0781 73.75 49.2969 73.6875 49.6094 73.3594C50 72.9844 50 72.9375 50 70.4062V67.8125L50.75 68.375C51.1563 68.6875 51.7188 69.0625 52 69.1875Z" fill="black"/>
<path d="M59.1406 57.8906C58.75 58.2656 58.75 58.2969 58.75 61.25C58.75 64.2031 58.75 64.2344 59.1406 64.6094L59.5156 65H63.75H67.9844L68.3594 64.6094C68.75 64.2344 68.75 64.2031 68.75 61.25C68.75 58.2969 68.75 58.2656 68.3594 57.8906L67.9844 57.5H63.75H59.5156L59.1406 57.8906ZM66.25 61.25V62.5H63.75H61.25V61.25V60H63.75H66.25V61.25Z" fill="black"/>
</g>
<defs>
<clipPath id="clip0_223_115">
<rect width="80" height="80" fill="white"/>
</clipPath>
</defs>
</svg>
