<svg width="80" height="80" viewBox="0 0 80 80" fill="none" xmlns="http://www.w3.org/2000/svg">
<g clip-path="url(#clip0_221_60)">
<mask id="path-1-inside-1_221_60" fill="white">
<path d="M6.60156 0H73.7109L73.7891 0.078125L74.8438 0.351562L75.5859 0.625L76.4453 1.09375L76.9141 1.40625L77.4609 1.875L77.7734 2.14844L78.125 2.5L78.5547 3.04688L78.8281 3.4375L79.2188 4.14062L79.4922 4.72656L79.8438 5.85938L79.9219 6.25L80 6.21094V73.6719L79.9219 73.7109L79.7266 74.5312L79.4531 75.3516L79.1406 76.0156L78.75 76.6797L78.3594 77.1875L77.8906 77.7344L77.5781 78.0469L76.7969 78.6719L76.1328 79.0625L75.2344 79.4922L74.2578 79.8047L73.75 79.9219L73.2812 80H6.36719L6.32812 79.9219L5.46875 79.7266L4.45312 79.375L3.4375 78.8281L2.96875 78.4766L2.46094 78.0469L2.07031 77.6953L1.60156 77.1484L1.17188 76.5625L0.664062 75.625L0.46875 75.1562L0.234375 74.4141L0.117188 73.9453L0 73.3984V6.5625L0.234375 5.58594L0.46875 4.80469L0.664062 4.33594L1.13281 3.47656L1.52344 2.92969L1.64062 2.77344H1.71875L1.79688 2.61719L2.26562 2.07031L2.69531 1.71875L3.28125 1.25L3.98438 0.859375L4.57031 0.546875L5.66406 0.195312L6.13281 0.078125L6.60156 0ZM7.57812 5L6.875 5.07812L6.44531 5.23438L6.05469 5.46875L5.66406 5.82031L5.39062 6.17188L5.15625 6.64062L5.03906 7.1875L5 8.47656V72.1875L5.03906 72.8516L5.15625 73.3594L5.42969 73.9062L5.85938 74.375L6.25 74.6484L6.67969 74.8438L7.1875 74.9609L17.3828 75L17.4609 74.9609V45L14.6875 44.9609L14.0625 44.8047L13.6719 44.6094L13.3203 44.3359L13.0469 44.0625L12.7344 43.5547L12.5781 43.125L12.5 42.4219L12.4609 5H7.57812ZM27.5391 5L27.5 5.74219V38.0078L27.4609 42.8516L27.3438 43.3203L27.0312 43.9453L26.6016 44.4141L26.1719 44.6875L25.6641 44.8828L25.1953 44.9609L22.5391 45L22.5 47.0312V74.9609L22.7344 75H37.3828L37.4609 74.9609V45L34.6875 44.9609L34.0625 44.8047L33.6719 44.6094L33.3203 44.3359L33.0469 44.0625L32.7344 43.5547L32.5781 43.125L32.5 42.3828L32.4609 5H27.5391ZM47.5391 5L47.5 5.74219V38.0078L47.4609 42.8516L47.3438 43.3203L47.0312 43.9453L46.6016 44.4141L46.1719 44.6875L45.6641 44.8828L45.1953 44.9609L42.5391 45L42.5 47.0312V74.9609L42.7344 75H57.3828L57.4609 74.9609V45L54.6875 44.9609L54.0625 44.8047L53.6719 44.6094L53.3203 44.3359L53.0469 44.0625L52.7344 43.5547L52.5781 43.125L52.5 42.3828L52.4609 5H47.5391ZM67.5391 5L67.5 5.74219V38.4375L67.4609 42.8516L67.3438 43.3203L67.0312 43.9453L66.6016 44.4141L66.1719 44.6875L65.6641 44.8828L65.1953 44.9609L62.5391 45L62.5 47.0312V74.9609L62.7344 75L72.7734 74.9609L73.3203 74.8438L73.8672 74.5703L74.2578 74.2578L74.6094 73.8281L74.8438 73.3203L74.9609 72.7734V7.26562L74.8828 6.79688L74.6875 6.32812L74.4531 5.9375L74.0625 5.54688L73.6328 5.27344L73.2422 5.11719L72.8906 5.03906L72.5 5H67.5391Z"/>
</mask>
<path d="M6.60156 0H73.7109L73.7891 0.078125L74.8438 0.351562L75.5859 0.625L76.4453 1.09375L76.9141 1.40625L77.4609 1.875L77.7734 2.14844L78.125 2.5L78.5547 3.04688L78.8281 3.4375L79.2188 4.14062L79.4922 4.72656L79.8438 5.85938L79.9219 6.25L80 6.21094V73.6719L79.9219 73.7109L79.7266 74.5312L79.4531 75.3516L79.1406 76.0156L78.75 76.6797L78.3594 77.1875L77.8906 77.7344L77.5781 78.0469L76.7969 78.6719L76.1328 79.0625L75.2344 79.4922L74.2578 79.8047L73.75 79.9219L73.2812 80H6.36719L6.32812 79.9219L5.46875 79.7266L4.45312 79.375L3.4375 78.8281L2.96875 78.4766L2.46094 78.0469L2.07031 77.6953L1.60156 77.1484L1.17188 76.5625L0.664062 75.625L0.46875 75.1562L0.234375 74.4141L0.117188 73.9453L0 73.3984V6.5625L0.234375 5.58594L0.46875 4.80469L0.664062 4.33594L1.13281 3.47656L1.52344 2.92969L1.64062 2.77344H1.71875L1.79688 2.61719L2.26562 2.07031L2.69531 1.71875L3.28125 1.25L3.98438 0.859375L4.57031 0.546875L5.66406 0.195312L6.13281 0.078125L6.60156 0ZM7.57812 5L6.875 5.07812L6.44531 5.23438L6.05469 5.46875L5.66406 5.82031L5.39062 6.17188L5.15625 6.64062L5.03906 7.1875L5 8.47656V72.1875L5.03906 72.8516L5.15625 73.3594L5.42969 73.9062L5.85938 74.375L6.25 74.6484L6.67969 74.8438L7.1875 74.9609L17.3828 75L17.4609 74.9609V45L14.6875 44.9609L14.0625 44.8047L13.6719 44.6094L13.3203 44.3359L13.0469 44.0625L12.7344 43.5547L12.5781 43.125L12.5 42.4219L12.4609 5H7.57812ZM27.5391 5L27.5 5.74219V38.0078L27.4609 42.8516L27.3438 43.3203L27.0312 43.9453L26.6016 44.4141L26.1719 44.6875L25.6641 44.8828L25.1953 44.9609L22.5391 45L22.5 47.0312V74.9609L22.7344 75H37.3828L37.4609 74.9609V45L34.6875 44.9609L34.0625 44.8047L33.6719 44.6094L33.3203 44.3359L33.0469 44.0625L32.7344 43.5547L32.5781 43.125L32.5 42.3828L32.4609 5H27.5391ZM47.5391 5L47.5 5.74219V38.0078L47.4609 42.8516L47.3438 43.3203L47.0312 43.9453L46.6016 44.4141L46.1719 44.6875L45.6641 44.8828L45.1953 44.9609L42.5391 45L42.5 47.0312V74.9609L42.7344 75H57.3828L57.4609 74.9609V45L54.6875 44.9609L54.0625 44.8047L53.6719 44.6094L53.3203 44.3359L53.0469 44.0625L52.7344 43.5547L52.5781 43.125L52.5 42.3828L52.4609 5H47.5391ZM67.5391 5L67.5 5.74219V38.4375L67.4609 42.8516L67.3438 43.3203L67.0312 43.9453L66.6016 44.4141L66.1719 44.6875L65.6641 44.8828L65.1953 44.9609L62.5391 45L62.5 47.0312V74.9609L62.7344 75L72.7734 74.9609L73.3203 74.8438L73.8672 74.5703L74.2578 74.2578L74.6094 73.8281L74.8438 73.3203L74.9609 72.7734V7.26562L74.8828 6.79688L74.6875 6.32812L74.4531 5.9375L74.0625 5.54688L73.6328 5.27344L73.2422 5.11719L72.8906 5.03906L72.5 5H67.5391Z" fill="#010101" stroke="white" stroke-width="2" mask="url(#path-1-inside-1_221_60)"/>
</g>
<defs>
<clipPath id="clip0_221_60">
<rect width="80" height="80" fill="white"/>
</clipPath>
</defs>
</svg>
