<svg width="64" height="64" viewBox="0 0 64 64" fill="none" xmlns="http://www.w3.org/2000/svg">
<rect x="2.5" y="2.5" width="59" height="59" rx="29.5" stroke="#020202" stroke-width="5"/>
<path d="M20 45.2962V18.7038C20 17.914 20.2881 17.2658 20.8642 16.7592C21.4398 16.2531 22.1118 16 22.8801 16C23.1249 16 23.3779 16.0327 23.6392 16.098C23.901 16.1628 24.1543 16.2605 24.399 16.3912L46.6882 29.7158C47.1257 29.996 47.4536 30.3316 47.6718 30.7225C47.8906 31.1139 48 31.5398 48 32C48 32.4602 47.8906 32.8861 47.6718 33.2775C47.4536 33.6684 47.1257 34.004 46.6882 34.2842L24.399 47.6088C24.1543 47.7395 23.901 47.8372 23.6392 47.902C23.3779 47.9673 23.1249 48 22.8801 48C22.1118 48 21.4398 47.7469 20.8642 47.2408C20.2881 46.7342 20 46.086 20 45.2962ZM24.779 42.0224L41.5667 32L24.779 21.9776V42.0224Z" fill="#020202"/>
</svg>
