<svg width="18" height="32" viewBox="0 0 18 32" fill="none" xmlns="http://www.w3.org/2000/svg">
<path d="M3.62008 16.0069L16.666 29.0528C17.01 29.3968 17.1777 29.8019 17.1691 30.2681C17.1601 30.7346 16.9836 31.1398 16.6395 31.4839C16.2952 31.828 15.8899 32 15.4238 32C14.9576 32 14.5523 31.828 14.208 31.4839L0.922663 18.225C0.60948 17.9118 0.377407 17.561 0.226444 17.1724C0.0754814 16.7839 0 16.3954 0 16.0069C0 15.6184 0.0754814 15.2298 0.226444 14.8413C0.377407 14.4528 0.60948 14.1019 0.922663 13.7888L14.208 0.50302C14.5523 0.158952 14.9621 -0.00860787 15.4372 0.000340219C15.9123 0.00928831 16.3219 0.185796 16.666 0.529864C17.01 0.873932 17.1821 1.2792 17.1821 1.74565C17.1821 2.21182 17.01 2.61693 16.666 2.961L3.62008 16.0069Z" fill="#797979"/>
</svg>
