<svg width="80" height="80" viewBox="0 0 80 80" fill="none" xmlns="http://www.w3.org/2000/svg">
<g clip-path="url(#clip0_433_24)">
<path d="M70.8594 0H73.2422L73.2812 0.078125L74.2578 0.3125L75.0781 0.625L75.625 0.898438L76.2891 1.28906L76.7969 1.67969L77.3438 2.14844L77.7344 2.5L78.0859 2.92969L78.5156 3.4375L78.9062 4.0625L79.2578 4.6875L79.4922 5.23438L79.7656 6.05469L79.9219 6.71875V6.91406H80V9.14062L79.9219 9.17969L79.7656 9.53125L79.6094 9.76562L79.3359 10.0781H79.2578L79.1797 10.2344H79.1016L79.2188 10.4297L79.4922 10.7422L79.6875 11.1328L79.7266 11.3281V11.7188L79.6094 12.1094L79.3359 12.4609L79.1406 12.6172L78.8281 12.7734L78.5938 12.8125H78.2422L77.8516 12.6953L77.4219 12.3828L77.2656 12.2266L77.1094 12.2656L76.7969 12.5781L76.6016 12.8125L76.3281 13.0469L76.0547 13.3594L75.8984 13.4375L76.0156 13.6328L76.3281 13.9844L76.4844 14.2969L76.5625 14.6484L76.5234 15L76.3672 15.3906L76.0156 15.7812L75.7031 15.9375L75.1953 16.0547L74.6875 15.8984L74.3359 15.6641L74.0234 15.3906L73.75 15.625L73.4766 15.9375L73.2422 16.1328L73.1641 16.25H73.0859V16.3281H73.0078L72.9297 16.4844H72.8516V16.5625H72.7734V16.6406H72.6953L72.8516 16.8359V16.9141L72.9688 16.9531L73.2422 17.3828L73.3594 17.8125L73.3203 18.2031L73.1641 18.5938L72.8125 18.9844L72.3828 19.1797L71.9141 19.2188L71.5625 19.1406L71.1328 18.8672L70.625 18.3594L70.3906 18.3984L66.7969 20.1953L66.4062 20.5469L66.3672 20.625H66.2891L66.2109 20.7812L65.5078 21.4844L65.4297 21.6016H65.3516L65.2734 21.7578L64.4531 22.5781L64.1797 22.8906L63.4766 23.5938L63.4375 23.6719H63.3594V23.75H63.2812L63.2031 23.9062L62.5 24.6094L62.4609 24.6875H62.3828L62.3047 24.8438L61.6016 25.5469L61.3281 25.8594L60.3906 26.7969L60.1172 27.1094L59.4141 27.8125L59.375 27.8906H59.2969L59.2188 28.0469L58.4766 28.7891L58.2031 29.1016L57.5391 29.7656L57.4609 29.8828H57.3828L57.3047 30.0391L56.3281 31.0156L56.0547 31.3281L55.5078 31.875L55.4688 31.9531H55.3906V32.0312H55.3125L55.2344 32.1875L54.4531 32.9688L54.1797 33.2812L53.5156 33.9453L53.4766 34.0234H53.3984L53.5547 34.3359L54.0625 35.0391L54.5312 35.7812L55 36.5625L55.4688 37.4609L55.8984 38.3984L56.3281 39.6094L56.6016 40.5469L56.7969 41.5625L56.875 42.1875L56.9141 42.7734V43.6719L56.8359 44.6875L56.6406 45.7422L56.3672 46.6797L56.0547 47.5L55.5859 48.4766L54.9609 49.5312L54.4922 50.1953L53.9844 50.8203L53.6328 51.2109L53.0469 51.7969L52.6562 52.1094L52.1484 52.5L51.4062 52.9688L50.7031 53.3594L49.9609 53.7109L48.3594 54.375L47.0312 54.9219L45.9766 55.4688L45.4297 55.8594L44.9609 56.2109L44.5312 56.5625L44.1406 56.9531L43.7109 57.5L43.4766 57.8516L43.1641 58.4375L42.7734 59.6094L42.2266 62.0312L41.7969 64.1016L41.2891 66.1328L40.8984 67.3438L40.5859 68.2812L39.9609 69.6875L39.6094 70.4688L39.1016 71.3672L38.7109 71.9922L38.3984 72.4609L38.0078 72.9688L37.5781 73.5156L37.2266 73.9062L36.9531 74.2188L36.6016 74.6094L36.2109 75L35.8984 75.2734L35.3516 75.7812L34.8047 76.2109L34.2969 76.6016L33.9062 76.875L32.9688 77.5L31.8359 78.1641L30.9766 78.5938L29.9219 79.0625L28.5938 79.4922L27.8125 79.6875L26.5625 79.9219L26.1328 80H23.125L23.0469 79.9219L21.6797 79.6875L20.6641 79.4531L19.2969 79.0234L18.2031 78.5938L17.4219 78.2422L16.6406 77.8516L15.7812 77.3828L15.1953 77.0703L14.4141 76.5625L13.2422 75.7812L12.6172 75.3125L11.6016 74.5312L10.5078 73.5938L10.0391 73.1641L9.72656 72.8906L9.375 72.5391L9.0625 72.2656L7.53906 70.7422L7.26562 70.4297L6.71875 69.8438L6.25 69.3359L5.82031 68.7891L5.35156 68.2422L5.07812 67.8906L4.60938 67.3047L4.10156 66.6016L3.39844 65.5469L2.92969 64.8047L2.38281 63.8281L1.91406 62.9297L1.44531 61.9141L0.859375 60.3906L0.46875 59.0625L0.15625 57.5L0 56.5234V53.6719L0.078125 53.4375L0.351562 51.9141L0.703125 50.7422L0.9375 50.0391L1.44531 48.9062L1.75781 48.2812L2.10938 47.6562L2.57812 46.875L3.00781 46.25L3.51562 45.5078L3.98438 44.9609L4.375 44.4531L4.60938 44.1797H4.6875L4.76562 44.0234L5.85938 42.9297L6.17188 42.6562L6.64062 42.2656L7.42188 41.6797L8.59375 40.8984L9.64844 40.3125L11.2109 39.6094L11.9922 39.2969L13.7891 38.7109L15.6641 38.2422L19.1406 37.5L20.5078 37.1875L21.5234 36.8359L22.2656 36.4453L22.7734 36.0547L23.125 35.7422H23.2031V35.6641H23.2812V35.5859H23.3594V35.5078H23.4375V35.4297H23.5156L23.5938 35.2734L23.9453 34.8438L24.3359 34.2969L24.6094 33.8672L24.9219 33.2422L25.2734 32.5L25.7422 31.3281L26.2891 30.0391L26.6016 29.3359L27.0312 28.5547L27.5781 27.7344L28.0859 27.1094L28.3594 26.7969L29.1406 26.0156L30.3125 25.1172L31.2891 24.5312L32.0312 24.1406L32.8125 23.7891L33.8672 23.4375L34.7266 23.2422L35.5469 23.125L35.8984 23.0859H37.5L38.5156 23.2031L39.4922 23.3984L40.3125 23.6328L41.5234 24.0625L42.4609 24.4922L43.3984 24.9609L44.1797 25.4297L44.9219 25.8984L45.5469 26.3672L45.8203 26.5625L45.9766 26.5234L46.0938 26.4844L46.1328 26.3672H46.2109L46.2891 26.2109L46.6016 25.9375L47.2656 25.2734H47.3438L47.4219 25.1172L47.7344 24.8438L48.3984 24.1797L48.7109 23.9062L49.4531 23.1641H49.5312V23.0859L49.8438 22.8125L50.3906 22.2656L50.7031 21.9922L51.4844 21.2109H51.5625V21.1328L51.875 20.8594L52.6172 20.1172L52.9297 19.8438L53.6719 19.1016H53.75V19.0234L54.0625 18.75L54.5703 18.2422L54.8828 17.9688L55.7031 17.1484L56.0156 16.875L56.8359 16.0547L57.1484 15.7812L57.8125 15.1172H57.8906V15.0391L58.2031 14.7656L58.7891 14.1797L59.1016 13.9062L59.7656 13.2422L60.1172 12.5781L60.5469 11.6797L60.8984 11.0156L61.3281 10.1172L61.6406 9.53125L61.6016 9.33594L61.3672 9.14062L61.0156 8.71094L60.8203 8.32031L60.7812 8.20312V7.73438L60.9375 7.30469L61.2109 6.95312L61.6016 6.71875L61.9531 6.64062L62.4219 6.67969L62.8906 6.91406L63.2812 7.26562L63.3594 7.30469L63.4375 7.14844L64.5703 6.01562L64.4922 5.85938L64.1797 5.46875L64.0234 5.15625L63.9844 5V4.53125L64.1406 4.10156L64.375 3.78906L64.7266 3.55469L64.9219 3.47656L65.3516 3.4375L65.8203 3.55469L66.1719 3.78906L66.3281 3.90625V3.98438H66.4062L66.4453 4.0625L66.6016 3.98438L67.7734 2.8125L67.6953 2.65625L67.4219 2.34375L67.2266 1.95312L67.1875 1.83594V1.28906L67.3438 0.898438L67.6172 0.546875L67.9297 0.351562L68.1641 0.273438H68.7891L69.3359 0.546875L69.6484 0.859375L69.8047 0.78125L70.2734 0.3125L70.8594 0ZM71.6797 2.61719L64.375 9.92188L64.0625 10.5078L63.7109 11.25L63.3594 11.9141L63.0078 12.6562L62.6562 13.3203L62.4609 13.7109L62.5 13.8672L66.1719 17.5391L66.5625 17.3828L69.7656 15.7812L70.1172 15.5469L70.5859 15.1172L76.4453 9.25781V9.17969L76.6016 9.10156V9.02344L76.7578 8.94531L77.3438 8.35938L77.3828 8.08594V7.5L77.1875 6.5625L76.9531 5.9375L76.6016 5.27344L76.2109 4.72656L75.7422 4.21875L75.4297 3.90625L74.8047 3.4375L74.1016 3.04688L73.3984 2.77344L72.6172 2.61719H71.6797ZM60.8203 15.8984L60.7031 15.9766V16.0547L60.5469 16.1328L59.6484 17.0312L59.5312 17.1094V17.1875L59.375 17.2656L58.5547 18.0859L58.2422 18.3594L57.5781 19.0234L57.5 19.0625V19.1406L57.3438 19.2188L56.5625 20L56.4453 20.0781V20.1562L56.2891 20.2344L55.4297 21.0938L55.3125 21.1719V21.25L55.1562 21.3281L54.3359 22.1484L54.0234 22.4219L53.3594 23.0859L53.0469 23.3594L52.3828 24.0234L52.0703 24.2969L51.2109 25.1562L51.0938 25.2344V25.3125L50.9375 25.3906L50.1953 26.1328L50.1172 26.1719V26.25L49.9609 26.3281L49.2969 26.9922L49.2188 27.0312V27.1094H49.1406V27.1875L48.9844 27.2656L48.1641 28.0859L47.8516 28.3594L47.0312 29.1797L46.875 29.2969V29.375L46.7188 29.4531L46.0156 30.1562L45.8984 30.2344V30.3125L45.7422 30.3906L45.0781 31.0547L45 31.0938V31.1719L44.8438 31.25L43.9453 32.1484L43.6328 32.4219L42.9297 33.125L42.6172 33.3984L41.8359 34.1797L41.5234 34.4531L40.8594 35.1172L40.7812 35.1562V35.2344L40.625 35.3125L39.8047 36.1328L39.7266 36.1719V36.25L39.5703 36.3281L38.8672 37.0312L38.7891 37.0703V37.1484H38.7109L38.7891 37.3047L39.7266 37.8125L40.1953 38.1641L40.8594 38.7109L41.1719 38.9844L41.5234 39.4141L42.0312 40.0391L42.5 40.8594L42.7344 41.25H42.8516L43.2812 40.8203L43.5547 40.5078L44.2969 39.7656L44.5703 39.4531L45.2344 38.7891V38.7109L45.3516 38.6719L45.625 38.3594L46.4453 37.5391V37.4609L46.5625 37.4219L46.8359 37.1094L47.3438 36.6016V36.5234H47.4219L47.6953 36.2109L48.3594 35.5469L48.6328 35.2344L49.2969 34.5703V34.4922H49.375L49.6484 34.1797L50.4688 33.3594L50.7422 33.0469L51.25 32.5391V32.4609H51.3281V32.3828H51.4062L51.6797 32.0703L52.2656 31.4844L52.5391 31.1719L53.3594 30.3516V30.2734H53.4375L53.7109 29.9609L54.5312 29.1406L54.8047 28.8281L55.3125 28.3203V28.2422H55.3906V28.1641H55.4688L55.7422 27.8516L56.3281 27.2656L56.6016 26.9531L57.3438 26.2109L57.6172 25.8984L58.4766 25.0391V24.9609L58.5938 24.9219L58.8672 24.6094L59.375 24.1016V24.0234H59.4531L59.7266 23.7109L60.3906 23.0469L60.6641 22.7344L61.3281 22.0703V21.9922H61.4062L61.6797 21.6797L62.5391 20.8203V20.7422L62.6562 20.7031L62.9297 20.3906L63.2812 20.0391V19.9609H63.3594L63.6328 19.6484L64.0625 19.2188L64.0234 19.0625L60.8594 15.8984H60.8203ZM35.8594 25.7422L35.0781 25.8594L34.2969 26.0547L33.6328 26.2891L32.6562 26.7578L31.8359 27.2656L31.2891 27.6562L30.7812 28.0859L30.5078 28.3203L30.2344 28.6328L29.9219 28.9844L29.5703 29.4531L29.1406 30.1562L28.8281 30.7812L28.4375 31.6797L27.8125 33.2031L27.3828 34.1797L26.7578 35.3906L26.4844 35.8203L26.0938 36.3672L25.7812 36.7578L25.4688 37.1094V37.1875L25.3125 37.2656V37.3438L25.1953 37.3828L24.9609 37.6562L24.5312 38.0078L24.0234 38.4375L23.0859 38.9844L22.6172 39.2188L21.5234 39.6094L20.3516 39.9219L18.9453 40.2344L16.6797 40.7031L15.0391 41.0938L13.8672 41.4453L12.6172 41.875L11.6406 42.3047L10.8594 42.6562L10 43.125L8.94531 43.8281L8.4375 44.2188L8.04688 44.5312L7.57812 44.9609L7.26562 45.2344L6.71875 45.7812L6.44531 46.0938L6.13281 46.4453L5.82031 46.8359L5.42969 47.3438L5 47.9688L4.53125 48.7109L4.0625 49.5312L3.59375 50.5078L3.28125 51.2891L2.96875 52.3047L2.8125 53.0078L2.65625 54.1016L2.61719 55.6641L2.73438 56.875L2.85156 57.5781L3.08594 58.6328L3.39844 59.6484L3.63281 60.3125L4.0625 61.3281L4.6875 62.6172L5.23438 63.5547L5.58594 64.1016L6.13281 64.8828L6.44531 65.3516L6.91406 66.0156L7.46094 66.6797L8.16406 67.5391L8.55469 67.9688L8.82812 68.2812L9.10156 68.5547L9.375 68.8672L11.25 70.7422L11.5625 71.0156L11.9531 71.4062L12.3828 71.7578L12.7344 72.0703L13.1641 72.4219L13.7891 72.9297L14.5312 73.4766L15.2734 73.9844L15.8984 74.4141L16.5234 74.8047L17.6172 75.4297L18.3594 75.7812L18.9453 76.0547L20 76.4844L21.0938 76.8359L22.0703 77.0703L22.8516 77.2266L23.8672 77.3438L24.7266 77.3828L25.7031 77.3438L26.875 77.1875L27.6172 77.0312L28.9062 76.6406L30.3516 75.9766L31.1328 75.5469L31.8359 75.1172L32.2266 74.8438L32.8906 74.375L33.3984 73.9453L33.7891 73.6328L34.1797 73.2812L34.4922 72.9688L34.7656 72.7344L35.0391 72.4219L35.5078 71.9141L35.8984 71.4062L36.4062 70.7031L36.7969 70.0781L37.2656 69.2578L37.8125 68.0859L38.125 67.3438L38.5938 65.9375L38.8672 65.0391L39.2578 63.3984L39.6875 61.3281L40 59.8438L40.3906 58.3984L40.7031 57.5391L41.0156 56.875L41.4844 56.0938L41.9141 55.5469L42.3828 55L42.9688 54.4141L43.5156 53.9844L44.0234 53.5938L44.5312 53.2812L45.4688 52.7734L46.3672 52.3438L48.0859 51.6406L49.2969 51.1328L50.0391 50.7422L50.7422 50.2734L51.4062 49.7266L52.0312 49.1016L52.5391 48.4375L52.8906 47.8906L53.3203 47.1484L53.7109 46.3281L53.9844 45.5078L54.1797 44.6484L54.2578 43.9453V43.3203L54.2188 42.2656L53.9844 40.9766L53.6719 39.9609L53.3594 39.1406L52.7344 37.8516L52.2656 37.0703L51.7969 36.3672L51.5625 36.0547H51.4453L50.8594 36.6797L50.4297 37.1094V37.1875H50.3516L50.0781 37.5L49.5312 38.0469V38.125L49.4141 38.1641L49.1406 38.4766L48.3203 39.2969L48.0469 39.6094L47.3438 40.3125V40.3906H47.2656L46.9922 40.7031L46.4062 41.2891L46.1328 41.6016L45.4688 42.2656V42.3438L45.3516 42.3828L45.0781 42.6953L44.2578 43.5156L43.9844 43.8281L43.5156 44.2969L43.4375 45.5078L43.3203 46.3672L43.0859 47.2656L42.6953 48.2422L42.3047 48.9844L41.8359 49.6484L41.4844 50.0781L41.0547 50.5469L40.5078 51.0547L39.8047 51.5625L38.9844 52.0312L38.0859 52.4219L37.1094 52.6953L36.2109 52.8516L35.8203 52.8906H34.6875L34.0234 52.8125L33.0859 52.6172L32.2656 52.3438L31.3281 51.9141L30.5859 51.4453L30.0391 51.0156L29.5703 50.5859L29.0625 50.0781L28.5547 49.4141L28.0469 48.5938L27.6562 47.7734L27.3828 46.9531L27.1875 46.0547L27.1094 45.5469L27.0703 45V44.4141L27.1484 43.5938L27.2656 42.9297L27.5 42.1094L27.7344 41.4844L28.0859 40.7422L28.3984 40.2344L28.7109 39.8047L29.1016 39.2969L29.2969 39.1016V39.0234H29.375L29.5703 38.7891L29.8828 38.5156L30.4297 38.0859L31.0156 37.6953L31.6406 37.3438L32.5781 36.9531L33.3984 36.7188L34.3359 36.5625L35.6641 36.4844L35.8594 36.3281L36.0156 36.1719V36.0938L36.1719 36.0156L36.875 35.3125L36.9531 35.2734V35.1953L37.1094 35.1172L37.7344 34.4922L38.0469 34.2188L38.8281 33.4375L39.1406 33.1641L39.9609 32.3438L40.0781 32.2656V32.1875L40.2344 32.1094L41.0156 31.3281L41.0938 31.2891V31.2109L41.25 31.1328L41.9531 30.4297L42.0312 30.3906V30.3125L42.1875 30.2344L43.0469 29.375L43.2812 29.1797V29.1016L43.4375 29.0234L43.9844 28.4766L43.5156 28.125L42.8125 27.6562L41.9922 27.1875L41.3672 26.875L40.625 26.5234L39.2578 26.0547L38.3203 25.8594L37.6172 25.7422H35.8594ZM35.1562 39.1016L34.1016 39.2188L33.0859 39.5312L32.1484 40.0391L31.6016 40.5078L31.2891 40.7812L30.9375 41.1719L30.5859 41.6406L30.1562 42.4219L29.8438 43.3203L29.7266 44.0625L29.6875 44.3359V45.0781L29.8047 45.9375L30.0781 46.8359L30.4688 47.6172L30.7812 48.0469L31.1328 48.4766L31.3281 48.7109L31.7578 49.0625L32.1484 49.375L32.8516 49.7656L33.2812 49.9609L34.1016 50.1953L34.6484 50.2734L35.4688 50.3125L36.4844 50.1953L37.4609 49.8828L38.2812 49.4531L38.6328 49.1797L39.0234 48.8672L39.375 48.5547L39.8047 48.0078L40.0391 47.6953L40.4688 46.875L40.7422 45.9766L40.8203 45.5078L40.8594 45.1172V44.1016L40.7422 43.4375L40.5469 42.7734L40.2734 42.1484L39.9219 41.5234L39.6094 41.1328L39.1797 40.6641L38.7891 40.3125L38.2812 39.9609L37.6562 39.6094L36.9531 39.3359L36.0156 39.1406L35.1562 39.1016Z" fill="black"/>
<path d="M13.5156 52.7344H13.9844L14.375 52.8906L14.8047 53.2031L26.875 65.2734L27.1484 65.7031L27.2656 66.0156V66.4453L27.1094 66.875L26.875 67.1875L26.5234 67.4219L26.0547 67.5391H25.7812L25.3906 67.4219L24.9609 67.1094L12.8516 55L12.5391 54.5312L12.4609 54.2969V53.7891L12.5781 53.4375L12.8125 53.125L13.0859 52.8906L13.5156 52.7344Z" fill="black"/>
</g>
<defs>
<clipPath id="clip0_433_24">
<rect width="80" height="80" fill="white"/>
</clipPath>
</defs>
</svg>
